<svg width="232" height="29" viewBox="0 0 232 29" fill="none" xmlns="http://www.w3.org/2000/svg">
<path d="M3.76172 1.16406C3.68359 2.27083 3.61849 3.40365 3.56641 4.5625C3.52734 5.72135 3.49479 6.8737 3.46875 8.01953C3.44271 9.16536 3.42318 10.2917 3.41016 11.3984C3.39714 12.5052 3.39062 13.5599 3.39062 14.5625C3.39062 15.5651 3.39714 16.6198 3.41016 17.7266C3.42318 18.8333 3.44271 19.9661 3.46875 21.125C3.49479 22.2708 3.52734 23.4297 3.56641 24.6016C3.60547 25.7604 3.65755 26.8932 3.72266 28H0.0703125C0.148438 26.8932 0.207031 25.7604 0.246094 24.6016C0.298177 23.4297 0.33724 22.2708 0.363281 21.125C0.389323 19.9661 0.408854 18.8333 0.421875 17.7266C0.434896 16.6198 0.441406 15.5651 0.441406 14.5625C0.441406 13.5599 0.434896 12.5052 0.421875 11.3984C0.408854 10.2917 0.389323 9.16536 0.363281 8.01953C0.33724 6.8737 0.298177 5.72135 0.246094 4.5625C0.207031 3.40365 0.148438 2.27083 0.0703125 1.16406H3.76172Z" fill="#949494"/>
<path d="M17.9414 15.1484C17.9154 13.1172 17.8698 11.3464 17.8047 9.83594C17.7526 8.3125 17.6289 7.05599 17.4336 6.06641C17.2513 5.0638 16.9779 4.3151 16.6133 3.82031C16.2487 3.32552 15.7474 3.07812 15.1094 3.07812C14.875 3.07812 14.5951 3.13672 14.2695 3.25391C13.957 3.37109 13.625 3.53385 13.2734 3.74219C12.9349 3.9375 12.5898 4.17839 12.2383 4.46484C11.8867 4.73828 11.5482 5.03125 11.2227 5.34375C11.1576 6.91927 11.112 8.48828 11.0859 10.0508C11.0599 11.6003 11.0469 13.1888 11.0469 14.8164C11.0469 16.0273 11.0534 17.1797 11.0664 18.2734C11.0794 19.3672 11.099 20.4414 11.125 21.4961C11.151 22.5508 11.1901 23.612 11.2422 24.6797C11.2943 25.7344 11.3529 26.8411 11.418 28H7.80469C7.86979 26.8411 7.92188 25.7344 7.96094 24.6797C8.01302 23.612 8.05208 22.5508 8.07812 21.4961C8.11719 20.4414 8.14323 19.3672 8.15625 18.2734C8.16927 17.1797 8.17578 16.0273 8.17578 14.8164C8.17578 13.6055 8.16927 12.4336 8.15625 11.3008C8.14323 10.1549 8.11719 9.02865 8.07812 7.92188C8.05208 6.80208 8.01302 5.6888 7.96094 4.58203C7.92188 3.46224 7.86979 2.32292 7.80469 1.16406H11.4375L11.3398 2.80469C12.043 2.17969 12.7982 1.67188 13.6055 1.28125C14.4258 0.877604 15.2266 0.675781 16.0078 0.675781C16.9844 0.675781 17.8242 0.929688 18.5273 1.4375C19.2435 1.93229 19.7969 2.68099 20.1875 3.68359C20.5781 3.26693 20.9948 2.8763 21.4375 2.51172C21.8932 2.14714 22.3555 1.82812 22.8242 1.55469C23.306 1.28125 23.7943 1.06641 24.2891 0.910156C24.7969 0.753906 25.2917 0.675781 25.7734 0.675781C27.3229 0.675781 28.5208 1.29427 29.3672 2.53125C30.2266 3.75521 30.6562 5.58464 30.6562 8.01953C30.6562 8.61849 30.6497 9.26302 30.6367 9.95312C30.6367 10.6302 30.6302 11.3008 30.6172 11.9648C30.6042 12.6159 30.5911 13.2214 30.5781 13.7812C30.5781 14.3411 30.5781 14.7969 30.5781 15.1484C30.5781 16.3594 30.5846 17.4922 30.5977 18.5469C30.6107 19.6016 30.6302 20.6367 30.6562 21.6523C30.6823 22.668 30.7148 23.6901 30.7539 24.7188C30.806 25.7474 30.8646 26.8411 30.9297 28H27.3359C27.401 26.8411 27.4596 25.7474 27.5117 24.7188C27.5638 23.6901 27.6094 22.668 27.6484 21.6523C27.6875 20.6367 27.707 19.6016 27.707 18.5469C27.7201 17.4922 27.7201 16.3594 27.707 15.1484C27.681 13.1172 27.6354 11.3464 27.5703 9.83594C27.5182 8.3125 27.3945 7.05599 27.1992 6.06641C27.0169 5.0638 26.7435 4.3151 26.3789 3.82031C26.0143 3.32552 25.513 3.07812 24.875 3.07812C24.6146 3.07812 24.3151 3.14974 23.9766 3.29297C23.638 3.42318 23.2799 3.60547 22.9023 3.83984C22.5378 4.0612 22.1602 4.32812 21.7695 4.64062C21.3919 4.95312 21.0404 5.28516 20.7148 5.63672C20.832 6.36589 20.8906 7.16016 20.8906 8.01953C20.8906 8.61849 20.8841 9.26302 20.8711 9.95312C20.8711 10.6302 20.8646 11.3008 20.8516 11.9648C20.8385 12.6159 20.8255 13.2214 20.8125 13.7812C20.8125 14.3411 20.8125 14.7969 20.8125 15.1484C20.8125 16.3594 20.819 17.4922 20.832 18.5469C20.8451 19.6016 20.8646 20.6367 20.8906 21.6523C20.9167 22.668 20.9492 23.6901 20.9883 24.7188C21.0404 25.7474 21.099 26.8411 21.1641 28H17.5703C17.6354 26.8411 17.694 25.7474 17.7461 24.7188C17.7982 23.6901 17.8438 22.668 17.8828 21.6523C17.9219 20.6367 17.9414 19.6016 17.9414 18.5469C17.9544 17.4922 17.9544 16.3594 17.9414 15.1484Z" fill="#949494"/>
<path d="M44.7188 28L44.8164 25.6367C44.5039 25.9883 44.1849 26.3398 43.8594 26.6914C43.5339 27.0299 43.1693 27.3359 42.7656 27.6094C42.362 27.8698 41.8997 28.0781 41.3789 28.2344C40.8711 28.4036 40.2656 28.4883 39.5625 28.4883C38.7552 28.4883 38 28.3255 37.2969 28C36.6068 27.6615 36.0013 27.1732 35.4805 26.5352C34.9727 25.8971 34.569 25.1094 34.2695 24.1719C33.9701 23.2214 33.8203 22.1276 33.8203 20.8906C33.8203 19.3151 34.0612 17.9674 34.543 16.8477C35.0247 15.7279 35.7344 14.7773 36.6719 13.9961C37.6224 13.2148 38.7943 12.5833 40.1875 12.1016C41.5938 11.6198 43.2148 11.2292 45.0508 10.9297C45.0508 9.35417 44.9661 8.05208 44.7969 7.02344C44.6406 5.99479 44.4062 5.18099 44.0938 4.58203C43.7812 3.97005 43.3906 3.54688 42.9219 3.3125C42.4661 3.07812 41.9388 2.96094 41.3398 2.96094C40.819 2.96094 40.2982 3.04557 39.7773 3.21484C39.2565 3.37109 38.7357 3.58594 38.2148 3.85938C37.707 4.13281 37.1927 4.45182 36.6719 4.81641C36.1641 5.16797 35.6628 5.53906 35.168 5.92969V2.14062C35.7148 1.93229 36.2357 1.74349 36.7305 1.57422C37.2253 1.39193 37.7201 1.23568 38.2148 1.10547C38.7227 0.97526 39.2305 0.871094 39.7383 0.792969C40.2461 0.714844 40.7865 0.675781 41.3594 0.675781C42.5052 0.675781 43.5013 0.832031 44.3477 1.14453C45.207 1.45703 45.9167 1.95182 46.4766 2.62891C47.0495 3.30599 47.4727 4.17839 47.7461 5.24609C48.0326 6.3138 48.1758 7.59635 48.1758 9.09375C48.1758 9.23698 48.1693 9.47786 48.1562 9.81641C48.1562 10.1549 48.1497 10.5521 48.1367 11.0078C48.1367 11.4635 48.1302 11.9518 48.1172 12.4727C48.1172 12.9935 48.1107 13.5078 48.0977 14.0156C48.0977 14.5234 48.0911 15.0052 48.0781 15.4609C48.0781 15.9036 48.0781 16.2747 48.0781 16.5742C48.0781 17.2643 48.0846 18.0456 48.0977 18.918C48.1107 19.7773 48.1302 20.6953 48.1562 21.6719C48.1953 22.6484 48.2344 23.6706 48.2734 24.7383C48.3255 25.806 48.3841 26.8932 48.4492 28H44.7188ZM44.9531 22.668C44.9922 21.3398 45.0247 19.9206 45.0508 18.4102C45.0768 16.8867 45.0898 15.1484 45.0898 13.1953C43.4362 13.3906 42.1016 13.7096 41.0859 14.1523C40.0703 14.5951 39.2826 15.1419 38.7227 15.793C38.1628 16.431 37.7852 17.1602 37.5898 17.9805C37.3945 18.8008 37.2969 19.6927 37.2969 20.6562C37.2969 21.4766 37.3685 22.2188 37.5117 22.8828C37.668 23.5469 37.8893 24.1133 38.1758 24.582C38.4622 25.0378 38.8008 25.3893 39.1914 25.6367C39.582 25.8841 40.0247 26.0078 40.5195 26.0078C41.0794 26.0078 41.5677 25.9102 41.9844 25.7148C42.4141 25.5065 42.7982 25.2461 43.1367 24.9336C43.4883 24.6081 43.8073 24.25 44.0938 23.8594C44.3802 23.4557 44.6667 23.0586 44.9531 22.668Z" fill="#949494"/>
<path d="M59.875 14.7969H66.9844C66.9323 15.8646 66.8932 16.9128 66.8672 17.9414C66.8542 18.9701 66.8477 19.9531 66.8477 20.8906C66.8477 21.8281 66.8477 22.6875 66.8477 23.4688C66.8607 24.237 66.8802 24.901 66.9062 25.4609C66.9323 26.125 66.9583 26.7174 66.9844 27.2383C66.3203 27.5768 65.513 27.8633 64.5625 28.0977C63.612 28.332 62.4596 28.4492 61.1055 28.4492C59.7513 28.4492 58.4948 28.1693 57.3359 27.6094C56.1771 27.0495 55.168 26.2031 54.3086 25.0703C53.4492 23.9245 52.7721 22.4857 52.2773 20.7539C51.7956 19.0091 51.5547 16.9583 51.5547 14.6016C51.5547 12.2448 51.8086 10.2005 52.3164 8.46875C52.8372 6.72396 53.5404 5.28516 54.4258 4.15234C55.3112 3.00651 56.3398 2.15365 57.5117 1.59375C58.6966 1.03385 59.9531 0.753906 61.2812 0.753906C61.8281 0.753906 62.3229 0.779948 62.7656 0.832031C63.2083 0.871094 63.6185 0.929688 63.9961 1.00781C64.3867 1.08594 64.7513 1.18359 65.0898 1.30078C65.4284 1.41797 65.7604 1.54167 66.0859 1.67188V5.61719C65.2396 4.66667 64.4388 4.0026 63.6836 3.625C62.9414 3.23438 62.1341 3.03906 61.2617 3.03906C60.2591 3.03906 59.3672 3.31901 58.5859 3.87891C57.8047 4.42578 57.1406 5.20703 56.5938 6.22266C56.0599 7.23828 55.6497 8.45573 55.3633 9.875C55.0898 11.2812 54.9531 12.8438 54.9531 14.5625C54.9531 16.2292 55.0833 17.7721 55.3438 19.1914C55.6042 20.5977 55.9948 21.8216 56.5156 22.8633C57.0365 23.8919 57.6875 24.6992 58.4688 25.2852C59.263 25.8711 60.1875 26.1641 61.2422 26.1641C61.6979 26.1641 62.0951 26.1315 62.4336 26.0664C62.7852 25.9883 63.1302 25.8581 63.4688 25.6758C63.4818 25.3893 63.4948 25.0573 63.5078 24.6797C63.5208 24.3542 63.5339 23.9635 63.5469 23.5078C63.5599 23.0391 63.5664 22.4987 63.5664 21.8867C63.5664 21.2227 63.5534 20.487 63.5273 19.6797C63.5143 18.8724 63.4818 18 63.4297 17.0625H59.875V14.7969Z" fill="#949494"/>
<path d="M74.4648 1.16406C74.3867 2.27083 74.3216 3.40365 74.2695 4.5625C74.2305 5.72135 74.1979 6.8737 74.1719 8.01953C74.1458 9.16536 74.1263 10.2917 74.1133 11.3984C74.1003 12.5052 74.0938 13.5599 74.0938 14.5625C74.0938 15.5651 74.1003 16.6198 74.1133 17.7266C74.1263 18.8333 74.1458 19.9661 74.1719 21.125C74.1979 22.2708 74.2305 23.4297 74.2695 24.6016C74.3086 25.7604 74.3607 26.8932 74.4258 28H70.7734C70.8516 26.8932 70.9102 25.7604 70.9492 24.6016C71.0013 23.4297 71.0404 22.2708 71.0664 21.125C71.0924 19.9661 71.112 18.8333 71.125 17.7266C71.138 16.6198 71.1445 15.5651 71.1445 14.5625C71.1445 13.5599 71.138 12.5052 71.125 11.3984C71.112 10.2917 71.0924 9.16536 71.0664 8.01953C71.0404 6.8737 71.0013 5.72135 70.9492 4.5625C70.9102 3.40365 70.8516 2.27083 70.7734 1.16406H74.4648Z" fill="#949494"/>
<path d="M89.9336 15.1484C89.9076 13.1172 89.862 11.3464 89.7969 9.83594C89.7448 8.3125 89.6211 7.05599 89.4258 6.06641C89.2435 5.0638 88.9701 4.3151 88.6055 3.82031C88.2409 3.32552 87.7396 3.07812 87.1016 3.07812C86.763 3.07812 86.3529 3.1888 85.8711 3.41016C85.4023 3.63151 84.9206 3.93099 84.4258 4.30859C83.931 4.67318 83.4557 5.08984 83 5.55859C82.5443 6.02734 82.1667 6.5026 81.8672 6.98438C81.7891 9.5625 81.75 12.1732 81.75 14.8164C81.75 16.0273 81.7565 17.1797 81.7695 18.2734C81.7826 19.3672 81.8021 20.4414 81.8281 21.4961C81.8542 22.5508 81.8932 23.612 81.9453 24.6797C81.9974 25.7344 82.056 26.8411 82.1211 28H78.5078C78.5729 26.8411 78.625 25.7344 78.6641 24.6797C78.7161 23.612 78.7552 22.5508 78.7812 21.4961C78.8203 20.4414 78.8464 19.3672 78.8594 18.2734C78.8724 17.1797 78.8789 16.0273 78.8789 14.8164C78.8789 13.6055 78.8724 12.4336 78.8594 11.3008C78.8464 10.1549 78.8203 9.02865 78.7812 7.92188C78.7552 6.80208 78.7161 5.6888 78.6641 4.58203C78.625 3.46224 78.5729 2.32292 78.5078 1.16406H82.1406L81.9648 4.19141C82.3555 3.72266 82.7917 3.27995 83.2734 2.86328C83.7552 2.43359 84.2565 2.05599 84.7773 1.73047C85.2982 1.40495 85.832 1.15104 86.3789 0.96875C86.9258 0.773438 87.4661 0.675781 88 0.675781C89.5495 0.675781 90.7474 1.29427 91.5938 2.53125C92.4531 3.75521 92.8828 5.58464 92.8828 8.01953C92.8828 8.61849 92.8763 9.26302 92.8633 9.95312C92.8633 10.6302 92.8568 11.3008 92.8438 11.9648C92.8307 12.6159 92.8177 13.2214 92.8047 13.7812C92.8047 14.3411 92.8047 14.7969 92.8047 15.1484C92.8047 16.3594 92.8112 17.4922 92.8242 18.5469C92.8372 19.6016 92.8568 20.6367 92.8828 21.6523C92.9089 22.668 92.9414 23.6901 92.9805 24.7188C93.0326 25.7474 93.0911 26.8411 93.1562 28H89.5625C89.6276 26.8411 89.6862 25.7474 89.7383 24.7188C89.7904 23.6901 89.8359 22.668 89.875 21.6523C89.9141 20.6367 89.9336 19.6016 89.9336 18.5469C89.9466 17.4922 89.9466 16.3594 89.9336 15.1484Z" fill="#949494"/>
<path d="M106.945 28L107.043 25.6367C106.73 25.9883 106.411 26.3398 106.086 26.6914C105.76 27.0299 105.396 27.3359 104.992 27.6094C104.589 27.8698 104.126 28.0781 103.605 28.2344C103.098 28.4036 102.492 28.4883 101.789 28.4883C100.982 28.4883 100.227 28.3255 99.5234 28C98.8333 27.6615 98.2279 27.1732 97.707 26.5352C97.1992 25.8971 96.7956 25.1094 96.4961 24.1719C96.1966 23.2214 96.0469 22.1276 96.0469 20.8906C96.0469 19.3151 96.2878 17.9674 96.7695 16.8477C97.2513 15.7279 97.9609 14.7773 98.8984 13.9961C99.849 13.2148 101.021 12.5833 102.414 12.1016C103.82 11.6198 105.441 11.2292 107.277 10.9297C107.277 9.35417 107.193 8.05208 107.023 7.02344C106.867 5.99479 106.633 5.18099 106.32 4.58203C106.008 3.97005 105.617 3.54688 105.148 3.3125C104.693 3.07812 104.165 2.96094 103.566 2.96094C103.046 2.96094 102.525 3.04557 102.004 3.21484C101.483 3.37109 100.962 3.58594 100.441 3.85938C99.9336 4.13281 99.4193 4.45182 98.8984 4.81641C98.3906 5.16797 97.8893 5.53906 97.3945 5.92969V2.14062C97.9414 1.93229 98.4622 1.74349 98.957 1.57422C99.4518 1.39193 99.9466 1.23568 100.441 1.10547C100.949 0.97526 101.457 0.871094 101.965 0.792969C102.473 0.714844 103.013 0.675781 103.586 0.675781C104.732 0.675781 105.728 0.832031 106.574 1.14453C107.434 1.45703 108.143 1.95182 108.703 2.62891C109.276 3.30599 109.699 4.17839 109.973 5.24609C110.259 6.3138 110.402 7.59635 110.402 9.09375C110.402 9.23698 110.396 9.47786 110.383 9.81641C110.383 10.1549 110.376 10.5521 110.363 11.0078C110.363 11.4635 110.357 11.9518 110.344 12.4727C110.344 12.9935 110.337 13.5078 110.324 14.0156C110.324 14.5234 110.318 15.0052 110.305 15.4609C110.305 15.9036 110.305 16.2747 110.305 16.5742C110.305 17.2643 110.311 18.0456 110.324 18.918C110.337 19.7773 110.357 20.6953 110.383 21.6719C110.422 22.6484 110.461 23.6706 110.5 24.7383C110.552 25.806 110.611 26.8932 110.676 28H106.945ZM107.18 22.668C107.219 21.3398 107.251 19.9206 107.277 18.4102C107.303 16.8867 107.316 15.1484 107.316 13.1953C105.663 13.3906 104.328 13.7096 103.312 14.1523C102.297 14.5951 101.509 15.1419 100.949 15.793C100.389 16.431 100.012 17.1602 99.8164 17.9805C99.6211 18.8008 99.5234 19.6927 99.5234 20.6562C99.5234 21.4766 99.5951 22.2188 99.7383 22.8828C99.8945 23.5469 100.116 24.1133 100.402 24.582C100.689 25.0378 101.027 25.3893 101.418 25.6367C101.809 25.8841 102.251 26.0078 102.746 26.0078C103.306 26.0078 103.794 25.9102 104.211 25.7148C104.641 25.5065 105.025 25.2461 105.363 24.9336C105.715 24.6081 106.034 24.25 106.32 23.8594C106.607 23.4557 106.893 23.0586 107.18 22.668Z" fill="#949494"/>
<path d="M125.07 4.26953C123.352 4.26953 121.854 4.51042 120.578 4.99219C119.302 5.47396 118.365 6.20312 117.766 7.17969C117.688 9.70573 117.648 12.2513 117.648 14.8164C117.648 16.0273 117.655 17.1797 117.668 18.2734C117.681 19.3672 117.701 20.4414 117.727 21.4961C117.753 22.5508 117.792 23.612 117.844 24.6797C117.896 25.7344 117.954 26.8411 118.02 28H114.406C114.471 26.8411 114.523 25.7344 114.562 24.6797C114.615 23.612 114.654 22.5508 114.68 21.4961C114.719 20.4414 114.745 19.3672 114.758 18.2734C114.771 17.1797 114.777 16.0273 114.777 14.8164C114.777 13.6055 114.771 12.4336 114.758 11.3008C114.745 10.1549 114.719 9.02865 114.68 7.92188C114.654 6.80208 114.615 5.6888 114.562 4.58203C114.523 3.46224 114.471 2.32292 114.406 1.16406H118.039C118 1.77604 117.961 2.32292 117.922 2.80469C117.896 3.28646 117.87 3.82682 117.844 4.42578C118.26 3.94401 118.768 3.47526 119.367 3.01953C119.979 2.5638 120.617 2.16667 121.281 1.82812C121.945 1.47656 122.609 1.19661 123.273 0.988281C123.938 0.779948 124.536 0.675781 125.07 0.675781V4.26953Z" fill="#949494"/>
<path d="M128.645 28.5273C128.059 28.5273 127.538 28.4948 127.082 28.4297C126.626 28.3776 126.34 28.3385 126.223 28.3125V25.5391C126.288 25.5651 126.392 25.5977 126.535 25.6367C126.691 25.6758 126.867 25.7148 127.062 25.7539C127.271 25.793 127.492 25.832 127.727 25.8711C127.961 25.8971 128.189 25.9102 128.41 25.9102C129.165 25.9102 129.758 25.6758 130.188 25.207C130.63 24.7253 131.027 23.9896 131.379 23C131.561 22.4661 131.75 21.9128 131.945 21.3398C132.141 20.7539 132.342 20.1419 132.551 19.5039C132.212 18.5013 131.841 17.4531 131.438 16.3594C131.047 15.2656 130.643 14.1654 130.227 13.0586C129.81 11.9388 129.393 10.832 128.977 9.73828C128.56 8.63151 128.15 7.5638 127.746 6.53516C127.355 5.50651 126.978 4.53646 126.613 3.625C126.262 2.71354 125.943 1.89323 125.656 1.16406H129.289C129.536 2.16667 129.849 3.29297 130.227 4.54297C130.604 5.79297 131.001 7.0625 131.418 8.35156C131.848 9.64062 132.271 10.9036 132.688 12.1406C133.104 13.3646 133.482 14.4648 133.82 15.4414C134.25 14.0221 134.673 12.6029 135.09 11.1836C135.507 9.76432 135.891 8.42318 136.242 7.16016C136.594 5.88411 136.9 4.73177 137.16 3.70312C137.434 2.66146 137.642 1.8151 137.785 1.16406H141.418C140.988 2.4401 140.487 3.92448 139.914 5.61719C139.341 7.3099 138.729 9.14583 138.078 11.125C137.44 13.0911 136.783 15.1615 136.105 17.3359C135.428 19.4974 134.771 21.6784 134.133 23.8789C133.677 25.4414 133.013 26.6068 132.141 27.375C131.281 28.1432 130.116 28.5273 128.645 28.5273Z" fill="#949494"/>
<path d="M161.848 6.06641C161.691 7.21224 161.522 8.46224 161.34 9.81641C161.171 11.1576 160.995 12.5312 160.812 13.9375C160.63 15.3307 160.448 16.724 160.266 18.1172C160.083 19.4974 159.914 20.8125 159.758 22.0625C159.602 23.2995 159.458 24.4323 159.328 25.4609C159.211 26.4766 159.12 27.3229 159.055 28H154.426C154.283 27.0234 154.113 25.9036 153.918 24.6406C153.736 23.3776 153.527 22.0169 153.293 20.5586C153.072 19.0872 152.824 17.5508 152.551 15.9492C152.277 14.3346 151.984 12.7005 151.672 11.0469C151.372 9.38021 151.053 7.71354 150.715 6.04688C150.376 4.38021 150.031 2.7526 149.68 1.16406H153.449C153.944 5.07031 154.445 8.91797 154.953 12.707C155.474 16.4831 156.04 20.2656 156.652 24.0547H156.926C157.225 22.1667 157.505 20.2786 157.766 18.3906C158.039 16.5026 158.293 14.6081 158.527 12.707C158.775 10.793 159.016 8.87891 159.25 6.96484C159.484 5.03776 159.725 3.10417 159.973 1.16406H163.996C164.478 5.05729 164.947 8.90495 165.402 12.707C165.871 16.5091 166.411 20.2917 167.023 24.0547H167.297C167.909 20.2656 168.475 16.4831 168.996 12.707C169.517 8.91797 170.025 5.07031 170.52 1.16406H174.289C173.938 2.7526 173.592 4.38021 173.254 6.04688C172.915 7.71354 172.59 9.38021 172.277 11.0469C171.978 12.7005 171.691 14.3346 171.418 15.9492C171.145 17.5508 170.891 19.0872 170.656 20.5586C170.435 22.0169 170.227 23.3776 170.031 24.6406C169.836 25.9036 169.673 27.0234 169.543 28H164.914C164.849 27.3229 164.751 26.4766 164.621 25.4609C164.504 24.4323 164.367 23.2995 164.211 22.0625C164.055 20.8125 163.885 19.4974 163.703 18.1172C163.521 16.724 163.339 15.3307 163.156 13.9375C162.974 12.5312 162.792 11.1576 162.609 9.81641C162.427 8.46224 162.264 7.21224 162.121 6.06641H161.848Z" fill="#949494"/>
<path d="M192.883 14.6016C192.883 17.0104 192.668 19.0938 192.238 20.8516C191.809 22.5964 191.21 24.0417 190.441 25.1875C189.686 26.3203 188.794 27.1602 187.766 27.707C186.737 28.2539 185.63 28.5273 184.445 28.5273C183.247 28.5273 182.134 28.2539 181.105 27.707C180.077 27.1602 179.178 26.3203 178.41 25.1875C177.655 24.0417 177.056 22.5964 176.613 20.8516C176.184 19.0938 175.969 17.0104 175.969 14.6016C175.969 12.2057 176.184 10.1354 176.613 8.39062C177.056 6.63281 177.655 5.18099 178.41 4.03516C179.178 2.88932 180.077 2.04297 181.105 1.49609C182.134 0.949219 183.247 0.675781 184.445 0.675781C185.63 0.675781 186.737 0.949219 187.766 1.49609C188.794 2.04297 189.686 2.88932 190.441 4.03516C191.21 5.18099 191.809 6.63281 192.238 8.39062C192.668 10.1354 192.883 12.2057 192.883 14.6016ZM189.523 14.6016C189.523 12.5964 189.393 10.8646 189.133 9.40625C188.872 7.94792 188.514 6.75 188.059 5.8125C187.603 4.86198 187.062 4.16536 186.438 3.72266C185.826 3.26693 185.161 3.03906 184.445 3.03906C183.716 3.03906 183.039 3.26693 182.414 3.72266C181.802 4.16536 181.262 4.86198 180.793 5.8125C180.337 6.75 179.979 7.94792 179.719 9.40625C179.458 10.8646 179.328 12.5964 179.328 14.6016C179.328 16.6198 179.458 18.3581 179.719 19.8164C179.979 21.2747 180.337 22.4727 180.793 23.4102C181.262 24.3477 181.802 25.0443 182.414 25.5C183.039 25.9427 183.716 26.1641 184.445 26.1641C185.161 26.1641 185.826 25.9427 186.438 25.5C187.062 25.0443 187.603 24.3477 188.059 23.4102C188.514 22.4727 188.872 21.2747 189.133 19.8164C189.393 18.3581 189.523 16.6198 189.523 14.6016Z" fill="#949494"/>
<path d="M212.453 14.6016C212.453 17.0104 212.238 19.0938 211.809 20.8516C211.379 22.5964 210.78 24.0417 210.012 25.1875C209.257 26.3203 208.365 27.1602 207.336 27.707C206.307 28.2539 205.201 28.5273 204.016 28.5273C202.818 28.5273 201.704 28.2539 200.676 27.707C199.647 27.1602 198.749 26.3203 197.98 25.1875C197.225 24.0417 196.626 22.5964 196.184 20.8516C195.754 19.0938 195.539 17.0104 195.539 14.6016C195.539 12.2057 195.754 10.1354 196.184 8.39062C196.626 6.63281 197.225 5.18099 197.98 4.03516C198.749 2.88932 199.647 2.04297 200.676 1.49609C201.704 0.949219 202.818 0.675781 204.016 0.675781C205.201 0.675781 206.307 0.949219 207.336 1.49609C208.365 2.04297 209.257 2.88932 210.012 4.03516C210.78 5.18099 211.379 6.63281 211.809 8.39062C212.238 10.1354 212.453 12.2057 212.453 14.6016ZM209.094 14.6016C209.094 12.5964 208.964 10.8646 208.703 9.40625C208.443 7.94792 208.085 6.75 207.629 5.8125C207.173 4.86198 206.633 4.16536 206.008 3.72266C205.396 3.26693 204.732 3.03906 204.016 3.03906C203.286 3.03906 202.609 3.26693 201.984 3.72266C201.372 4.16536 200.832 4.86198 200.363 5.8125C199.908 6.75 199.549 7.94792 199.289 9.40625C199.029 10.8646 198.898 12.5964 198.898 14.6016C198.898 16.6198 199.029 18.3581 199.289 19.8164C199.549 21.2747 199.908 22.4727 200.363 23.4102C200.832 24.3477 201.372 25.0443 201.984 25.5C202.609 25.9427 203.286 26.1641 204.016 26.1641C204.732 26.1641 205.396 25.9427 206.008 25.5C206.633 25.0443 207.173 24.3477 207.629 23.4102C208.085 22.4727 208.443 21.2747 208.703 19.8164C208.964 18.3581 209.094 16.6198 209.094 14.6016Z" fill="#949494"/>
<path d="M221.848 1.16406C223.241 1.16406 224.517 1.37891 225.676 1.80859C226.835 2.23828 227.824 2.97396 228.645 4.01562C229.478 5.04427 230.122 6.41797 230.578 8.13672C231.047 9.85547 231.281 11.9974 231.281 14.5625C231.281 17.1406 231.047 19.2956 230.578 21.0273C230.122 22.7461 229.478 24.1263 228.645 25.168C227.811 26.1966 226.815 26.9258 225.656 27.3555C224.497 27.7852 223.215 28 221.809 28H215.734C215.812 26.8932 215.871 25.7604 215.91 24.6016C215.962 23.4297 216.001 22.2708 216.027 21.125C216.053 19.9661 216.073 18.8333 216.086 17.7266C216.099 16.6198 216.105 15.5651 216.105 14.5625C216.105 13.5599 216.099 12.5052 216.086 11.3984C216.073 10.2917 216.053 9.16536 216.027 8.01953C216.001 6.8737 215.962 5.72135 215.91 4.5625C215.871 3.40365 215.812 2.27083 215.734 1.16406H221.848ZM219.289 3.39062C219.198 5.31771 219.133 7.24479 219.094 9.17188C219.068 11.0859 219.055 12.8828 219.055 14.5625C219.055 16.2422 219.068 18.0521 219.094 19.9922C219.12 21.9193 219.178 23.8398 219.27 25.7539H221.887C222.447 25.7539 222.98 25.6953 223.488 25.5781C224.009 25.4479 224.484 25.2266 224.914 24.9141C225.357 24.6016 225.76 24.1784 226.125 23.6445C226.49 23.0977 226.796 22.4141 227.043 21.5938C227.303 20.7604 227.499 19.7708 227.629 18.625C227.772 17.4661 227.844 16.112 227.844 14.5625C227.844 13.013 227.772 11.6654 227.629 10.5195C227.499 9.36068 227.303 8.37109 227.043 7.55078C226.796 6.71745 226.49 6.03385 226.125 5.5C225.76 4.96615 225.357 4.54297 224.914 4.23047C224.484 3.91797 224.009 3.70312 223.488 3.58594C222.98 3.45573 222.447 3.39062 221.887 3.39062H219.289Z" fill="#949494"/>
</svg>
