<svg width="131" height="31" viewBox="0 0 131 31" fill="none" xmlns="http://www.w3.org/2000/svg">
<path d="M43.96 3.36C44.52 3.36 44.9467 3.45333 45.24 3.64C45.56 3.8 45.72 4.04 45.72 4.36C45.72 4.49333 45.68 4.66667 45.6 4.88C45.52 5.12 45.4 5.30667 45.24 5.44C45.1067 5.54667 44.8933 5.69333 44.6 5.88C44.1733 6.12 43.8267 6.38667 43.56 6.68C43.32 6.97333 43.1067 7.42667 42.92 8.04L38.04 25.24C37.9333 25.5867 37.88 25.92 37.88 26.24C37.88 26.5333 37.92 26.7867 38 27C38.1067 27.1867 38.24 27.4133 38.4 27.68C38.5067 27.8133 38.6 27.96 38.68 28.12C38.76 28.2533 38.8 28.4 38.8 28.56C38.8 28.6133 38.7733 28.7467 38.72 28.96C38.6133 29.3067 38.36 29.56 37.96 29.72C37.5867 29.88 37.04 29.96 36.32 29.96H26.92C26.36 29.96 25.92 29.8667 25.6 29.68C25.3067 29.4933 25.16 29.24 25.16 28.92C25.16 28.76 25.2 28.5867 25.28 28.4C25.36 28.2133 25.4667 28.0533 25.6 27.92C25.76 27.76 25.8933 27.6533 26 27.6C26.1333 27.52 26.2267 27.4533 26.28 27.4C26.7067 27.16 27.0533 26.8933 27.32 26.6C27.5867 26.3067 27.8133 25.8533 28 25.24L31.04 14.44L20.68 27.28C19.8267 28.32 19.1333 29.04 18.6 29.44C18.0933 29.8133 17.5067 30 16.84 30C16.2 30 15.6933 29.8 15.32 29.4C14.9733 28.9733 14.6533 28.2667 14.36 27.28L10.6 14.92L7.64 25.28C7.53333 25.6267 7.48 25.96 7.48 26.28C7.48 26.6 7.52 26.8667 7.6 27.08C7.70666 27.2933 7.85333 27.52 8.04 27.76C8.28 28.1067 8.4 28.3867 8.4 28.6C8.4 28.6533 8.37333 28.7867 8.32 29C8.21333 29.3733 7.97333 29.64 7.6 29.8C7.22666 29.9333 6.66666 30 5.92 30H2.6C2.04 30 1.6 29.9067 1.28 29.72C0.986663 29.5333 0.839996 29.28 0.839996 28.96C0.839996 28.8 0.879996 28.6267 0.959996 28.44C1.06666 28.1467 1.24 27.92 1.48 27.76C1.72 27.6 1.86666 27.5067 1.92 27.48C2.34666 27.2133 2.69333 26.9467 2.96 26.68C3.22666 26.3867 3.45333 25.92 3.64 25.28L8.52 8L7.88 5.88C7.74666 5.48 7.68 5.09333 7.68 4.72C7.68 4.24 7.82666 3.89333 8.12 3.68C8.44 3.46667 8.92 3.36 9.56 3.36H15.76C16.56 3.36 17.1467 3.53333 17.52 3.88C17.92 4.22667 18.24 4.82667 18.48 5.68L22.48 18.96L33.32 5.48C34.0133 4.62667 34.6933 4.06667 35.36 3.8C36.0267 3.50667 36.9067 3.36 38 3.36H43.96Z" fill="#949494"/>
<path d="M66.1662 24.48C66.1129 24.6933 66.0863 24.8533 66.0863 24.96C66.0863 25.1467 66.1262 25.2933 66.2062 25.4C66.3129 25.5067 66.4462 25.56 66.6062 25.56C66.9262 25.56 67.1929 25.4267 67.4062 25.16C67.6463 24.8667 67.8062 24.72 67.8862 24.72C68.0196 24.72 68.1262 24.8133 68.2062 25C68.3129 25.16 68.3662 25.36 68.3662 25.6C68.3929 26.3467 68.1262 27.0933 67.5662 27.84C67.0062 28.56 66.2196 29.16 65.2062 29.64C64.1929 30.12 63.0596 30.36 61.8062 30.36C60.2329 30.36 58.9796 30.04 58.0462 29.4C57.1129 28.76 56.5129 27.92 56.2462 26.88C55.2862 27.9467 54.2196 28.76 53.0462 29.32C51.8996 29.8533 50.7262 30.12 49.5262 30.12C47.6596 30.12 46.0862 29.6667 44.8062 28.76C43.5529 27.8267 42.9262 26.5333 42.9262 24.88C42.9262 24.1333 43.0596 23.36 43.3262 22.56L45.8862 14.2C45.9662 13.96 46.0062 13.76 46.0062 13.6C46.0062 13.3067 45.9396 13.08 45.8062 12.92C45.6729 12.7333 45.4729 12.5467 45.2062 12.36C44.9396 12.1467 44.7529 11.96 44.6462 11.8C44.5396 11.64 44.5262 11.4267 44.6062 11.16C44.7662 10.5467 45.6062 10.0133 47.1262 9.56C48.6462 9.08 50.2329 8.84 51.8862 8.84C53.4329 8.84 54.5662 9.13333 55.2862 9.72C56.0062 10.3067 56.3662 11.1067 56.3662 12.12C56.3662 12.7333 56.2729 13.32 56.0862 13.88L53.5662 22.2C53.4596 22.4933 53.4062 22.7733 53.4062 23.04C53.4062 23.4133 53.5129 23.6933 53.7262 23.88C53.9396 24.0667 54.2196 24.16 54.5662 24.16C55.0729 24.16 55.4862 24.0133 55.8062 23.72C56.1262 23.4267 56.4462 22.9333 56.7662 22.24L59.2062 14.2C59.2862 13.96 59.3262 13.76 59.3262 13.6C59.3262 13.3067 59.2596 13.08 59.1262 12.92C58.9929 12.7333 58.8062 12.5467 58.5662 12.36C58.2996 12.1467 58.1129 11.96 58.0062 11.8C57.8996 11.64 57.8862 11.4267 57.9662 11.16C58.0996 10.5467 58.9262 10.0133 60.4462 9.56C61.9662 9.08 63.5529 8.84 65.2062 8.84C66.7529 8.84 67.8862 9.13333 68.6062 9.72C69.3529 10.3067 69.7262 11.0933 69.7262 12.08C69.7262 12.5867 69.6196 13.1867 69.4062 13.88L66.1662 24.48Z" fill="#949494"/>
<path d="M82.9881 8.48C85.2015 8.48 87.1081 8.68 88.7081 9.08C90.3348 9.48 91.5748 10.04 92.4281 10.76C93.3081 11.48 93.7481 12.2933 93.7481 13.2C93.7481 14.1333 93.3748 14.8933 92.6281 15.48C91.9081 16.0667 90.8948 16.36 89.5881 16.36C88.2548 16.36 87.1215 16.0267 86.1881 15.36C85.2815 14.6933 84.8281 13.8533 84.8281 12.84C84.8281 12.4933 84.8815 12.16 84.9881 11.84C84.5081 11.7067 84.0815 11.64 83.7081 11.64C83.0415 11.64 82.4815 11.8 82.0281 12.12C81.6015 12.44 81.4015 12.8933 81.4281 13.48C81.4281 14.1733 81.7748 14.76 82.4681 15.24C83.1615 15.72 84.2815 16.32 85.8281 17.04C87.1615 17.6267 88.2548 18.1733 89.1081 18.68C89.9881 19.16 90.7215 19.7733 91.3081 20.52C91.9215 21.2667 92.2281 22.1467 92.2281 23.16C92.2281 23.3733 92.1748 23.7733 92.0681 24.36C91.6415 26.1467 90.4548 27.56 88.5081 28.6C86.5615 29.64 84.0015 30.16 80.8281 30.16C77.2548 30.16 74.4148 29.68 72.3081 28.72C70.2281 27.76 69.1881 26.44 69.1881 24.76C69.1881 23.6133 69.5348 22.7467 70.2281 22.16C70.9215 21.5733 71.8415 21.28 72.9881 21.28C74.3215 21.28 75.4548 21.6933 76.3881 22.52C77.3481 23.3467 77.8281 24.4 77.8281 25.68C77.8281 26.0267 77.7881 26.3867 77.7081 26.76C78.3481 26.92 78.9615 27 79.5481 27C80.2415 27 80.8148 26.8133 81.2681 26.44C81.7215 26.0667 81.9481 25.5467 81.9481 24.88C81.9215 24.2667 81.6148 23.7467 81.0281 23.32C80.4415 22.8667 79.5081 22.3333 78.2281 21.72C77.0281 21.16 76.0415 20.64 75.2681 20.16C74.4948 19.6533 73.8281 19.0267 73.2681 18.28C72.7348 17.5333 72.4681 16.6533 72.4681 15.64C72.4681 13.4533 73.3748 11.72 75.1881 10.44C77.0281 9.13333 79.6281 8.48 82.9881 8.48Z" fill="#949494"/>
<path d="M104.059 8.84C105.606 8.84 106.739 9.13333 107.459 9.72C108.179 10.3067 108.539 11.1067 108.539 12.12C108.539 12.7333 108.446 13.32 108.259 13.88L104.579 25.84C104.499 26.16 104.459 26.44 104.459 26.68C104.459 27.0267 104.526 27.3067 104.659 27.52C104.792 27.7067 104.979 27.8933 105.219 28.08C105.406 28.2667 105.539 28.4267 105.619 28.56C105.699 28.6667 105.712 28.8133 105.659 29C105.526 29.3467 105.259 29.6 104.859 29.76C104.459 29.92 103.846 30 103.019 30H93.8991C93.2057 30 92.6991 29.8933 92.3791 29.68C92.0591 29.44 91.9524 29.1333 92.0591 28.76C92.1657 28.44 92.4457 28.16 92.8991 27.92C93.2991 27.7067 93.6324 27.4533 93.8991 27.16C94.1657 26.8667 94.3924 26.4 94.5791 25.76L98.0591 14.2C98.1391 13.96 98.1791 13.76 98.1791 13.6C98.1791 13.3067 98.1124 13.08 97.9791 12.92C97.8457 12.7333 97.6457 12.5467 97.3791 12.36C97.1124 12.1467 96.9257 11.96 96.8191 11.8C96.7124 11.64 96.6991 11.4267 96.7791 11.16C96.9391 10.5467 97.7791 10.0133 99.2991 9.56C100.819 9.08 102.406 8.84 104.059 8.84ZM106.739 0C107.779 0 108.646 0.346667 109.339 1.04C110.032 1.70667 110.379 2.53333 110.379 3.52C110.379 4.21333 110.192 4.89333 109.819 5.56C109.472 6.22667 108.966 6.77333 108.299 7.2C107.659 7.6 106.939 7.8 106.139 7.8C105.126 7.8 104.272 7.46667 103.579 6.8C102.912 6.10667 102.566 5.25333 102.539 4.24C102.539 3.57333 102.712 2.92 103.059 2.28C103.406 1.61333 103.899 1.06667 104.539 0.640001C105.179 0.213334 105.912 0 106.739 0Z" fill="#949494"/>
<path d="M122.707 8.64C124.334 8.64 125.761 8.88 126.987 9.36C128.214 9.81333 129.161 10.4533 129.827 11.28C130.521 12.08 130.867 12.9733 130.867 13.96C130.867 15.0267 130.494 15.9067 129.747 16.6C129.027 17.2933 128.041 17.64 126.787 17.64C125.507 17.64 124.507 17.32 123.787 16.68C123.067 16.0133 122.707 15.12 122.707 14C122.707 13.4667 122.787 12.9067 122.947 12.32C121.827 12.6133 120.827 13.2 119.947 14.08C119.094 14.9333 118.521 16.0667 118.227 17.48C118.067 18.28 117.987 19 117.987 19.64C117.987 21.08 118.387 22.1733 119.188 22.92C119.988 23.6667 121.134 24.04 122.627 24.04C123.481 24.04 124.214 23.96 124.827 23.8C125.441 23.6133 126.067 23.3733 126.707 23.08C127.241 22.8133 127.628 22.68 127.868 22.68C128.028 22.68 128.134 22.72 128.188 22.8C128.241 22.8533 128.267 22.9867 128.267 23.2C128.294 24.1867 127.881 25.2267 127.027 26.32C126.201 27.3867 125.041 28.2933 123.547 29.04C122.081 29.76 120.427 30.12 118.587 30.12C116.667 30.12 114.961 29.7733 113.467 29.08C112.001 28.36 110.854 27.3467 110.027 26.04C109.227 24.7067 108.827 23.16 108.827 21.4C108.827 20.5733 108.934 19.6533 109.147 18.64C109.867 15.3333 111.454 12.84 113.907 11.16C116.387 9.48 119.321 8.64 122.707 8.64Z" fill="#949494"/>
</svg>
