<svg width="141" height="38" viewBox="0 0 141 38" fill="none" xmlns="http://www.w3.org/2000/svg">
<path d="M11.36 37.16C8.08 37.16 5.50666 36.4 3.64 34.88C1.77333 33.36 0.839996 31.16 0.839996 28.28C0.839996 26.4933 1.17333 24.68 1.84 22.84C2.53333 20.9733 3.52 19.1867 4.8 17.48C6.10666 15.7467 7.66666 14.1733 9.48 12.76C11.2933 11.3467 13.32 10.1733 15.56 9.23999C17.8267 8.30666 20.28 7.71999 22.92 7.47999C23.1333 7.45333 23.36 7.43999 23.6 7.43999C23.84 7.41333 24.0933 7.39999 24.36 7.39999C24.9733 7.39999 25.5467 7.43999 26.08 7.51999C26.64 7.57333 27.0667 7.66666 27.36 7.79999C28.1333 8.14666 28.6933 8.50666 29.04 8.87999C29.4133 9.25333 29.6 9.55999 29.6 9.79999C29.6 10.04 29.4667 10.16 29.2 10.16C29.12 10.16 28.7733 10.0267 28.16 9.75999C27.5467 9.46666 26.7467 9.18666 25.76 8.91999C24.7733 8.65333 23.6667 8.51999 22.44 8.51999H22.04C20.1467 8.78666 18.2267 9.38666 16.28 10.32C14.36 11.2533 12.5333 12.4133 10.8 13.8C9.09333 15.16 7.56 16.6667 6.2 18.32C4.84 19.9733 3.77333 21.68 3 23.44C2.22666 25.1733 1.84 26.8667 1.84 28.52C1.84 30.5467 2.54666 31.9733 3.96 32.8C5.4 33.6267 7.33333 34.04 9.76 34.04C11.2533 34.04 12.8533 33.8933 14.56 33.6C16.2933 33.3333 18.04 32.9733 19.8 32.52C21.5867 32.0667 23.44 31.4 25.36 30.52C27.28 29.64 29.1333 28.6267 30.92 27.48C32.7067 26.3333 34.32 25.12 35.76 23.84C37.2 22.5333 38.3333 21.2267 39.16 19.92C40.0133 18.6133 40.44 17.36 40.44 16.16C40.44 14.9333 40.0667 13.8267 39.32 12.84C38.5733 11.8267 37.5733 10.9333 36.32 10.16C35.0667 9.35999 33.68 8.67999 32.16 8.11999C30.6667 7.55999 29.1333 7.11999 27.56 6.79999C26.0133 6.45333 24.56 6.22666 23.2 6.11999C23.04 6.11999 22.68 6.10666 22.12 6.07999C21.5867 6.05333 21 6.01333 20.36 5.95999C19.7467 5.87999 19.2 5.78666 18.72 5.67999C18.2667 5.57333 18.04 5.43999 18.04 5.27999C18.04 5.03999 18.28 4.82666 18.76 4.63999C19.2667 4.45333 19.8667 4.29333 20.56 4.15999C21.28 3.99999 21.9867 3.87999 22.68 3.79999C23.3733 3.71999 23.92 3.67999 24.32 3.67999C24.9333 3.67999 25.7733 3.81333 26.84 4.07999C27.9333 4.31999 29.1333 4.69333 30.44 5.19999C31.7733 5.70666 33.1067 6.31999 34.44 7.03999C35.7733 7.75999 37 8.58666 38.12 9.51999C39.2667 10.4533 40.1733 11.4933 40.84 12.64C41.5333 13.76 41.88 14.9867 41.88 16.32C41.88 18.2933 41.4 20.16 40.44 21.92C39.5067 23.68 38.2267 25.32 36.6 26.84C34.9733 28.3333 33.12 29.6933 31.04 30.92C28.9867 32.12 26.8267 33.1733 24.56 34.08C22.2933 34.9867 20.0667 35.72 17.88 36.28C15.56 36.8667 13.3867 37.16 11.36 37.16Z" fill="#949494"/>
<path d="M48.5662 33.48C48.1929 33.48 47.8462 33.4267 47.5262 33.32C46.5129 33.0267 45.6996 32.4533 45.0862 31.6C44.4996 30.7467 44.0729 29.7067 43.8062 28.48C43.5662 27.2533 43.4462 25.96 43.4462 24.6C43.4462 23.8533 43.4729 23.1067 43.5262 22.36C43.5796 21.6133 43.6596 20.88 43.7662 20.16C43.9796 18.64 44.2862 16.96 44.6862 15.12C45.1129 13.28 45.5929 11.4133 46.1262 9.51999C46.6596 7.62666 47.2062 5.83999 47.7662 4.15999C47.9796 3.65333 48.1662 3.23999 48.3262 2.91999C48.4862 2.59999 48.7396 2.49333 49.0862 2.59999C49.3529 2.67999 49.6196 2.81333 49.8862 2.99999C50.1796 3.15999 50.4062 3.34666 50.5662 3.55999C51.2862 4.38666 51.6462 5.54666 51.6462 7.03999C51.6462 8.39999 51.3796 9.93333 50.8462 11.64C50.3129 13.32 49.6062 15 48.7262 16.68C47.8729 18.36 46.9129 19.9067 45.8462 21.32C45.6062 22.8667 45.4862 24.3333 45.4862 25.72C45.4862 26.8133 45.5662 27.8267 45.7262 28.76C45.9129 29.6933 46.1929 30.5067 46.5662 31.2C46.8862 31.7867 47.2329 32.1867 47.6062 32.4C48.0062 32.6133 48.3796 32.72 48.7262 32.72C49.0996 32.72 49.4329 32.6533 49.7262 32.52C50.0462 32.3867 50.2996 32.28 50.4862 32.2C50.6996 32.0667 50.8862 32 51.0462 32C51.2596 32 51.2862 32.1067 51.1262 32.32C51.0196 32.4533 50.7396 32.68 50.2862 33C49.8329 33.32 49.2596 33.48 48.5662 33.48ZM46.1262 19.6C46.9796 18.2667 47.7529 16.8667 48.4462 15.4C49.1662 13.9067 49.7396 12.4533 50.1662 11.04C50.6196 9.59999 50.8462 8.31999 50.8462 7.19999C50.8462 6.77333 50.8062 6.37333 50.7262 5.99999C50.6729 5.62666 50.5662 5.29333 50.4062 4.99999C49.4996 7.26666 48.6596 9.67999 47.8862 12.24C47.1396 14.7733 46.5529 17.2267 46.1262 19.6Z" fill="#949494"/>
<path d="M66.775 35.88C65.8417 35.88 65.015 35.3067 64.295 34.16C63.4417 32.8267 62.7617 31.2533 62.255 29.44C61.7483 27.6267 61.3617 25.6667 61.095 23.56C60.6417 24.28 60.1083 25.04 59.495 25.84C58.8817 26.64 58.2017 27.4 57.455 28.12C56.7083 28.8133 55.935 29.3867 55.135 29.84C54.335 30.2667 53.5217 30.48 52.695 30.48C51.9217 30.48 51.3083 30.3467 50.855 30.08C50.4283 29.8133 50.1083 29.5067 49.895 29.16C49.7083 28.7867 49.5883 28.44 49.535 28.12C49.5083 27.8 49.495 27.5733 49.495 27.44C49.495 26.6933 49.7617 25.88 50.295 25C50.855 24.12 51.6283 23.2933 52.615 22.52C53.6283 21.72 54.815 21.0667 56.175 20.56C57.5617 20.0533 59.0683 19.8 60.695 19.8H60.735C60.6817 18.8133 60.6417 17.8133 60.615 16.8C60.5883 15.7867 60.575 14.76 60.575 13.72C60.575 12.3067 60.615 10.9067 60.695 9.51999C60.775 8.13333 60.9083 6.87999 61.095 5.75999C61.3083 4.61333 61.5883 3.71999 61.935 3.07999C62.095 2.81333 62.335 2.67999 62.655 2.67999C63.3483 2.67999 63.975 2.94666 64.535 3.47999C65.095 3.98666 65.5483 4.59999 65.895 5.31999C66.2417 6.03999 66.415 6.73333 66.415 7.39999C66.415 9.34666 66.0683 11.36 65.375 13.44C64.6817 15.52 63.8683 17.7067 62.935 20V20.12L63.495 20.32C64.0283 20.5867 64.4683 20.92 64.815 21.32C65.1883 21.6933 65.375 22.0267 65.375 22.32C65.375 22.4267 65.335 22.48 65.255 22.48C65.175 22.48 65.095 22.4133 65.015 22.28C64.3483 21.6933 63.6817 21.32 63.015 21.16C63.2283 23.4 63.575 25.4667 64.055 27.36C64.535 29.2267 65.1617 30.8533 65.935 32.24C66.3883 33.0667 66.7617 33.6267 67.055 33.92C67.3483 34.24 67.6017 34.4 67.815 34.4C68.0283 34.4 68.215 34.2667 68.375 34C68.5617 33.76 68.7083 33.64 68.815 33.64C68.895 33.64 68.935 33.72 68.935 33.88V34.04C68.8817 34.1733 68.775 34.3867 68.615 34.68C68.455 34.9733 68.2283 35.24 67.935 35.48C67.6417 35.7467 67.255 35.88 66.775 35.88ZM62.815 18.56C63.375 17.12 63.8283 15.8267 64.175 14.68C64.5217 13.5333 64.8283 12.2933 65.095 10.96C65.175 10.5333 65.2417 10.0933 65.295 9.63999C65.3483 9.15999 65.375 8.70666 65.375 8.27999C65.375 7.50666 65.295 6.82666 65.135 6.23999C65.0017 5.65333 64.775 5.30666 64.455 5.19999C63.975 5.59999 63.6017 6.26666 63.335 7.19999C63.095 8.10666 62.9217 9.15999 62.815 10.36C62.735 11.5333 62.695 12.72 62.695 13.92C62.695 15.52 62.735 17.0667 62.815 18.56ZM52.255 29.52C52.9217 29.52 53.655 29.3067 54.455 28.88C55.2817 28.4267 56.095 27.8533 56.895 27.16C57.7217 26.4667 58.4817 25.72 59.175 24.92C59.895 24.0933 60.495 23.3067 60.975 22.56L60.815 20.88C60.1217 20.9067 59.335 21.1067 58.455 21.48C57.6017 21.8533 56.7217 22.32 55.815 22.88C54.935 23.44 54.1217 24.0533 53.375 24.72C52.6283 25.36 52.015 26 51.535 26.64C51.0817 27.2533 50.855 27.8133 50.855 28.32C50.855 28.8 51.1083 29.1733 51.615 29.44C51.7217 29.4667 51.8283 29.4933 51.935 29.52C52.0417 29.52 52.1483 29.52 52.255 29.52Z" fill="#949494"/>
<path d="M82.7412 34.92C82.5812 34.92 82.3012 34.8533 81.9012 34.72C81.5012 34.6133 81.1279 34.4533 80.7812 34.24C80.4346 34.0267 80.2346 33.7867 80.1812 33.52C80.0212 32.48 79.9412 31.16 79.9412 29.56C79.9412 28.5467 79.9679 27.44 80.0212 26.24C80.0746 25.04 80.1546 23.8267 80.2612 22.6L79.2212 22.52C78.9546 22.4933 78.6746 22.32 78.3812 22C78.0879 21.68 77.8479 21.3467 77.6612 21C77.4746 20.6267 77.3812 20.36 77.3812 20.2C77.3812 19.96 77.5412 19.76 77.8612 19.6C78.2079 19.4133 78.6346 19.2667 79.1412 19.16C79.6479 19.0267 80.1279 18.9333 80.5812 18.88C80.7946 16.7467 81.0346 14.72 81.3012 12.8C81.5946 10.8533 81.8479 9.22666 82.0612 7.91999C81.7679 8.29333 81.4879 8.61333 81.2212 8.87999C80.9812 9.14666 80.8212 9.27999 80.7412 9.27999V9.15999C80.8479 8.91999 81.0212 8.50666 81.2612 7.91999C81.5012 7.33333 81.7679 6.73333 82.0612 6.11999C82.3812 5.47999 82.6879 4.93333 82.9812 4.47999C83.2746 4.02666 83.5012 3.79999 83.6612 3.79999C84.0079 3.79999 84.4079 3.97333 84.8612 4.31999C85.3146 4.63999 85.5412 4.97333 85.5412 5.31999V5.43999C84.9012 6.61333 84.3546 8.02666 83.9012 9.67999C83.4746 11.3067 83.1279 13.0533 82.8612 14.92C82.5946 16.7867 82.3946 18.6667 82.2612 20.56L82.9012 20.72C84.6079 20.2667 86.2612 19.6133 87.8612 18.76C89.4879 17.9067 91.0346 16.9467 92.5012 15.88C93.9679 14.8133 95.0079 13.8133 95.6212 12.88C96.2612 11.92 96.5812 11.0267 96.5812 10.2C96.5812 9.26666 96.2479 8.39999 95.5812 7.59999C94.9146 6.79999 94.0079 6.09333 92.8612 5.47999C91.7412 4.83999 90.4879 4.29333 89.1012 3.83999C87.7146 3.38666 86.2879 3.02666 84.8212 2.75999C83.3812 2.49333 82.0079 2.31999 80.7012 2.23999C80.5412 2.23999 80.2212 2.23999 79.7412 2.23999C79.2612 2.21333 78.7412 2.19999 78.1812 2.19999C77.6212 2.17333 77.1412 2.13333 76.7412 2.07999C76.3412 1.99999 76.1412 1.89333 76.1412 1.75999C76.1412 1.65333 76.2879 1.54666 76.5812 1.43999C77.5946 1.03999 78.5279 0.759993 79.3812 0.599993C80.2612 0.413326 81.0879 0.319992 81.8612 0.319992C82.4212 0.319992 83.2346 0.426659 84.3012 0.639993C85.3679 0.82666 86.5413 1.11999 87.8213 1.51999C89.1279 1.91999 90.4346 2.39999 91.7412 2.95999C93.0746 3.51999 94.3012 4.15999 95.4212 4.87999C96.5413 5.59999 97.4346 6.38666 98.1012 7.23999C98.7946 8.09333 99.1413 8.99999 99.1413 9.95999C99.1413 10.76 98.7946 11.56 98.1012 12.36C97.4346 13.1333 96.5146 14.08 95.3412 15.2C94.4879 16.0267 93.4612 16.8133 92.2612 17.56C91.0879 18.3067 89.8479 18.9867 88.5412 19.6C87.2612 20.1867 86.0079 20.7067 84.7812 21.16C87.0746 21.8 89.2212 22.5867 91.2212 23.52C93.2212 24.4267 95.1812 25.44 97.1012 26.56C97.3679 26.72 97.5013 26.8533 97.5013 26.96C97.5013 27.0667 97.4346 27.12 97.3012 27.12C97.2212 27.12 97.1546 27.0933 97.1012 27.04C96.3812 26.7733 95.3279 26.3867 93.9412 25.88C92.5812 25.3733 91.1279 24.88 89.5812 24.4C89.1812 24.2667 88.5813 24.1067 87.7812 23.92C86.9812 23.7333 86.0879 23.5467 85.1012 23.36C84.1146 23.1467 83.1279 22.9733 82.1412 22.84C82.1146 23.32 82.1012 23.8133 82.1012 24.32C82.1012 24.8 82.1012 25.2667 82.1012 25.72C82.1012 26.6 82.1146 27.4667 82.1412 28.32C82.1946 29.1467 82.2479 29.92 82.3012 30.64C82.4346 30.24 82.5546 29.8133 82.6612 29.36C82.7679 28.9067 82.8346 28.68 82.8612 28.68C82.9146 28.68 82.9412 28.8933 82.9412 29.32C82.9412 29.6667 82.9279 30.12 82.9012 30.68C82.9012 31.24 82.8879 31.8133 82.8612 32.4C82.8612 32.9867 82.8612 33.5067 82.8612 33.96C82.8612 34.1733 82.8612 34.36 82.8612 34.52C82.8612 34.7067 82.8746 34.8267 82.9012 34.88C82.9012 34.9067 82.8479 34.92 82.7412 34.92Z" fill="#949494"/>
<path d="M101.85 30.84C100.89 30.84 100.183 30.5333 99.73 29.92C99.2767 29.28 99.05 28.5067 99.05 27.6C99.05 26.64 99.2767 25.4667 99.73 24.08C100.183 22.6933 100.663 21.3867 101.17 20.16C100.717 20.4533 100.25 20.72 99.77 20.96C99.29 21.2 98.8633 21.32 98.49 21.32C98.2233 21.32 98.0233 21.2533 97.89 21.12C97.7833 20.9867 97.73 20.84 97.73 20.68C97.73 20.5467 97.77 20.3467 97.85 20.08C97.93 19.8133 98.0633 19.56 98.25 19.32C98.4633 19.08 98.7167 18.96 99.01 18.96C99.1167 18.96 99.17 19 99.17 19.08C99.17 19.1067 99.1567 19.1333 99.13 19.16C99.13 19.16 99.13 19.1733 99.13 19.2C99.1033 19.2533 99.09 19.3067 99.09 19.36C99.09 19.4667 99.1567 19.52 99.29 19.52C99.37 19.52 99.4633 19.5067 99.57 19.48C99.7033 19.4533 99.8367 19.4 99.97 19.32C100.237 19.1867 100.543 19.0267 100.89 18.84C101.237 18.6267 101.623 18.4133 102.05 18.2L102.65 17C102.81 16.7067 102.997 16.5067 103.21 16.4C103.423 16.2667 103.623 16.2 103.81 16.2C104.103 16.2 104.357 16.2533 104.57 16.36C104.81 16.44 105.023 16.5467 105.21 16.68C105.503 16.5467 105.81 16.4267 106.13 16.32C106.477 16.1867 106.81 16.0933 107.13 16.04C108.143 15.6667 109.197 15.3733 110.29 15.16C111.383 14.92 112.463 14.8 113.53 14.8C114.117 14.8 114.717 14.88 115.33 15.04C115.943 15.2 116.25 15.4533 116.25 15.8C116.25 15.9067 116.143 15.96 115.93 15.96C115.503 15.96 115.01 15.9067 114.45 15.8C113.917 15.6933 113.383 15.64 112.85 15.64C112.183 15.64 111.543 15.68 110.93 15.76C110.317 15.8133 109.743 15.9067 109.21 16.04C109.637 16.2267 109.983 16.5467 110.25 17C110.543 17.4533 110.69 18.0267 110.69 18.72C110.69 19.4667 110.503 20.36 110.13 21.4C109.783 22.44 109.303 23.5067 108.69 24.6C108.103 25.6933 107.423 26.72 106.65 27.68C105.877 28.6133 105.077 29.3733 104.25 29.96C103.423 30.5467 102.623 30.84 101.85 30.84ZM102.29 30C102.85 30 103.423 29.7467 104.01 29.24C104.623 28.7333 105.223 28.0933 105.81 27.32C106.397 26.5467 106.917 25.7467 107.37 24.92C107.583 24.5467 107.823 24.04 108.09 23.4C108.383 22.76 108.623 22.08 108.81 21.36C109.023 20.64 109.13 19.9867 109.13 19.4C109.13 18.8667 109.01 18.4267 108.77 18.08C108.557 17.7067 108.143 17.52 107.53 17.52C107.237 17.52 106.863 17.6 106.41 17.76C105.957 17.92 105.477 18.1067 104.97 18.32C104.863 18.4267 104.757 18.5467 104.65 18.68C104.57 18.7867 104.503 18.9067 104.45 19.04C103.943 19.9733 103.437 21.0133 102.93 22.16C102.423 23.28 101.997 24.3733 101.65 25.44C101.33 26.5067 101.17 27.44 101.17 28.24C101.17 29.4133 101.543 30 102.29 30Z" fill="#949494"/>
<path d="M115.798 32.8C114.251 32.8 113.038 32.3867 112.158 31.56C111.305 30.7333 110.878 29.72 110.878 28.52C110.878 27.24 111.145 25.96 111.678 24.68C112.211 23.3733 112.931 22.1333 113.838 20.96C114.745 19.7867 115.771 18.7467 116.918 17.84C118.065 16.9333 119.278 16.2133 120.558 15.68C121.838 15.1467 123.091 14.88 124.318 14.88C125.065 14.88 125.678 15.0133 126.158 15.28C126.638 15.5467 126.878 15.8133 126.878 16.08C126.878 16.16 126.851 16.2267 126.798 16.28C126.691 16.3867 126.531 16.6667 126.318 17.12C126.131 17.5467 125.931 18.04 125.718 18.6C125.531 19.16 125.358 19.7333 125.198 20.32C125.065 20.88 124.998 21.36 124.998 21.76C124.945 22.0533 124.811 22.2 124.598 22.2C124.411 22.2 124.185 21.9867 123.918 21.56C123.678 21.1067 123.558 20.5067 123.558 19.76C123.558 19.28 123.651 18.7733 123.838 18.24C124.051 17.7067 124.251 17.2267 124.438 16.8C124.651 16.3467 124.758 16.0267 124.758 15.84C124.758 15.7333 124.705 15.68 124.598 15.68C124.518 15.68 124.438 15.68 124.358 15.68C123.798 15.68 123.011 15.9333 121.998 16.44C120.985 16.92 119.798 17.8133 118.438 19.12C117.531 20 116.691 21.0267 115.918 22.2C115.145 23.3733 114.518 24.56 114.038 25.76C113.585 26.96 113.358 28.0667 113.358 29.08C113.358 30.2533 113.651 31.0133 114.238 31.36C114.851 31.7067 115.545 31.88 116.318 31.88C117.651 31.88 118.985 31.6267 120.318 31.12C121.678 30.6133 122.945 29.92 124.118 29.04C125.318 28.16 126.318 27.16 127.118 26.04C127.145 25.9867 127.171 25.96 127.198 25.96C127.225 25.9333 127.238 25.92 127.238 25.92C127.291 25.92 127.318 25.9733 127.318 26.08C127.318 26.2133 127.278 26.4 127.198 26.64C127.145 26.88 127.065 27.0667 126.958 27.2C126.425 28.0267 125.665 28.88 124.678 29.76C123.691 30.6133 122.465 31.3333 120.998 31.92C119.531 32.5067 117.798 32.8 115.798 32.8Z" fill="#949494"/>
<path d="M131.757 33.68C131.33 33.68 130.97 33.4133 130.677 32.88C130.41 32.3733 130.197 31.72 130.037 30.92C129.904 30.0933 129.81 29.2133 129.757 28.28C129.704 27.32 129.677 26.4 129.677 25.52V25.48C129.384 25.3467 129.104 25.2267 128.837 25.12C128.57 24.9867 128.317 24.88 128.077 24.8C127.917 24.72 127.837 24.6133 127.837 24.48C127.837 24.24 127.984 23.9733 128.277 23.68C128.597 23.3867 128.93 23.24 129.277 23.24C129.357 23.24 129.477 23.2667 129.637 23.32C129.637 23.3467 129.664 23.36 129.717 23.36C129.77 21.2 129.917 19.04 130.157 16.88C130.397 14.6933 130.664 12.6667 130.957 10.8C131.277 8.90666 131.57 7.31999 131.837 6.03999C132.13 4.73333 132.357 3.89333 132.517 3.51999C132.704 3.06666 132.85 2.67999 132.957 2.35999C133.09 2.03999 133.29 1.87999 133.557 1.87999C133.984 1.87999 134.397 2.05333 134.797 2.39999C135.224 2.74666 135.437 3.06666 135.437 3.35999V3.43999C135.597 3.22666 135.824 3.11999 136.117 3.11999C136.544 3.11999 136.877 3.33333 137.117 3.75999C137.384 4.18666 137.57 4.67999 137.677 5.23999C137.81 5.77333 137.877 6.21333 137.877 6.55999C137.877 7.59999 137.664 8.74666 137.237 9.99999C136.81 11.2533 136.264 12.5333 135.597 13.84C134.93 15.12 134.224 16.36 133.477 17.56C132.73 18.7333 132.037 19.7733 131.397 20.68C131.344 21.24 131.29 21.8 131.237 22.36C131.184 22.92 131.13 23.48 131.077 24.04L131.517 24.28C132.504 23.6133 133.517 22.84 134.557 21.96C135.597 21.08 136.584 20.1867 137.517 19.28C138.477 18.3467 139.29 17.4667 139.957 16.64C140.01 16.5867 140.064 16.56 140.117 16.56C140.197 16.56 140.237 16.6133 140.237 16.72C140.237 16.7733 140.224 16.8267 140.197 16.88C139.717 17.7333 139.077 18.6667 138.277 19.68C137.477 20.6667 136.61 21.6533 135.677 22.64C134.77 23.6 133.864 24.4533 132.957 25.2C134.29 26.1067 135.57 27.0933 136.797 28.16C138.05 29.2267 139.21 30.2933 140.277 31.36C140.437 31.52 140.517 31.68 140.517 31.84C140.517 32.0267 140.464 32.12 140.357 32.12C140.304 32.12 140.277 32.1067 140.277 32.08C139.77 31.7067 139.05 31.2 138.117 30.56C137.184 29.8933 136.184 29.2267 135.117 28.56C134.797 28.3467 134.29 28.0267 133.597 27.6C132.904 27.1733 132.157 26.7467 131.357 26.32H131.237C131.21 26.32 131.17 26.3333 131.117 26.36C131.09 26.36 131.05 26.3467 130.997 26.32V27.24C130.997 28.5733 131.077 29.7733 131.237 30.84C131.424 31.88 131.624 32.8 131.837 33.6C131.837 33.6533 131.81 33.68 131.757 33.68ZM131.597 19.28C132.397 17.9733 133.197 16.5867 133.997 15.12C134.797 13.6267 135.464 12.16 135.997 10.72C136.53 9.27999 136.797 7.97333 136.797 6.79999C136.797 6.15999 136.69 5.57333 136.477 5.03999C136.264 4.50666 135.917 4.06666 135.437 3.71999C135.41 3.71999 135.384 3.70666 135.357 3.67999C134.637 5.81333 133.93 8.22666 133.237 10.92C132.544 13.6133 131.997 16.4 131.597 19.28Z" fill="#949494"/>
</svg>
