<svg width="97" height="35" viewBox="0 0 97 35" fill="none" xmlns="http://www.w3.org/2000/svg">
<path d="M11.36 34.16C8.08 34.16 5.50666 33.4 3.64 31.88C1.77333 30.36 0.839996 28.16 0.839996 25.28C0.839996 23.4933 1.17333 21.68 1.84 19.84C2.53333 17.9733 3.52 16.1867 4.8 14.48C6.10666 12.7467 7.66666 11.1733 9.48 9.75999C11.2933 8.34666 13.32 7.17333 15.56 6.23999C17.8267 5.30666 20.28 4.71999 22.92 4.47999C23.1333 4.45333 23.36 4.43999 23.6 4.43999C23.84 4.41333 24.0933 4.39999 24.36 4.39999C24.9733 4.39999 25.5467 4.43999 26.08 4.51999C26.64 4.57333 27.0667 4.66666 27.36 4.79999C28.1333 5.14666 28.6933 5.50666 29.04 5.87999C29.4133 6.25333 29.6 6.55999 29.6 6.79999C29.6 7.03999 29.4667 7.15999 29.2 7.15999C29.12 7.15999 28.7733 7.02666 28.16 6.75999C27.5467 6.46666 26.7467 6.18666 25.76 5.91999C24.7733 5.65333 23.6667 5.51999 22.44 5.51999H22.04C20.1467 5.78666 18.2267 6.38666 16.28 7.31999C14.36 8.25332 12.5333 9.41333 10.8 10.8C9.09333 12.16 7.56 13.6667 6.2 15.32C4.84 16.9733 3.77333 18.68 3 20.44C2.22666 22.1733 1.84 23.8667 1.84 25.52C1.84 27.5467 2.54666 28.9733 3.96 29.8C5.4 30.6267 7.33333 31.04 9.76 31.04C11.2533 31.04 12.8533 30.8933 14.56 30.6C16.2933 30.3333 18.04 29.9733 19.8 29.52C21.5867 29.0667 23.44 28.4 25.36 27.52C27.28 26.64 29.1333 25.6267 30.92 24.48C32.7067 23.3333 34.32 22.12 35.76 20.84C37.2 19.5333 38.3333 18.2267 39.16 16.92C40.0133 15.6133 40.44 14.36 40.44 13.16C40.44 11.9333 40.0667 10.8267 39.32 9.83999C38.5733 8.82666 37.5733 7.93333 36.32 7.15999C35.0667 6.35999 33.68 5.67999 32.16 5.11999C30.6667 4.55999 29.1333 4.11999 27.56 3.79999C26.0133 3.45333 24.56 3.22666 23.2 3.11999C23.04 3.11999 22.68 3.10666 22.12 3.07999C21.5867 3.05332 21 3.01332 20.36 2.95999C19.7467 2.87999 19.2 2.78666 18.72 2.67999C18.2667 2.57332 18.04 2.43999 18.04 2.27999C18.04 2.03999 18.28 1.82666 18.76 1.63999C19.2667 1.45332 19.8667 1.29332 20.56 1.15999C21.28 0.999992 21.9867 0.879992 22.68 0.799991C23.3733 0.719992 23.92 0.679993 24.32 0.679993C24.9333 0.679993 25.7733 0.813326 26.84 1.07999C27.9333 1.31999 29.1333 1.69333 30.44 2.19999C31.7733 2.70666 33.1067 3.31999 34.44 4.03999C35.7733 4.75999 37 5.58666 38.12 6.51999C39.2667 7.45333 40.1733 8.49333 40.84 9.63999C41.5333 10.76 41.88 11.9867 41.88 13.32C41.88 15.2933 41.4 17.16 40.44 18.92C39.5067 20.68 38.2267 22.32 36.6 23.84C34.9733 25.3333 33.12 26.6933 31.04 27.92C28.9867 29.12 26.8267 30.1733 24.56 31.08C22.2933 31.9867 20.0667 32.72 17.88 33.28C15.56 33.8667 13.3867 34.16 11.36 34.16Z" fill="#949494"/>
<path d="M51.4648 29H43.2617C44.6159 23.2969 45.5534 17.2747 46.0742 10.9336C46.0742 10.7773 46.2825 10.543 46.6992 10.2305C47.1159 9.90494 47.5521 9.70312 48.0078 9.62499C48.4766 9.54687 49.6094 9.4427 51.4062 9.31249C53.2161 9.16926 54.6159 9.09765 55.6055 9.09765C54.5508 14.5534 53.737 20.7578 53.1641 27.7109C53.1641 27.8802 52.9557 28.1406 52.5391 28.4922C52.1224 28.8307 51.7643 29 51.4648 29ZM58.5156 29.1953C57.7604 28.4661 57.3828 27.5286 57.3828 26.3828C57.3828 25.237 57.6693 23.0495 58.2422 19.8203C58.8281 16.5911 59.1211 14.6055 59.1211 13.8633C59.1211 13.1081 58.9388 12.5677 58.5742 12.2422C58.2227 11.9036 57.7604 11.7344 57.1875 11.7344C57.3047 10.9531 57.526 10.3672 57.8516 9.97655C58.3333 9.74218 59.0885 9.52734 60.1172 9.33202C61.1589 9.13671 62.1224 9.03905 63.0078 9.03905C64.7396 9.03905 66.0352 9.43619 66.8945 10.2305C67.7669 11.0247 68.2031 12.2812 68.2031 14C68.2031 14.9635 67.9948 16.6562 67.5781 19.0781C67.1615 21.5 66.9531 22.9844 66.9531 23.5312C66.9531 24.0781 66.9727 24.4883 67.0117 24.7617C67.0638 25.0351 67.1029 25.25 67.1289 25.4062C67.168 25.5625 67.2591 25.7448 67.4023 25.9531C67.5456 26.1484 67.6367 26.2721 67.6758 26.3242C67.7148 26.3633 67.8451 26.4935 68.0664 26.7148C68.2878 26.9232 68.418 27.0469 68.457 27.0859C68.457 27.2682 68.2682 27.5742 67.8906 28.0039C67.513 28.4206 67.168 28.694 66.8555 28.8242C65.1888 29.0716 62.4089 29.1953 58.5156 29.1953Z" fill="#949494"/>
<path d="M91.1914 9.58593C92.9622 10.1979 94.3034 11.0573 95.2148 12.1641C96.1393 13.2578 96.6016 14.4297 96.6016 15.6797C96.6016 17.3854 95.8659 18.8307 94.3945 20.0156C92.9232 21.2005 90.918 21.793 88.3789 21.793C87.5846 21.793 86.7122 21.6628 85.7617 21.4023C87.1419 20.543 88.0729 19.4232 88.5547 18.043C88.9714 16.845 89.1797 15.4388 89.1797 13.8242C89.1797 13.5117 89.1471 12.5547 89.082 10.9531C89.069 10.7838 89.3294 10.5169 89.8633 10.1523C90.4102 9.78775 90.8529 9.59895 91.1914 9.58593ZM88.0273 9.27343C86.4128 10.3672 85.1302 11.806 84.1797 13.5898C83.2422 15.3737 82.7734 17.2812 82.7734 19.3125C82.7734 21.3437 83.5547 22.9974 85.1172 24.2734C86.6797 25.5495 88.9583 26.1875 91.9531 26.1875C92.7734 26.1875 93.6523 26.1159 94.5898 25.9726C93.9779 26.9362 92.7995 27.7435 91.0547 28.3945C89.3099 29.0325 87.4805 29.3516 85.5664 29.3516C83.6523 29.3516 82.0182 29.1628 80.6641 28.7851C79.3099 28.3945 78.099 27.8216 77.0312 27.0664C75.9766 26.3112 75.1432 25.3281 74.5312 24.1172C73.9193 22.8932 73.6133 21.5521 73.6133 20.0937C73.6133 18.6224 73.8411 17.2943 74.2969 16.1094C74.7526 14.9245 75.3776 13.9088 76.1719 13.0625C76.9661 12.2161 77.8906 11.487 78.9453 10.875C81.0417 9.6901 83.457 9.09765 86.1914 9.09765C86.8685 9.09765 87.4805 9.15624 88.0273 9.27343Z" fill="#949494"/>
</svg>
