<svg width="161" height="38" viewBox="0 0 161 38" fill="none" xmlns="http://www.w3.org/2000/svg">
<g filter="url(#filter0_d_1_9)">
<path d="M5.19142 24.332C8.04298 22.0664 10.0156 20.9727 11.1094 21.0508C12.2031 21.1289 14.0977 22.1576 16.793 24.1367C19.4492 26.0898 21.7409 26.9362 23.668 26.6758C25.5951 26.4154 27.2031 25.3802 28.4922 23.5703C29.6901 21.8646 30.0026 19.4688 29.4297 16.3828C28.8698 13.2839 27.0274 10.6146 23.9024 8.375C21.7018 6.8125 19.4557 5.82292 17.1641 5.40625C14.8724 4.98958 12.7695 5.36719 10.8555 6.53906C9.64454 7.28125 9.12371 8.32292 9.29298 9.66406C9.46225 10.9922 10.4974 12.0078 12.3984 12.7109C15.9531 14.013 17.8151 15.3867 17.9844 16.832C18.1537 18.2643 17.1706 19.8594 15.0352 21.6172C14.7878 21.8255 14.5859 21.8646 14.4297 21.7344C14.2734 21.5911 14.2865 21.4154 14.4688 21.207C15.1198 20.4648 15.1198 19.8529 14.4688 19.3711C13.8177 18.8763 12.3789 18.1992 10.1524 17.3398C6.85808 16.0898 5.25001 14.2604 5.32814 11.8516C5.40626 9.42969 6.94923 7.43099 9.95704 5.85547C11.8451 4.97005 13.4011 4.14974 14.625 3.39453C15.849 2.63932 16.78 1.67578 17.418 0.503906C17.4831 0.386719 17.5938 0.334635 17.75 0.347656C20.875 0.751302 23.7136 1.82552 26.2656 3.57031C28.8307 5.3151 30.6276 7.51562 31.6563 10.1719C32.6849 12.8672 32.9258 15.4648 32.3789 17.9648C31.8451 20.4648 30.7839 22.5677 29.1953 24.2734C26.5391 27.151 23.7526 28.8112 20.8359 29.2539C17.9193 29.6966 15.0156 29 12.125 27.1641C10.8359 26.3568 9.65105 25.6406 8.57032 25.0156C7.50262 24.3776 6.50001 24.3516 5.56251 24.9375C5.3672 25.0547 5.19793 25.0352 5.0547 24.8789C4.92449 24.7096 4.97006 24.5273 5.19142 24.332Z" fill="#949494"/>
<path d="M36.5781 26.9688C36.3307 27.0599 36.194 27.0208 36.168 26.8516C36.1419 26.6693 36.2396 26.474 36.4609 26.2656C37.9583 24.2734 38.707 22.3984 38.707 20.6406C38.7201 18.8828 38.1016 17.3659 36.8516 16.0898C34.7552 13.9414 33.8568 12.2552 34.1563 11.0312C34.4557 9.79427 35.4649 8.31641 37.1836 6.59766C37.3529 6.41536 37.5026 6.38281 37.6328 6.5C37.7761 6.61719 37.7695 6.76693 37.6133 6.94922C36.7018 8.04297 36.6367 8.98698 37.418 9.78125C38.3685 10.7448 39.1107 11.6042 39.6445 12.3594C39.7487 12.5156 39.8919 12.5482 40.0742 12.457C41.2201 11.832 42.3073 11.168 43.3359 10.4648C44.3776 9.7487 45.4063 8.99349 46.4219 8.19922C46.5261 8.10807 46.6367 8.08203 46.7539 8.12109C46.8711 8.16016 46.9362 8.2513 46.9492 8.39453C47.0664 9.11068 47.3268 9.72266 47.7305 10.2305C48.1341 10.7383 48.5508 11.2331 48.9805 11.7148C50.556 13.5898 51.2656 15.6732 51.1094 17.9648C50.9011 20.8164 49.9375 22.9714 48.2188 24.4297C47.3594 25.1719 46.4805 26.0052 45.582 26.9297C44.6836 27.8411 43.9414 28.707 43.3555 29.5273C43.2123 29.6836 43.069 29.7096 42.9258 29.6055C42.1966 29.1367 41.2201 28.4922 39.9961 27.6719C38.7721 26.8516 37.6328 26.6172 36.5781 26.9688ZM40.1133 23.7461C40.8164 24.0065 41.5781 24.3841 42.3984 24.8789C43.2969 25.4128 44.0977 25.888 44.8008 26.3047C44.9701 26.4089 45.1133 26.3698 45.2305 26.1875C45.6081 25.5495 46.0443 24.6901 46.5391 23.6094C47.0339 22.5286 47.3008 21.2982 47.3399 19.918C47.3529 18.4987 47.0794 17.2227 46.5195 16.0898C45.9596 14.957 45.3412 13.8763 44.6641 12.8477C43.9089 11.7539 42.5026 11.7995 40.4453 12.9844C40.263 13.0755 40.224 13.2188 40.3281 13.4141C41.4349 15.3542 41.8386 17.1576 41.5391 18.8242C41.2656 20.4128 40.7318 21.8906 39.9375 23.2578C39.8984 23.3229 39.8919 23.4141 39.918 23.5312C39.944 23.6484 40.0091 23.7201 40.1133 23.7461Z" fill="#949494"/>
<path d="M58.8828 29.5469C58.8568 29.2344 58.6875 29 58.375 28.8438C58.0755 28.6875 57.8216 28.5312 57.6133 28.375C56.1159 27.3594 55.0547 26.1224 54.4297 24.6641C53.8177 23.1927 53.4727 21.6367 53.3945 19.9961C53.2383 16.2852 54.2409 13.4596 56.4024 11.5195C57.1706 10.8294 58.056 10.2695 59.0586 9.83984C60.0612 9.39714 61.0899 9.03906 62.1445 8.76562C62.4701 8.70052 62.7109 8.86328 62.8672 9.25391L65.6797 15.8555C65.8099 16.207 65.7643 16.4284 65.543 16.5195H65.5039L57.4961 19.625C57.3399 19.7031 57.2748 19.8268 57.3008 19.9961C57.9388 22.8867 59.0065 24.7422 60.5039 25.5625C62.0013 26.3698 63.4922 26.487 64.9766 25.9141C65.237 25.7969 65.3998 25.8164 65.4649 25.9727C65.543 26.1289 65.4974 26.2461 65.3281 26.3242C64.2734 26.8581 63.2643 27.4049 62.3008 27.9648C61.3503 28.5247 60.4974 29.1107 59.7422 29.7227C59.625 29.8008 59.4492 29.8268 59.2149 29.8008C58.9935 29.7747 58.8828 29.6901 58.8828 29.5469ZM57.0664 18.5117C57.0794 18.6159 57.125 18.7005 57.2031 18.7656C57.2813 18.8177 57.3789 18.8177 57.4961 18.7656L61.6563 17.2031C61.8516 17.125 61.9102 16.9883 61.832 16.793L59.4492 10.9531C59.332 10.6667 59.0977 10.6276 58.7461 10.8359C57.9909 11.2786 57.4766 12.2878 57.2031 13.8633C56.9297 15.4388 56.8841 16.9883 57.0664 18.5117Z" fill="#949494"/>
<path d="M74.3906 14.3516L74.3711 23.8242C74.3711 24.2409 74.4753 24.5078 74.6836 24.625L76.0899 25.4453C76.3893 25.6276 76.8451 25.3086 77.457 24.4883C77.5872 24.319 77.75 24.2865 77.9453 24.3906C78.1406 24.4818 78.1406 24.6445 77.9453 24.8789C76.5781 26.4023 75.53 27.8997 74.8008 29.3711C74.5794 29.6706 74.3385 29.6706 74.0781 29.3711C73.349 28.5247 72.6654 27.8802 72.0274 27.4375C71.4024 26.9948 70.4779 26.6302 69.2539 26.3438C69.0195 26.2786 68.9024 26.1745 68.9024 26.0312C68.9024 25.888 68.987 25.7839 69.1563 25.7188C70.0287 25.5755 70.4583 24.8268 70.4453 23.4727V15.2109C70.4453 13.8828 70.1979 13.069 69.7031 12.7695C69.1302 12.3919 68.6615 12.5286 68.2969 13.1797C68.1537 13.4531 67.9909 13.5182 67.8086 13.375C67.6263 13.2318 67.6328 13.0039 67.8281 12.6914C68.2057 12.0924 68.5638 11.4805 68.9024 10.8555C69.2539 10.2305 69.612 9.60547 69.9766 8.98047C70.1979 8.58984 70.4909 8.51823 70.8555 8.76562C72.7695 9.6901 73.9154 10.862 74.293 12.2812C74.332 12.4115 74.4102 12.4961 74.5274 12.5352C74.6445 12.5612 74.7487 12.5156 74.8399 12.3984L77.8477 8.94141C77.9258 8.86328 78.0169 8.83073 78.1211 8.84375C78.2253 8.84375 78.3099 8.89583 78.375 9L80.4258 12.9258C80.4779 13.043 80.4649 13.1536 80.3867 13.2578L78.043 16.0703C77.9518 16.1615 77.8477 16.2005 77.7305 16.1875C77.6263 16.1745 77.5547 16.1159 77.5156 16.0117L75.9336 13.082C75.8815 13.0039 75.7969 12.9583 75.6797 12.9453C75.5755 12.9193 75.4779 12.9518 75.3867 13.043L74.4688 14.1562C74.4167 14.2083 74.3906 14.2734 74.3906 14.3516Z" fill="#949494"/>
<path d="M86.3047 1.79297C85.276 2.07943 84.7747 2.6849 84.8008 3.60938C84.8138 4.19531 85.1458 4.74219 85.7969 5.25C86.4609 5.74479 87.2357 6.07682 88.1211 6.24609C88.1341 6.24609 88.1471 6.2526 88.1602 6.26562C90.8945 7.28125 93.2708 8.60938 95.2891 10.25C97.3203 11.8906 98.4727 14.2734 98.7461 17.3984V17.457C98.4727 19.8008 97.9063 21.7539 97.0469 23.3164C96.1875 24.8789 95.1719 26.0703 94 26.8906L93.9805 26.9297C93.4336 27.3984 92.7891 27.8151 92.0469 28.1797C91.3047 28.5443 90.6471 28.9219 90.0742 29.3125C89.7096 29.5599 89.4753 29.5599 89.3711 29.3125C88.6419 27.5807 86.6302 26.2591 83.3359 25.3477C83.1406 25.3086 83.0365 25.2109 83.0234 25.0547C83.0104 24.8984 83.082 24.7878 83.2383 24.7227C84.0586 24.4102 84.4688 23.5443 84.4688 22.125L84.4297 14C84.4297 13.5443 84.638 13.3294 85.0547 13.3555C86.3568 13.5247 87.6589 13.082 88.9609 12.0273C89.0391 11.9753 89.0781 11.8776 89.0781 11.7344C89.0521 11.6302 88.987 11.5521 88.8828 11.5C88.388 11.2917 87.8932 11.0898 87.3984 10.8945C86.9037 10.6862 86.4219 10.4648 85.9531 10.2305C84.7422 9.68359 83.8438 8.97396 83.2578 8.10156C82.6849 7.22917 82.3464 6.36328 82.2422 5.50391V5.40625C82.5677 2.91927 83.8177 1.53255 85.9922 1.24609C86.3307 1.19401 86.513 1.25911 86.5391 1.44141C86.5781 1.6237 86.5 1.74089 86.3047 1.79297ZM90.1133 12.0469C89.9961 11.9948 89.8854 12.0078 89.7813 12.0859L88.8633 12.8086C88.6029 13.0039 88.4727 13.2383 88.4727 13.5117L88.5508 23.1602C88.5508 23.3555 88.6289 23.4922 88.7852 23.5703L93.0039 26.0508C93.3425 26.2591 93.655 26.181 93.9414 25.8164C95.1133 24.1628 95.5625 21.9688 95.2891 19.2344C95.0287 16.487 93.9024 14.4102 91.9102 13.0039C91.5456 12.7565 90.9466 12.4375 90.1133 12.0469Z" fill="#949494"/>
<path d="M107.086 14.3516L107.066 23.8242C107.066 24.2409 107.171 24.5078 107.379 24.625L108.785 25.4453C109.085 25.6276 109.54 25.3086 110.152 24.4883C110.283 24.319 110.445 24.2865 110.641 24.3906C110.836 24.4818 110.836 24.6445 110.641 24.8789C109.273 26.4023 108.225 27.8997 107.496 29.3711C107.275 29.6706 107.034 29.6706 106.773 29.3711C106.044 28.5247 105.361 27.8802 104.723 27.4375C104.098 26.9948 103.173 26.6302 101.949 26.3438C101.715 26.2786 101.598 26.1745 101.598 26.0312C101.598 25.888 101.682 25.7839 101.852 25.7188C102.724 25.5755 103.154 24.8268 103.141 23.4727V15.2109C103.141 13.8828 102.893 13.069 102.398 12.7695C101.826 12.3919 101.357 12.5286 100.992 13.1797C100.849 13.4531 100.686 13.5182 100.504 13.375C100.322 13.2318 100.328 13.0039 100.523 12.6914C100.901 12.0924 101.259 11.4805 101.598 10.8555C101.949 10.2305 102.307 9.60547 102.672 8.98047C102.893 8.58984 103.186 8.51823 103.551 8.76562C105.465 9.6901 106.611 10.862 106.988 12.2812C107.027 12.4115 107.105 12.4961 107.223 12.5352C107.34 12.5612 107.444 12.5156 107.535 12.3984L110.543 8.94141C110.621 8.86328 110.712 8.83073 110.816 8.84375C110.921 8.84375 111.005 8.89583 111.07 9L113.121 12.9258C113.173 13.043 113.16 13.1536 113.082 13.2578L110.738 16.0703C110.647 16.1615 110.543 16.2005 110.426 16.1875C110.322 16.1745 110.25 16.1159 110.211 16.0117L108.629 13.082C108.577 13.0039 108.492 12.9583 108.375 12.9453C108.271 12.9193 108.173 12.9518 108.082 13.043L107.164 14.1562C107.112 14.2083 107.086 14.2734 107.086 14.3516Z" fill="#949494"/>
<path d="M117.184 24.4102L117.047 13.707C117.047 13.4596 117.008 13.2578 116.93 13.1016C116.617 12.5938 116.35 12.4701 116.129 12.7305L115.348 13.5312C115.139 13.7656 114.938 13.7917 114.742 13.6094C114.56 13.4271 114.592 13.1732 114.84 12.8477C115.413 12.1315 115.927 11.4154 116.383 10.6992C116.839 9.98307 117.307 9.27344 117.789 8.57031C117.997 8.32292 118.238 8.32943 118.512 8.58984C119.059 9.25391 119.592 9.83984 120.113 10.3477C120.634 10.8424 121.376 11.3698 122.34 11.9297C122.613 12.0339 122.73 12.1576 122.691 12.3008C122.665 12.444 122.581 12.5221 122.438 12.5352C122.099 12.6654 121.799 12.8932 121.539 13.2188C121.279 13.5312 121.148 14.0586 121.148 14.8008V23.0625C121.148 24.3906 121.396 25.2044 121.891 25.5039C122.464 25.8424 122.932 25.6992 123.297 25.0742C123.427 24.8268 123.583 24.7747 123.766 24.918C123.961 25.0482 123.961 25.2695 123.766 25.582C123.375 26.194 123.01 26.8125 122.672 27.4375C122.333 28.0495 121.988 28.6615 121.637 29.2734C121.389 29.638 121.083 29.7161 120.719 29.5078C119.547 28.9479 118.661 28.2643 118.063 27.457C117.477 26.6497 117.184 25.6341 117.184 24.4102ZM120.016 1.22656C121.461 1.22656 122.118 1.92318 121.988 3.31641C121.91 4.01953 121.467 4.72917 120.66 5.44531C119.866 6.14844 119.234 6.49349 118.766 6.48047C118.297 6.48047 117.939 6.10938 117.691 5.36719C117.444 4.625 117.346 3.94141 117.398 3.31641C117.438 2.71745 117.724 2.22266 118.258 1.83203C118.805 1.42839 119.391 1.22656 120.016 1.22656Z" fill="#949494"/>
<path d="M127.32 26.9688C127.073 27.0599 126.936 27.0208 126.91 26.8516C126.884 26.6693 126.982 26.474 127.203 26.2656C128.701 24.2734 129.449 22.3984 129.449 20.6406C129.462 18.8828 128.844 17.3659 127.594 16.0898C125.497 13.9414 124.599 12.2552 124.898 11.0312C125.198 9.79427 126.207 8.31641 127.926 6.59766C128.095 6.41536 128.245 6.38281 128.375 6.5C128.518 6.61719 128.512 6.76693 128.355 6.94922C127.444 8.04297 127.379 8.98698 128.16 9.78125C129.111 10.7448 129.853 11.6042 130.387 12.3594C130.491 12.5156 130.634 12.5482 130.816 12.457C131.962 11.832 133.049 11.168 134.078 10.4648C135.12 9.7487 136.148 8.99349 137.164 8.19922C137.268 8.10807 137.379 8.08203 137.496 8.12109C137.613 8.16016 137.678 8.2513 137.691 8.39453C137.809 9.11068 138.069 9.72266 138.473 10.2305C138.876 10.7383 139.293 11.2331 139.723 11.7148C141.298 13.5898 142.008 15.6732 141.852 17.9648C141.643 20.8164 140.68 22.9714 138.961 24.4297C138.102 25.1719 137.223 26.0052 136.324 26.9297C135.426 27.8411 134.684 28.707 134.098 29.5273C133.954 29.6836 133.811 29.7096 133.668 29.6055C132.939 29.1367 131.962 28.4922 130.738 27.6719C129.514 26.8516 128.375 26.6172 127.32 26.9688ZM130.855 23.7461C131.559 24.0065 132.32 24.3841 133.141 24.8789C134.039 25.4128 134.84 25.888 135.543 26.3047C135.712 26.4089 135.855 26.3698 135.973 26.1875C136.35 25.5495 136.786 24.6901 137.281 23.6094C137.776 22.5286 138.043 21.2982 138.082 19.918C138.095 18.4987 137.822 17.2227 137.262 16.0898C136.702 14.957 136.083 13.8763 135.406 12.8477C134.651 11.7539 133.245 11.7995 131.188 12.9844C131.005 13.0755 130.966 13.2188 131.07 13.4141C132.177 15.3542 132.581 17.1576 132.281 18.8242C132.008 20.4128 131.474 21.8906 130.68 23.2578C130.641 23.3229 130.634 23.4141 130.66 23.5312C130.686 23.6484 130.751 23.7201 130.855 23.7461Z" fill="#949494"/>
<path d="M149.625 29.5469C149.599 29.2344 149.43 29 149.117 28.8438C148.818 28.6875 148.564 28.5312 148.355 28.375C146.858 27.3594 145.797 26.1224 145.172 24.6641C144.56 23.1927 144.215 21.6367 144.137 19.9961C143.98 16.2852 144.983 13.4596 147.145 11.5195C147.913 10.8294 148.798 10.2695 149.801 9.83984C150.803 9.39714 151.832 9.03906 152.887 8.76562C153.212 8.70052 153.453 8.86328 153.609 9.25391L156.422 15.8555C156.552 16.207 156.507 16.4284 156.285 16.5195H156.246L148.238 19.625C148.082 19.7031 148.017 19.8268 148.043 19.9961C148.681 22.8867 149.749 24.7422 151.246 25.5625C152.744 26.3698 154.234 26.487 155.719 25.9141C155.979 25.7969 156.142 25.8164 156.207 25.9727C156.285 26.1289 156.24 26.2461 156.07 26.3242C155.016 26.8581 154.007 27.4049 153.043 27.9648C152.092 28.5247 151.24 29.1107 150.484 29.7227C150.367 29.8008 150.191 29.8268 149.957 29.8008C149.736 29.7747 149.625 29.6901 149.625 29.5469ZM147.809 18.5117C147.822 18.6159 147.867 18.7005 147.945 18.7656C148.023 18.8177 148.121 18.8177 148.238 18.7656L152.398 17.2031C152.594 17.125 152.652 16.9883 152.574 16.793L150.191 10.9531C150.074 10.6667 149.84 10.6276 149.488 10.8359C148.733 11.2786 148.219 12.2878 147.945 13.8633C147.672 15.4388 147.626 16.9883 147.809 18.5117Z" fill="#949494"/>
</g>
<defs>
<filter id="filter0_d_1_9" x="0.982361" y="0.345703" width="159.512" height="37.4648" filterUnits="userSpaceOnUse" color-interpolation-filters="sRGB">
<feFlood flood-opacity="0" result="BackgroundImageFix"/>
<feColorMatrix in="SourceAlpha" type="matrix" values="0 0 0 0 0 0 0 0 0 0 0 0 0 0 0 0 0 0 127 0" result="hardAlpha"/>
<feOffset dy="4"/>
<feGaussianBlur stdDeviation="2"/>
<feComposite in2="hardAlpha" operator="out"/>
<feColorMatrix type="matrix" values="0 0 0 0 0 0 0 0 0 0 0 0 0 0 0 0 0 0 0.25 0"/>
<feBlend mode="normal" in2="BackgroundImageFix" result="effect1_dropShadow_1_9"/>
<feBlend mode="normal" in="SourceGraphic" in2="effect1_dropShadow_1_9" result="shape"/>
</filter>
</defs>
</svg>
