<svg width="136" height="31" viewBox="0 0 136 31" fill="none" xmlns="http://www.w3.org/2000/svg">
<path d="M32.4727 30H20.0508C19.6602 29.2578 19.2565 28.4701 18.8398 27.6367C18.4232 26.8034 18.0195 25.9375 17.6289 25.0391C17.2383 24.1406 16.8737 23.2096 16.5352 22.2461C16.1966 21.2826 15.9102 20.293 15.6758 19.2773H14.9922V30H-0.0078125V21.5234L2.49219 21.0352V8.96484L-0.0078125 8.47656V0H17.0039C19.2565 0 21.2031 0.104167 22.8438 0.3125C24.4844 0.520833 25.8776 0.820312 27.0234 1.21094C28.1693 1.58854 29.0938 2.05729 29.7969 2.61719C30.513 3.16406 31.0664 3.78906 31.457 4.49219C31.8607 5.18229 32.1276 5.94401 32.2578 6.77734C32.401 7.59766 32.4727 8.47005 32.4727 9.39453C32.4727 10.332 32.3815 11.1849 32.1992 11.9531C32.0299 12.7083 31.724 13.4049 31.2812 14.043C30.8385 14.681 30.2331 15.2669 29.4648 15.8008C28.6966 16.3216 27.7201 16.8164 26.5352 17.2852C26.7826 17.806 27.1536 18.418 27.6484 19.1211C28.1432 19.8112 28.6771 20.5208 29.25 21.25C29.8229 21.9661 30.3958 22.6693 30.9688 23.3594C31.5547 24.0365 32.056 24.6159 32.4727 25.0977V30ZM14.9922 13.5156C15.7474 13.5156 16.431 13.4831 17.043 13.418C17.668 13.3529 18.1953 13.2031 18.625 12.9688C19.0677 12.7344 19.4062 12.3893 19.6406 11.9336C19.875 11.4779 19.9922 10.8659 19.9922 10.0977C19.9922 9.34245 19.875 8.74349 19.6406 8.30078C19.4062 7.84505 19.0677 7.49349 18.625 7.24609C18.1953 6.9987 17.668 6.83594 17.043 6.75781C16.431 6.67969 15.7474 6.64062 14.9922 6.64062V13.5156Z" fill="#949494"/>
<path d="M37.2578 27.8711C35.4609 26.1003 34.5625 23.75 34.5625 20.8203C34.5625 17.8906 35.4674 15.5143 37.2773 13.6914C39.1003 11.8555 41.418 10.9375 44.2305 10.9375C46.457 10.9375 48.332 11.6602 49.8555 13.1055C51.3919 14.5378 52.1602 16.3411 52.1602 18.5156C52.1602 19.5703 51.3268 20.0977 49.6602 20.0977H38.3516C38.3776 22.207 39.0612 23.9844 40.4023 25.4297C41.7435 26.875 43.4362 27.5977 45.4805 27.5977C46.8346 27.5977 48.1497 27.2005 49.4258 26.4062C50.1029 25.9896 50.5326 25.7812 50.7148 25.7812C50.9102 25.7812 51.125 25.8789 51.3594 26.0742C51.6068 26.2565 51.7305 26.4844 51.7305 26.7578C51.7305 27.474 51.2682 28.138 50.3438 28.75C49.4323 29.349 48.4232 29.7917 47.3164 30.0781C46.2096 30.3776 45.2396 30.5273 44.4062 30.5273C41.4505 30.5273 39.0677 29.6419 37.2578 27.8711ZM48.5664 18.0469C48.5404 16.5495 48.1497 15.332 47.3945 14.3945C46.6393 13.457 45.5326 12.9883 44.0742 12.9883C42.6289 12.9883 41.3594 13.5091 40.2656 14.5508C39.1849 15.5924 38.612 16.7839 38.5469 18.125H43.1172C45.1484 18.125 46.9648 18.099 48.5664 18.0469Z" fill="#949494"/>
<path d="M57.0234 11.2305C60.7474 11.2305 62.6094 11.6862 62.6094 12.5977C62.6094 12.9622 62.1927 13.2487 61.3594 13.457C60.5391 13.6654 60.1289 13.9453 60.1289 14.2969C60.1289 14.7396 61.8411 18.6849 65.2656 26.1328C68.651 18.5677 70.3438 14.6549 70.3438 14.3945C70.3438 14.1341 70.2135 13.9323 69.9531 13.7891C69.6927 13.6458 69.4062 13.5352 69.0938 13.457C68.2734 13.2487 67.8633 12.9622 67.8633 12.5977C67.8633 12.168 68.332 11.8359 69.2695 11.6016C70.207 11.3542 71.0859 11.2305 71.9062 11.2305C72.7266 11.2305 73.4492 11.2695 74.0742 11.3477C74.7122 11.4128 75.3177 11.556 75.8906 11.7773C76.4766 11.9857 76.7695 12.2396 76.7695 12.5391C76.7695 13.112 76.3594 13.4635 75.5391 13.5938C74.7188 13.7109 74.1589 13.8607 73.8594 14.043C73.5729 14.2122 73.2995 14.5703 73.0391 15.1172L67.1797 27.6953C66.5807 29.0234 66.2096 29.7526 66.0664 29.8828C65.9232 30.013 65.7865 30.1302 65.6562 30.2344C65.4219 30.4036 65.1484 30.4883 64.8359 30.4883C64.5234 30.4883 64.276 30.4492 64.0938 30.3711C63.9245 30.306 63.7878 30.2409 63.6836 30.1758C63.5924 30.1107 63.4883 29.9805 63.3711 29.7852C63.2539 29.5768 63.1758 29.4336 63.1367 29.3555C63.1107 29.2643 63.0391 29.082 62.9219 28.8086L56.2227 15.1758C55.9232 14.5638 55.6562 14.1797 55.4219 14.0234C55.1875 13.8542 54.6471 13.7109 53.8008 13.5938C52.9674 13.4635 52.5508 13.1055 52.5508 12.5195C52.5508 12.1289 53.0911 11.8164 54.1719 11.582C55.2656 11.3477 56.2161 11.2305 57.0234 11.2305Z" fill="#949494"/>
<path d="M79.9531 27.8711C78.1562 26.1003 77.2578 23.75 77.2578 20.8203C77.2578 17.8906 78.1628 15.5143 79.9727 13.6914C81.7956 11.8555 84.1133 10.9375 86.9258 10.9375C89.1523 10.9375 91.0273 11.6602 92.5508 13.1055C94.0872 14.5378 94.8555 16.3411 94.8555 18.5156C94.8555 19.5703 94.0221 20.0977 92.3555 20.0977H81.0469C81.0729 22.207 81.7565 23.9844 83.0977 25.4297C84.4388 26.875 86.1315 27.5977 88.1758 27.5977C89.5299 27.5977 90.8451 27.2005 92.1211 26.4062C92.7982 25.9896 93.2279 25.7812 93.4102 25.7812C93.6055 25.7812 93.8203 25.8789 94.0547 26.0742C94.3021 26.2565 94.4258 26.4844 94.4258 26.7578C94.4258 27.474 93.9635 28.138 93.0391 28.75C92.1276 29.349 91.1185 29.7917 90.0117 30.0781C88.9049 30.3776 87.9349 30.5273 87.1016 30.5273C84.1458 30.5273 81.763 29.6419 79.9531 27.8711ZM91.2617 18.0469C91.2357 16.5495 90.8451 15.332 90.0898 14.3945C89.3346 13.457 88.2279 12.9883 86.7695 12.9883C85.3242 12.9883 84.0547 13.5091 82.9609 14.5508C81.8802 15.5924 81.3073 16.7839 81.2422 18.125H85.8125C87.8438 18.125 89.6602 18.099 91.2617 18.0469Z" fill="#949494"/>
<path d="M102.883 30L101.203 30.0195C99.4974 30.0195 98.4427 29.7591 98.0391 29.2383C97.8568 29.0039 97.7656 28.724 97.7656 28.3984C97.7656 28.0599 97.8958 27.8255 98.1562 27.6953C98.4167 27.5651 98.7031 27.4935 99.0156 27.4805C99.3411 27.4674 99.6341 27.3698 99.8945 27.1875C100.155 26.9922 100.285 26.6862 100.285 26.2695V16.6211C100.285 15.4622 100.142 14.7461 99.8555 14.4727C99.582 14.1992 99.3477 14.0234 99.1523 13.9453C98.9701 13.8672 98.6771 13.7695 98.2734 13.6523C97.8698 13.5352 97.5378 13.418 97.2773 13.3008C97.0299 13.1836 96.9062 13.0078 96.9062 12.7734C96.9062 11.7318 98.306 11.2109 101.105 11.2109C102.29 11.2109 103.039 11.4193 103.352 11.8359C103.677 12.2396 103.84 13.1836 103.84 14.668C104.283 13.5482 105.012 12.6693 106.027 12.0312C107.056 11.3932 108.104 11.0742 109.172 11.0742C110.253 11.0742 111.138 11.3086 111.828 11.7773C112.531 12.2331 112.883 12.819 112.883 13.5352C112.883 14.2383 112.655 14.8047 112.199 15.2344C111.743 15.651 111.184 15.8594 110.52 15.8594C109.855 15.8594 109.283 15.6836 108.801 15.332C108.332 14.9805 108.026 14.5247 107.883 13.9648C107.544 13.9128 107.264 13.8867 107.043 13.8867C105.012 13.8867 103.996 16.224 103.996 20.8984V26.2695C103.996 27.0247 104.413 27.4284 105.246 27.4805C106.092 27.5195 106.516 27.8516 106.516 28.4766C106.516 29.1927 106.125 29.6354 105.344 29.8047C104.745 29.9349 103.924 30 102.883 30Z" fill="#949494"/>
<path d="M130.871 21.543C130.871 20.2148 130.624 18.9388 130.129 17.7148C129.634 16.4779 128.905 15.4492 127.941 14.6289C126.991 13.8086 125.923 13.3984 124.738 13.3984C123.111 13.3984 121.607 14.0365 120.227 15.3125V26.0742C121.776 27.2982 123.443 27.9102 125.227 27.9102C127.01 27.9102 128.397 27.3242 129.387 26.1523C130.376 24.9805 130.871 23.444 130.871 21.543ZM117.277 30.1562C116.77 30.1562 116.516 29.5638 116.516 28.3789V5.64453C116.516 4.45964 116.047 3.82161 115.109 3.73047C115.018 3.71745 114.901 3.70443 114.758 3.69141C114.615 3.67839 114.51 3.67188 114.445 3.67188C114.38 3.65885 114.296 3.64583 114.191 3.63281C114.1 3.60677 114.029 3.58073 113.977 3.55469C113.938 3.52865 113.898 3.49609 113.859 3.45703C113.768 3.37891 113.723 3.1901 113.723 2.89062C113.723 2.59115 113.924 2.27865 114.328 1.95312C115.057 1.35417 116.04 1.05469 117.277 1.05469C118.592 1.05469 119.361 1.13281 119.582 1.28906C120.025 1.60156 120.246 2.01172 120.246 2.51953V13.3203C122.186 11.6667 124.393 10.8398 126.867 10.8398C129.341 10.8398 131.327 11.7057 132.824 13.4375C134.335 15.1562 135.09 17.4089 135.09 20.1953C135.09 21.9401 134.706 23.5872 133.938 25.1367C133.182 26.6862 132.115 27.9427 130.734 28.9062C129.367 29.8698 127.863 30.3516 126.223 30.3516C123.879 30.3516 121.607 29.6159 119.406 28.1445C119.38 28.1706 119.204 28.4049 118.879 28.8477C118.241 29.7201 117.707 30.1562 117.277 30.1562Z" fill="#949494"/>
</svg>
