<svg width="139" height="35" viewBox="0 0 139 35" fill="none" xmlns="http://www.w3.org/2000/svg">
<path d="M4.33501 5.04C4.33501 6 4.57501 6.85333 5.05501 7.6C5.56167 8.34667 6.17501 9 6.89501 9.56C7.61501 10.12 8.58834 10.8 9.81501 11.6C11.1483 12.4533 12.215 13.2 13.015 13.84C13.815 14.48 14.495 15.2667 15.055 16.2C15.615 17.1067 15.895 18.16 15.895 19.36C15.895 20.7467 15.5217 21.9867 14.775 23.08C14.0283 24.1467 12.9883 24.9867 11.655 25.6C10.3483 26.1867 8.88167 26.48 7.25501 26.48C6.05501 26.48 4.80167 26.32 3.49501 26C2.18834 25.6533 1.30834 25.28 0.855007 24.88C0.721673 24.7733 0.615007 24.68 0.535007 24.6C0.481674 24.4933 0.455007 24.3333 0.455007 24.12L0.335007 17.76V17.72C0.335007 17.6133 0.401673 17.56 0.535007 17.56C0.66834 17.5333 0.74834 17.5733 0.775007 17.68C1.57501 19.3067 2.26834 20.6267 2.85501 21.64C3.46834 22.6533 4.22834 23.5467 5.13501 24.32C6.06834 25.0933 7.12167 25.48 8.29501 25.48C9.36167 25.48 10.2417 25.2 10.935 24.64C11.6283 24.0533 11.975 23.0667 11.975 21.68C11.975 20.5067 11.7083 19.48 11.175 18.6C10.6683 17.72 10.0417 16.9733 9.29501 16.36C8.54834 15.7467 7.52167 15.0133 6.21501 14.16C4.93501 13.3333 3.93501 12.6267 3.21501 12.04C2.52167 11.4533 1.92167 10.7467 1.41501 9.92C0.90834 9.09333 0.655007 8.12 0.655007 7C0.655007 5.58667 1.05501 4.4 1.85501 3.44C2.68167 2.45333 3.73501 1.73333 5.01501 1.28C6.29501 0.799998 7.64167 0.559998 9.05501 0.559998C9.98834 0.559998 10.935 0.653331 11.895 0.839999C12.855 0.999998 13.6283 1.2 14.215 1.44C14.455 1.54667 14.615 1.66667 14.695 1.8C14.775 1.90667 14.815 2.05333 14.815 2.24V8.12C14.815 8.2 14.7483 8.26666 14.615 8.32C14.4817 8.34666 14.4017 8.32 14.375 8.24L14.055 7.48C13.3883 5.8 12.6017 4.37333 11.695 3.2C10.815 2.02666 9.57501 1.44 7.97501 1.44C6.90834 1.44 6.02834 1.74666 5.33501 2.36C4.66834 2.97333 4.33501 3.86666 4.33501 5.04Z" fill="#949494"/>
<path d="M33.625 14.3008L36.3594 7.15234C36.4245 6.98307 36.4831 6.83333 36.5352 6.70312C36.5872 6.55989 36.6524 6.4362 36.7305 6.33203C36.8086 6.22786 36.9128 6.14974 37.043 6.09766C37.1732 6.03255 37.3425 6 37.5508 6H39.8359C40.2005 6 40.3828 6.10417 40.3828 6.3125C40.3828 6.48177 40.3177 6.72266 40.1875 7.03516L29.1524 33.0703C29.0742 33.2396 29.0091 33.3828 28.957 33.5C28.905 33.6302 28.8399 33.7344 28.7617 33.8125C28.6966 33.8906 28.612 33.9492 28.5078 33.9883C28.4037 34.0273 28.2604 34.0469 28.0781 34.0469H25.5586C25.168 34.0469 24.9727 33.9297 24.9727 33.6953C24.9727 33.5391 25.0508 33.3047 25.207 32.9922L28.0977 26.7422L18.1563 7.64062C18.0912 7.51042 18.0391 7.38021 18 7.25C17.974 7.11979 17.9609 7.0026 17.9609 6.89844C17.9609 6.57292 18.0846 6.34505 18.332 6.21484C18.5925 6.07161 18.8529 6 19.1133 6H29.0156C29.4844 6 29.8425 6.09766 30.0899 6.29297C30.3503 6.47526 30.5195 6.65755 30.5977 6.83984L33.625 14.3008Z" fill="#949494"/>
<path d="M75.9428 25.52C75.9962 25.52 76.0228 25.6 76.0228 25.76C76.0228 25.92 75.9962 26 75.9428 26C75.1695 26 74.5562 25.9867 74.1028 25.96L71.3428 25.92L68.7028 25.96C68.2495 25.9867 67.6362 26 66.8628 26C66.7828 26 66.7428 25.92 66.7428 25.76C66.7428 25.6 66.7828 25.52 66.8628 25.52C67.6095 25.52 68.1562 25.4533 68.5028 25.32C68.8495 25.1867 69.0895 24.9333 69.2228 24.56C69.3561 24.16 69.4228 23.56 69.4228 22.76V14.2C69.4228 12.2 69.1428 10.6933 68.5828 9.68C68.0228 8.66667 67.1428 8.16 65.9428 8.16C64.9562 8.16 64.0095 8.45333 63.1028 9.04C62.2228 9.62667 61.4228 10.4533 60.7028 11.52C60.7828 12 60.8228 12.4933 60.8228 13V22.76C60.8228 23.56 60.8762 24.16 60.9828 24.56C61.1162 24.9333 61.3562 25.1867 61.7028 25.32C62.0762 25.4533 62.6362 25.52 63.3828 25.52C63.4628 25.52 63.5028 25.6 63.5028 25.76C63.5028 25.92 63.4628 26 63.3828 26C62.6095 26 61.9962 25.9867 61.5428 25.96L58.8228 25.92L56.1828 25.96C55.7295 25.9867 55.1162 26 54.3428 26C54.2628 26 54.2228 25.92 54.2228 25.76C54.2228 25.6 54.2628 25.52 54.3428 25.52C55.0895 25.52 55.6362 25.4533 55.9828 25.32C56.3295 25.16 56.5695 24.8933 56.7028 24.52C56.8362 24.1467 56.9028 23.56 56.9028 22.76V14.2C56.9028 12.2267 56.6095 10.72 56.0228 9.68C55.4362 8.64 54.5562 8.12 53.3828 8.12C51.4362 8.12 49.7028 9.25333 48.1828 11.52V22.76C48.1828 23.56 48.2495 24.16 48.3828 24.56C48.5162 24.9333 48.7562 25.1867 49.1028 25.32C49.4495 25.4533 50.0095 25.52 50.7828 25.52C50.8362 25.52 50.8628 25.6 50.8628 25.76C50.8628 25.92 50.8362 26 50.7828 26C50.0095 26 49.3962 25.9867 48.9428 25.96L46.1828 25.92L43.5428 25.96C43.0895 25.9867 42.4762 26 41.7028 26C41.6228 26 41.5828 25.92 41.5828 25.76C41.5828 25.6 41.6228 25.52 41.7028 25.52C42.4495 25.52 42.9962 25.4533 43.3428 25.32C43.6895 25.1867 43.9162 24.9333 44.0228 24.56C44.1562 24.16 44.2228 23.56 44.2228 22.76V10.52C44.2228 9.72 44.1562 9.13333 44.0228 8.76C43.9162 8.38667 43.6762 8.13333 43.3028 8C42.9295 7.84 42.3562 7.76 41.5828 7.76C41.5295 7.76 41.5028 7.68 41.5028 7.52C41.5028 7.36 41.5295 7.28 41.5828 7.28L45.6228 7.32L47.4628 7.28C47.7828 7.28 47.9828 7.33333 48.0628 7.44C48.1428 7.52 48.1828 7.72 48.1828 8.04V10.2C50.0495 7.90666 52.2895 6.76 54.9028 6.76C56.3695 6.76 57.5695 7.09333 58.5028 7.76C59.4362 8.4 60.0895 9.30667 60.4628 10.48C62.4095 8 64.7295 6.76 67.4228 6.76C69.3428 6.76 70.8095 7.32 71.8228 8.44C72.8628 9.53333 73.3828 11.0533 73.3828 13V22.76C73.3828 23.56 73.4362 24.16 73.5428 24.56C73.6762 24.9333 73.9162 25.1867 74.2628 25.32C74.6362 25.4533 75.1962 25.52 75.9428 25.52Z" fill="#949494"/>
<path d="M90.1016 15.64C92.1816 15.7467 93.7549 16.2 94.8216 17C95.9149 17.8 96.4616 18.9067 96.4616 20.32C96.4616 21.4667 96.1282 22.48 95.4616 23.36C94.7949 24.24 93.8616 24.9333 92.6616 25.44C91.4882 25.92 90.1416 26.16 88.6216 26.16C87.9016 26.16 87.0349 26.12 86.0216 26.04C85.6482 26.0133 85.1816 25.9867 84.6216 25.96C84.0882 25.9333 83.5016 25.92 82.8616 25.92L80.3016 25.96C79.8216 25.9867 79.1549 26 78.3016 26C78.2482 26 78.2216 25.92 78.2216 25.76C78.2216 25.6 78.2482 25.52 78.3016 25.52C79.1016 25.52 79.6749 25.4533 80.0216 25.32C80.3949 25.1867 80.6349 24.9333 80.7416 24.56C80.8749 24.16 80.9416 23.56 80.9416 22.76V10.52C80.9416 9.72 80.8749 9.13333 80.7416 8.76C80.6349 8.38667 80.3949 8.13333 80.0216 8C79.6749 7.84 79.1282 7.76 78.3816 7.76C78.3016 7.76 78.2616 7.68 78.2616 7.52C78.2616 7.36 78.3016 7.28 78.3816 7.28L80.3016 7.32C81.3682 7.37333 82.2216 7.4 82.8616 7.4C83.6616 7.4 84.5016 7.36 85.3816 7.28C85.6749 7.25333 86.1149 7.22667 86.7016 7.2C87.2882 7.17333 87.7949 7.16 88.2216 7.16C90.1949 7.16 91.7282 7.49333 92.8216 8.16C93.9416 8.82666 94.5016 9.78667 94.5016 11.04C94.5016 12.0533 94.1282 12.9467 93.3816 13.72C92.6349 14.4933 91.5416 15.1333 90.1016 15.64ZM87.2216 7.68C86.5816 7.68 86.1016 7.76 85.7816 7.92C85.4616 8.05333 85.2349 8.33333 85.1016 8.76C84.9682 9.16 84.9016 9.77333 84.9016 10.6V15.56C85.3549 15.5867 85.9549 15.6 86.7016 15.6C87.6616 15.6 88.3949 15.52 88.9016 15.36C89.4349 15.1733 89.8349 14.8267 90.1016 14.32C90.3682 13.7867 90.5016 13.0267 90.5016 12.04C90.5016 9.13333 89.4082 7.68 87.2216 7.68ZM87.9016 25.52C90.8082 25.52 92.2616 24.1067 92.2616 21.28C92.2616 18.0267 90.2482 16.4 86.2216 16.4C85.6349 16.4 85.1949 16.4133 84.9016 16.44V22.76C84.9016 23.7733 85.1016 24.4933 85.5016 24.92C85.9016 25.32 86.7016 25.52 87.9016 25.52Z" fill="#949494"/>
<path d="M109.117 26.48C107.224 26.48 105.531 26.04 104.037 25.16C102.544 24.2533 101.384 23.0533 100.557 21.56C99.7305 20.04 99.3172 18.4 99.3172 16.64C99.3172 14.6133 99.8372 12.8533 100.877 11.36C101.944 9.86666 103.291 8.73333 104.917 7.96C106.571 7.18666 108.264 6.8 109.997 6.8C111.891 6.8 113.557 7.26666 114.997 8.2C116.464 9.10666 117.597 10.3067 118.397 11.8C119.197 13.2667 119.597 14.8133 119.597 16.44C119.597 18.2267 119.131 19.8933 118.197 21.44C117.264 22.96 115.997 24.1867 114.397 25.12C112.797 26.0267 111.037 26.48 109.117 26.48ZM110.037 25.56C111.531 25.56 112.731 24.8267 113.637 23.36C114.571 21.8933 115.037 19.8667 115.037 17.28C115.037 15.52 114.771 13.92 114.237 12.48C113.704 11.04 112.944 9.90667 111.957 9.08C110.997 8.22667 109.877 7.8 108.597 7.8C107.051 7.8 105.877 8.44 105.077 9.72C104.277 11 103.877 12.8933 103.877 15.4C103.877 17.2933 104.144 19.0267 104.677 20.6C105.237 22.1467 105.984 23.36 106.917 24.24C107.851 25.12 108.891 25.56 110.037 25.56Z" fill="#949494"/>
<path d="M128.373 22.6C128.373 23.32 128.439 23.8533 128.573 24.2C128.706 24.5467 128.959 24.8 129.333 24.96C129.733 25.0933 130.319 25.16 131.093 25.16H131.533C133.053 25.16 134.439 24.6667 135.693 23.68C136.946 22.6933 137.866 21.36 138.453 19.68C138.479 19.6267 138.559 19.6133 138.693 19.64C138.853 19.64 138.933 19.6667 138.933 19.72C138.746 21.1333 138.653 23.0267 138.653 25.4C138.653 25.6133 138.599 25.7733 138.493 25.88C138.413 25.96 138.253 26 138.013 26H122.013C121.959 26 121.933 25.92 121.933 25.76C121.933 25.6 121.959 25.52 122.013 25.52C122.706 25.52 123.213 25.4533 123.533 25.32C123.853 25.1867 124.066 24.9333 124.173 24.56C124.306 24.16 124.373 23.56 124.373 22.76V10.52C124.373 9.72 124.306 9.13333 124.173 8.76C124.066 8.38667 123.853 8.13333 123.533 8C123.213 7.84 122.706 7.76 122.013 7.76C121.959 7.76 121.933 7.68 121.933 7.52C121.933 7.36 121.959 7.28 122.013 7.28L123.973 7.32C125.093 7.37333 125.959 7.4 126.573 7.4C127.266 7.4 128.173 7.37333 129.293 7.32L131.133 7.28C131.213 7.28 131.253 7.36 131.253 7.52C131.253 7.68 131.213 7.76 131.133 7.76C130.333 7.76 129.733 7.84 129.333 8C128.959 8.13333 128.706 8.4 128.573 8.8C128.439 9.17333 128.373 9.76 128.373 10.56V22.6Z" fill="#949494"/>
</svg>
