<svg width="18" height="14" viewBox="0 0 18 14" fill="none" xmlns="http://www.w3.org/2000/svg">
<path d="M15.667 0.333H2.33301C1.41701 0.333 0.675007 1.083 0.675007 2L0.667007 12C0.667007 12.917 1.41701 13.667 2.33301 13.667H15.667C16.583 13.667 17.333 12.917 17.333 12V2C17.333 1.083 16.583 0.333 15.667 0.333ZM15.333 3.875L9.44201 7.559C9.3091 7.64084 9.15609 7.68417 9.00001 7.68417C8.84393 7.68417 8.69091 7.64084 8.55801 7.559L2.66701 3.875C2.58461 3.82751 2.51263 3.7639 2.45535 3.68798C2.39808 3.61205 2.35669 3.52537 2.33365 3.4331C2.31062 3.34082 2.30641 3.24486 2.32128 3.15092C2.33614 3.05699 2.36978 2.96701 2.42019 2.88636C2.47059 2.80572 2.53673 2.73605 2.61465 2.68152C2.69257 2.627 2.78068 2.58873 2.87371 2.569C2.96675 2.54927 3.06281 2.54849 3.15615 2.5667C3.24949 2.58492 3.33821 2.62175 3.41701 2.675L9.00001 6.167L14.583 2.675C14.6618 2.62175 14.7505 2.58492 14.8439 2.5667C14.9372 2.54849 15.0333 2.54927 15.1263 2.569C15.2193 2.58873 15.3074 2.627 15.3854 2.68152C15.4633 2.73605 15.5294 2.80572 15.5798 2.88636C15.6302 2.96701 15.6639 3.05699 15.6787 3.15092C15.6936 3.24486 15.6894 3.34082 15.6664 3.4331C15.6433 3.52537 15.6019 3.61205 15.5447 3.68798C15.4874 3.7639 15.4154 3.82751 15.333 3.875Z" fill="url(#paint0_linear_2_7)"/>
<defs>
<linearGradient id="paint0_linear_2_7" x1="9.00001" y1="0.333" x2="9.00001" y2="13.667" gradientUnits="userSpaceOnUse">
<stop stop-color="#337AB7"/>
<stop offset="1" stop-color="#337AB7"/>
</linearGradient>
</defs>
</svg>
