<svg width="20" height="20" viewBox="0 0 20 20" fill="none" xmlns="http://www.w3.org/2000/svg">
<path d="M10 1.667C6.5 1.667 3.333 4.35 3.333 8.5C3.333 11.15 5.375 14.267 9.45 17.858C9.60399 17.9909 9.80061 18.064 10.004 18.064C10.2074 18.064 10.404 17.9909 10.558 17.858C14.625 14.267 16.667 11.15 16.667 8.5C16.667 4.35 13.5 1.667 10 1.667ZM10 10C9.083 10 8.333 9.25 8.333 8.333C8.333 7.416 9.083 6.666 10 6.666C10.917 6.666 11.667 7.416 11.667 8.333C11.667 9.25 10.917 10 10 10Z" fill="url(#paint0_linear_3_4)"/>
<defs>
<linearGradient id="paint0_linear_3_4" x1="10" y1="1.667" x2="10" y2="18.064" gradientUnits="userSpaceOnUse">
<stop stop-color="#337AB7"/>
<stop offset="1" stop-color="#337AB7"/>
</linearGradient>
</defs>
</svg>
