<svg width="32" height="32" viewBox="0 0 32 32" fill="none" xmlns="http://www.w3.org/2000/svg">
<path d="M31.5 16.098C31.5 23.6307 26.1246 29.9104 19 31.3081V21.224H22.226H22.6551L22.7202 20.7999L23.4302 16.1739L23.5186 15.598H22.936H18.999V13.098C18.999 12.5377 19.1371 12.0461 19.4357 11.7009C19.7226 11.3691 20.2215 11.099 21.107 11.099H23.125H23.625V10.599V6.66201V6.24045L23.2095 6.1692L23.125 6.66201L23.2094 6.16918L23.2093 6.16916L23.2089 6.16909L23.2076 6.16887L23.203 6.16809L23.186 6.16525L23.1222 6.15484C23.0668 6.14595 22.9864 6.13337 22.8847 6.11833C22.6815 6.08826 22.3926 6.04829 22.0484 6.00834C21.362 5.92869 20.4458 5.84801 19.544 5.84801C17.6159 5.84801 15.9662 6.43455 14.798 7.60387C13.6293 8.7737 13 10.4692 13 12.574V15.596H9.437H8.937V16.096V20.723V21.223H9.437H13V31.3072C5.87457 29.9105 0.5 23.6318 0.5 16.098C0.5 7.53815 7.44014 0.598007 16 0.598007C24.5599 0.598007 31.5 7.53815 31.5 16.098Z" fill="url(#paint0_linear_3_9)" stroke="#337AB7"/>
<defs>
<linearGradient id="paint0_linear_3_9" x1="16" y1="0.0980072" x2="16" y2="31.904" gradientUnits="userSpaceOnUse">
<stop stop-color="#337AB7"/>
<stop offset="1" stop-color="#337AB7"/>
</linearGradient>
</defs>
</svg>
