<svg width="32" height="24" viewBox="0 0 32 24" fill="none" xmlns="http://www.w3.org/2000/svg">
<path d="M30.8467 4.37622L30.8469 4.37686C31.1668 5.57627 31.3331 7.46604 31.4169 9.09175C31.4584 9.89715 31.4792 10.6252 31.4896 11.1519C31.4948 11.4151 31.4974 11.6278 31.4987 11.7744C31.4994 11.8476 31.4997 11.9044 31.4998 11.9426L31.5 11.9859L31.5 11.9967L31.5 11.9993V11.9999V12V12.0001V12.0007L31.5 12.0033L31.5 12.0141L31.4998 12.0574C31.4997 12.0956 31.4994 12.1524 31.4987 12.2257C31.4974 12.3722 31.4948 12.5849 31.4896 12.8482C31.4793 13.3749 31.4585 14.1029 31.417 14.9083C31.3333 16.534 31.1673 18.4238 30.8478 19.6233L30.8477 19.6238C30.6895 20.2201 30.3775 20.7643 29.9427 21.202C29.508 21.6396 28.9661 21.9553 28.371 22.1175C27.7991 22.2715 26.7512 22.3955 25.4588 22.4904C24.1799 22.5843 22.7031 22.6471 21.2996 22.6891C19.8968 22.731 18.5713 22.752 17.5962 22.7625C17.1088 22.7678 16.7091 22.7704 16.4315 22.7717C16.2927 22.7723 16.1844 22.7727 16.1109 22.7728L16.0272 22.773L16.006 22.773L16.0007 22.773H15.9994H15.9991L15.999 23.273L15.9989 22.773H15.9986H15.9973L15.992 22.773L15.9708 22.773L15.8871 22.7728C15.8136 22.7727 15.7053 22.7723 15.5665 22.7717C15.2889 22.7704 14.8892 22.7678 14.4018 22.7625C13.4268 22.752 12.1013 22.731 10.6987 22.6891C9.29528 22.6471 7.81866 22.5843 6.54005 22.4904C5.24767 22.3955 4.2001 22.2715 3.62879 22.1174C3.03404 21.9551 2.49235 21.6394 2.05794 21.2019C1.62335 20.7642 1.31138 20.22 1.1533 19.6238L1.15311 19.6231C0.833205 18.4237 0.666925 16.534 0.583086 14.9083C0.541552 14.1029 0.520765 13.3748 0.510371 12.8481C0.505177 12.5849 0.502584 12.3722 0.501289 12.2256C0.500642 12.1524 0.50032 12.0956 0.500159 12.0574L0.500019 12.0141L0.500002 12.0033L0.5 12.0007L0.5 12.0001V12V11.9999L0.5 11.9993L0.500002 11.9967L0.500019 11.9859L0.500159 11.9426C0.50032 11.9044 0.500642 11.8476 0.501289 11.7744C0.502584 11.6278 0.505177 11.4151 0.510371 11.1519C0.520765 10.6252 0.541552 9.89715 0.583086 9.09175C0.666925 7.46604 0.833205 5.57627 1.15311 4.37686L1.15325 4.37633C1.31152 3.7803 1.62347 3.23627 2.05791 2.7986C2.49214 2.36114 3.03354 2.04527 3.62804 1.88252C4.19999 1.72847 5.24784 1.60446 6.5402 1.50958C7.81909 1.41569 9.2959 1.35287 10.6994 1.3109C12.1022 1.26896 13.4277 1.24798 14.4028 1.23749C14.8902 1.23224 15.2899 1.22962 15.5675 1.22831C15.7063 1.22765 15.8146 1.22733 15.8881 1.22716L15.9718 1.22702L15.993 1.227L15.9983 1.227L15.9996 1.227L15.9999 1.227L16 0.727001L16.0001 1.227L16.0004 1.227L16.0017 1.227L16.007 1.227L16.0282 1.22702L16.1119 1.22716C16.1854 1.22733 16.2937 1.22765 16.4325 1.22831C16.7101 1.22962 17.1098 1.23224 17.5972 1.23749C18.5723 1.24798 19.8978 1.26896 21.3004 1.3109C22.7039 1.35287 24.1806 1.41569 25.4594 1.50958C26.7517 1.60447 27.7994 1.7285 28.3711 1.88256C28.9658 2.04499 29.5075 2.36074 29.9419 2.79823C30.3765 3.23591 30.6885 3.78006 30.8467 4.37622ZM12.3736 17.1117L13.227 17.9643V17.0473L21.3372 12.4346L22.1013 12L21.3372 11.5654L12.9742 6.80839L12.227 6.38337V7.243V16.4656L11.9083 16.6469L12.3726 17.1107L12.3736 17.1117Z" fill="url(#paint0_linear_3_11)" stroke="#337AB7"/>
<defs>
<linearGradient id="paint0_linear_3_11" x1="16" y1="0.727001" x2="16" y2="23.273" gradientUnits="userSpaceOnUse">
<stop stop-color="#337AB7"/>
<stop offset="1" stop-color="#337AB7"/>
</linearGradient>
</defs>
</svg>
