<svg width="136" height="41" viewBox="0 0 136 41" fill="none" xmlns="http://www.w3.org/2000/svg">
<path d="M17.44 31.68C15.36 31.68 14.32 30.7867 14.32 29C14.32 28.4133 14.4 27.7467 14.56 27C14.7467 26.2267 15 25.24 15.32 24.04C15.6933 22.7867 15.9733 21.72 16.16 20.84C16.3467 19.96 16.44 19.1733 16.44 18.48C16.44 16.6667 15.64 15.76 14.04 15.76C13.6133 15.76 13.1733 15.8133 12.72 15.92L9.51999 31H3.75999L9.19999 5.55999L15.12 4.75999L13.16 14H13.48C14.52 14 15.48 13.64 16.36 12.92C17.24 12.2 17.92 11.3067 18.4 10.24C18.9067 9.14666 19.16 8.07999 19.16 7.03999C19.16 5.81332 18.7867 4.81332 18.04 4.03999C17.32 3.23999 16.2267 2.83999 14.76 2.83999C12.6 2.83999 10.7067 3.22666 9.07999 3.99999C7.45332 4.77332 6.18666 5.89332 5.27999 7.35999C4.39999 8.82666 3.95999 10.56 3.95999 12.56C3.95999 13.5467 4.05332 14.24 4.23999 14.64C4.42666 15.0133 4.51999 15.2267 4.51999 15.28C3.07999 15.28 1.99999 14.9867 1.27999 14.4C0.586657 13.7867 0.23999 12.7867 0.23999 11.4C0.23999 9.69332 0.933324 8.03999 2.31999 6.43999C3.73332 4.81332 5.53332 3.50666 7.71999 2.51999C9.90666 1.50665 12.0933 0.999988 14.28 0.999988C16.28 0.999988 17.96 1.29332 19.32 1.87999C20.68 2.46666 21.6933 3.25332 22.36 4.23999C23.0267 5.19999 23.36 6.25332 23.36 7.39999C23.36 8.65332 22.9733 9.90666 22.2 11.16C21.4267 12.4133 20.3733 13.44 19.04 14.24C20.0533 14.5333 20.76 15.0267 21.16 15.72C21.5867 16.3867 21.8 17.2267 21.8 18.24C21.8 19.0133 21.7067 19.84 21.52 20.72C21.3333 21.5733 21.0667 22.64 20.72 23.92C20.5067 24.7467 20.3067 25.56 20.12 26.36C19.9333 27.16 19.84 27.8267 19.84 28.36C19.84 28.9733 19.9733 29.52 20.24 30C20.5333 30.48 20.92 30.8133 21.4 31C19.7733 31.4533 18.4533 31.68 17.44 31.68Z" fill="black"/>
<path d="M30.7034 8.83999C29.8234 8.83999 29.0768 8.53332 28.4634 7.91999C27.8501 7.30666 27.5434 6.55999 27.5434 5.67999C27.5434 4.79999 27.8501 4.05332 28.4634 3.43999C29.0768 2.79999 29.8234 2.47999 30.7034 2.47999C31.5834 2.47999 32.3301 2.79999 32.9434 3.43999C33.5834 4.05332 33.9034 4.79999 33.9034 5.67999C33.9034 6.55999 33.5834 7.30666 32.9434 7.91999C32.3301 8.53332 31.5834 8.83999 30.7034 8.83999ZM27.9834 31.24C26.7034 31.24 25.6634 30.84 24.8634 30.04C24.0901 29.24 23.7034 28.04 23.7034 26.44C23.7034 25.7733 23.8101 24.9067 24.0234 23.84L26.7434 11H32.5034L29.6234 24.6C29.5168 25 29.4634 25.4267 29.4634 25.88C29.4634 26.4133 29.5834 26.8 29.8234 27.04C30.0901 27.2533 30.5168 27.36 31.1034 27.36C31.8768 27.36 32.5968 27.04 33.2634 26.4C33.9301 25.7333 34.4101 24.88 34.7034 23.84H36.3834C35.3968 26.72 34.1301 28.68 32.5834 29.72C31.0368 30.7333 29.5034 31.24 27.9834 31.24Z" fill="black"/>
<path d="M31.0475 41C29.7942 41 28.7008 40.5867 27.7675 39.76C26.8075 38.96 26.3275 37.9333 26.3275 36.68C26.3275 35.5333 26.6208 34.5867 27.2075 33.84C27.7942 33.0933 28.5675 32.4933 29.5275 32.04C30.4608 31.6133 31.7008 31.16 33.2475 30.68L38.0475 7.83999C38.5808 5.27999 39.5142 3.50666 40.8475 2.51999C42.2075 1.53332 43.7008 1.03999 45.3275 1.03999C46.2342 1.03999 47.0742 1.26666 47.8475 1.71999C48.6475 2.17332 49.2342 2.78666 49.6075 3.55999C50.9142 1.87999 52.7408 1.03999 55.0875 1.03999C56.3408 1.03999 57.4342 1.45332 58.3675 2.27999C59.3275 3.07999 59.8075 4.10666 59.8075 5.35999C59.8075 5.97332 59.7675 6.51999 59.6875 6.99999H57.8075C57.8608 6.41332 57.8875 6.05332 57.8875 5.91999C57.8875 5.49332 57.7408 5.15999 57.4475 4.91999C57.1542 4.67999 56.7942 4.55999 56.3675 4.55999C55.0608 4.55999 54.1542 5.61332 53.6475 7.71999L52.9275 11H56.9275L56.5675 12.6H52.6075L48.0875 34.2C47.5542 36.76 46.6075 38.5333 45.2475 39.52C43.9142 40.5067 42.4342 41 40.8075 41C38.6208 41 37.1808 40.16 36.4875 38.48C35.2075 40.16 33.3942 41 31.0475 41ZM47.1275 11L47.8075 7.83999L48.0475 6.79999C48.1008 6.37332 48.1275 6.07999 48.1275 5.91999C48.1275 5.49332 47.9808 5.15999 47.6875 4.91999C47.3942 4.67999 47.0342 4.55999 46.6075 4.55999C45.3008 4.55999 44.3942 5.61332 43.8875 7.71999L43.1675 11H47.1275ZM43.4075 28.8L46.8075 12.6H42.8475L39.2875 29.52L43.4075 28.8ZM39.8875 37.44C40.3675 37.44 40.8208 37.1867 41.2475 36.68C41.6742 36.2 42.0075 35.4133 42.2475 34.32L43.2075 29.76L39.0875 30.52L38.3275 34.2C38.1408 35.0267 37.8875 35.84 37.5675 36.64C37.8608 37.1733 38.6342 37.44 39.8875 37.44ZM30.3675 37.44C30.8475 37.44 31.3008 37.1867 31.7275 36.68C32.1542 36.2 32.4875 35.4133 32.7275 34.32L33.2075 32C31.7942 32.48 30.7008 33.0267 29.9275 33.64C29.1542 34.28 28.7675 35.1067 28.7675 36.12C28.7675 36.44 28.9275 36.7333 29.2475 37C29.5675 37.2933 29.9408 37.44 30.3675 37.44Z" fill="black"/>
<path d="M64.8 31.72C63.12 31.72 61.64 31.4267 60.36 30.84C59.08 30.2533 58.0933 29.44 57.4 28.4C56.7067 27.3333 56.36 26.1067 56.36 24.72C56.36 23.5467 56.6 22.48 57.08 21.52C57.5867 20.56 58.2533 19.8 59.08 19.24C59.9333 18.68 60.8667 18.4 61.88 18.4C62.8133 18.4 63.6 18.64 64.24 19.12C64.88 19.5733 65.28 20.2133 65.44 21.04C64.0533 21.04 62.9467 21.4133 62.12 22.16C61.2933 22.88 60.88 23.8667 60.88 25.12C60.88 26.2667 61.2267 27.1867 61.92 27.88C62.6133 28.5733 63.5333 28.92 64.68 28.92C66.0933 28.92 67.2533 28.4533 68.16 27.52C69.0933 26.56 69.56 25.36 69.56 23.92C69.56 22.6667 69.2133 21.48 68.52 20.36C67.8267 19.24 66.7867 17.88 65.4 16.28C63.96 14.6267 62.8667 13.2133 62.12 12.04C61.4 10.84 61.04 9.53332 61.04 8.11999C61.04 6.73332 61.4267 5.49332 62.2 4.39999C62.9733 3.27999 64.04 2.39999 65.4 1.75999C66.76 1.11999 68.2933 0.799988 70 0.799988C72.16 0.799988 73.88 1.30666 75.16 2.31999C76.4667 3.33332 77.12 4.69332 77.12 6.39999C77.12 7.51999 76.84 8.42666 76.28 9.11999C75.72 9.81332 74.9867 10.16 74.08 10.16C73.0667 10.16 72.2533 9.74666 71.64 8.91999C72.1467 8.54666 72.5467 8.05332 72.84 7.43999C73.1333 6.82665 73.28 6.18666 73.28 5.51999C73.28 4.66666 73.0267 3.98666 72.52 3.47999C72.0133 2.97332 71.32 2.71999 70.44 2.71999C69.3733 2.71999 68.4933 3.10666 67.8 3.87999C67.1333 4.62666 66.8 5.58666 66.8 6.75999C66.8 7.82666 67.1067 8.82665 67.72 9.75999C68.3333 10.6667 69.2933 11.84 70.6 13.28C71.6667 14.4267 72.52 15.4133 73.16 16.24C73.8267 17.0667 74.3867 18.0267 74.84 19.12C75.32 20.1867 75.56 21.3467 75.56 22.6C75.56 24.3067 75.08 25.8533 74.12 27.24C73.1867 28.6267 71.8933 29.72 70.24 30.52C68.6133 31.32 66.8 31.72 64.8 31.72Z" fill="black"/>
<path d="M81.7725 31.24C80.4925 31.24 79.4525 30.84 78.6525 30.04C77.8792 29.24 77.4925 28.04 77.4925 26.44C77.4925 25.7733 77.5992 24.9067 77.8125 23.84L80.2125 12.6H78.8925L79.2125 11H80.5325L81.7325 5.47999L87.6525 4.67999L86.2925 11H88.6925L88.3725 12.6H85.9725L83.4125 24.6C83.3058 25 83.2525 25.4267 83.2525 25.88C83.2525 26.4133 83.3725 26.8 83.6125 27.04C83.8792 27.2533 84.3058 27.36 84.8925 27.36C85.6658 27.36 86.3858 27.04 87.0525 26.4C87.7192 25.7333 88.1992 24.88 88.4925 23.84H90.1725C89.1858 26.72 87.9192 28.68 86.3725 29.72C84.8258 30.7333 83.2925 31.24 81.7725 31.24Z" fill="black"/>
<path d="M94.3166 31.16C92.3432 31.16 90.7832 30.6533 89.6366 29.64C88.4899 28.6267 87.9165 27.0267 87.9165 24.84C87.9165 23.0267 88.2899 21.0133 89.0366 18.8C89.7832 16.5867 90.9832 14.68 92.6366 13.08C94.2899 11.4533 96.3699 10.64 98.8766 10.64C102.29 10.64 103.997 12.7733 103.997 17.04V17.08C104.077 17.1067 104.223 17.12 104.437 17.12C105.317 17.12 106.33 16.8933 107.477 16.44C108.623 15.96 109.663 15.3867 110.597 14.72L110.957 15.8C110.183 16.6267 109.17 17.3333 107.917 17.92C106.69 18.48 105.343 18.88 103.877 19.12C103.663 21.5467 103.117 23.6667 102.237 25.48C101.357 27.2933 100.223 28.6933 98.8366 29.68C97.4499 30.6667 95.9432 31.16 94.3166 31.16ZM95.9165 27.56C96.5565 27.56 97.1966 27.2 97.8366 26.48C98.4766 25.7333 99.0366 24.7333 99.5166 23.48C99.9966 22.2 100.343 20.7867 100.557 19.24C99.8366 19.08 99.4766 18.52 99.4766 17.56C99.4766 16.4667 99.8899 15.7467 100.717 15.4C100.663 14.52 100.53 13.92 100.317 13.6C100.103 13.2533 99.7299 13.08 99.1966 13.08C98.3166 13.08 97.4632 13.72 96.6366 15C95.8099 16.28 95.1432 17.8133 94.6366 19.6C94.1299 21.3867 93.8766 22.96 93.8766 24.32C93.8766 25.6 94.0232 26.4667 94.3166 26.92C94.6099 27.3467 95.1432 27.56 95.9165 27.56Z" fill="black"/>
<path d="M108.775 11H114.535L114.015 13.48C114.921 12.68 115.735 12.0667 116.455 11.64C117.201 11.2133 118.001 11 118.855 11C119.708 11 120.375 11.2933 120.855 11.88C121.361 12.4667 121.615 13.1733 121.615 14C121.615 14.7733 121.361 15.4533 120.855 16.04C120.348 16.6267 119.641 16.92 118.735 16.92C118.148 16.92 117.748 16.7867 117.535 16.52C117.348 16.2267 117.201 15.8133 117.095 15.28C117.015 14.9333 116.935 14.68 116.855 14.52C116.775 14.36 116.628 14.28 116.415 14.28C115.855 14.28 115.375 14.4 114.975 14.64C114.601 14.8533 114.108 15.24 113.495 15.8L110.295 31H104.535L108.775 11Z" fill="black"/>
<path d="M126.734 31.24C124.787 31.24 123.267 30.7333 122.174 29.72C121.08 28.68 120.534 27.0667 120.534 24.88C120.534 23.04 120.894 21.0133 121.614 18.8C122.334 16.5867 123.507 14.68 125.134 13.08C126.76 11.4533 128.827 10.64 131.334 10.64C134.267 10.64 135.734 11.92 135.734 14.48C135.734 15.9733 135.307 17.3467 134.454 18.6C133.6 19.8533 132.467 20.8667 131.054 21.64C129.64 22.3867 128.134 22.8133 126.534 22.92C126.48 23.5067 126.454 23.9067 126.454 24.12C126.454 26.3333 127.28 27.44 128.934 27.44C129.68 27.44 130.48 27.24 131.334 26.84C132.187 26.44 132.96 25.9333 133.654 25.32C132.934 29.2667 130.627 31.24 126.734 31.24ZM126.814 21C127.827 20.9733 128.774 20.64 129.654 20C130.56 19.36 131.28 18.5467 131.814 17.56C132.374 16.5467 132.654 15.4933 132.654 14.4C132.654 13.3067 132.32 12.76 131.654 12.76C130.72 12.76 129.787 13.6133 128.854 15.32C127.947 17 127.267 18.8933 126.814 21Z" fill="black"/>
</svg>
