<svg width="149" height="35" viewBox="0 0 149 35" fill="none" xmlns="http://www.w3.org/2000/svg">
<path d="M7.90625 1.15625C7.93229 1.36458 7.88021 1.52083 7.75 1.625C7.64583 1.70312 7.51562 1.74218 7.35938 1.74218C7.20312 1.74218 7.0599 1.6901 6.92969 1.58593C6.79948 1.48177 6.7474 1.35156 6.77344 1.19531C6.8776 1.0651 7.0599 0.986976 7.32031 0.960934C7.60677 0.908851 7.80208 0.973955 7.90625 1.15625ZM1.73438 6.625C1.68229 6.70312 1.59115 6.78125 1.46094 6.85937C1.35677 6.91145 1.23958 6.87239 1.10938 6.74218C0.979167 6.63802 0.888021 6.36458 0.835938 5.92187C0.809896 5.47916 0.796875 5.11458 0.796875 4.82812C0.796875 4.38541 0.796875 3.86458 0.796875 3.26562C0.822917 2.64062 0.901042 2.14583 1.03125 1.78125C1.10938 1.7552 1.1875 1.71614 1.26562 1.66406C1.34375 1.61198 1.4349 1.57291 1.53906 1.54687C1.82552 1.52083 2.00781 1.49479 2.08594 1.46875C2.16406 1.41666 2.24219 1.3776 2.32031 1.35156C2.42448 1.35156 2.51562 1.36458 2.59375 1.39062C2.67188 1.39062 2.76302 1.39062 2.86719 1.39062C2.97135 1.36458 3.07552 1.35156 3.17969 1.35156C3.28385 1.32552 3.38802 1.29948 3.49219 1.27343C3.7526 1.27343 3.9349 1.26041 4.03906 1.23437C4.16927 1.20833 4.27344 1.18229 4.35156 1.15625C4.45573 1.1302 4.54688 1.10416 4.625 1.07812C4.83333 1.05208 5.02865 1.09114 5.21094 1.19531C5.41927 1.27343 5.54948 1.3776 5.60156 1.50781C5.6276 1.71614 5.54948 1.89843 5.36719 2.05468C5.21094 2.21093 5.05469 2.30208 4.89844 2.32812C4.66406 2.3802 4.46875 2.36718 4.3125 2.28906C4.15625 2.21093 3.98698 2.15885 3.80469 2.13281C3.64844 2.10677 3.49219 2.11979 3.33594 2.17187C3.20573 2.19791 3.04948 2.19791 2.86719 2.17187C2.71094 2.27604 2.52865 2.34114 2.32031 2.36718C2.11198 2.39323 1.94271 2.47135 1.8125 2.60156C1.70833 2.88802 1.68229 3.20052 1.73438 3.53906C1.8125 3.85156 1.78646 4.11198 1.65625 4.32031C1.70833 4.76302 1.69531 5.15364 1.61719 5.49218C1.5651 5.83073 1.60417 6.20833 1.73438 6.625ZM33.5312 31.1172C33.401 31.0391 33.2578 31.013 33.1016 31.0391C32.9453 31.0911 32.7891 31.1302 32.6328 31.1562C32.4766 31.1823 32.3203 31.1823 32.1641 31.1562C32.0339 31.1562 31.8906 31.1562 31.7344 31.1562C31.4219 31.1823 31.1224 31.2214 30.8359 31.2734C30.5495 31.3255 30.276 31.2734 30.0156 31.1172C29.4167 30.7005 28.9349 30.2318 28.5703 29.7109C28.2318 29.1901 27.8411 28.6823 27.3984 28.1875C27.2943 27.9792 27.2682 27.7839 27.3203 27.6016C27.3984 27.4193 27.4115 27.224 27.3594 27.0156C27.3333 26.8854 27.2682 26.7292 27.1641 26.5469C27.0859 26.3385 27.0078 26.1953 26.9297 26.1172C26.7734 25.9089 26.5521 25.7526 26.2656 25.6484C25.9792 25.5443 25.7188 25.4271 25.4844 25.2969C25.276 25.0625 25.1068 24.8151 24.9766 24.5547C24.8724 24.2682 24.7161 24.0208 24.5078 23.8125C24.3776 23.6042 24.2214 23.4089 24.0391 23.2266C23.8828 23.0182 23.7396 22.8099 23.6094 22.6016C23.5052 22.4193 23.4141 22.25 23.3359 22.0937C23.2578 21.9115 23.1536 21.7292 23.0234 21.5469C22.5807 21.4167 22.138 21.3906 21.6953 21.4687C21.2526 21.5208 20.8229 21.5339 20.4062 21.5078C20.224 21.4818 20.0547 21.4818 19.8984 21.5078C19.612 21.5339 19.3255 21.5339 19.0391 21.5078C18.7526 21.4557 18.4661 21.4297 18.1797 21.4297C17.9193 21.4036 17.6589 21.4036 17.3984 21.4297C17.1641 21.4297 16.9427 21.4948 16.7344 21.625C16.6302 21.8594 16.5651 21.9635 16.5391 21.9375C16.513 21.9115 16.4609 21.8984 16.3828 21.8984C16.2526 22.237 16.2135 22.5885 16.2656 22.9531C16.3177 23.3177 16.3698 23.7083 16.4219 24.125C16.5 24.5937 16.5 25.1146 16.4219 25.6875C16.3438 26.2604 16.3307 26.8203 16.3828 27.3672C16.3828 27.4974 16.3828 27.6406 16.3828 27.7969C16.4089 27.9531 16.4219 28.0964 16.4219 28.2266C16.4219 28.4609 16.3828 28.6823 16.3047 28.8906C16.2526 29.099 16.2135 29.3073 16.1875 29.5156C16.0052 29.5417 15.7578 29.6458 15.4453 29.8281C15.3932 29.8802 15.3151 29.9323 15.2109 29.9844C15.1328 30.0365 15.0677 30.0885 15.0156 30.1406C14.8854 30.2708 14.7943 30.4141 14.7422 30.5703C14.6901 30.7266 14.612 30.8568 14.5078 30.9609C14.2995 31.1693 14.0391 31.2604 13.7266 31.2344C13.4141 31.2083 13.0755 31.2214 12.7109 31.2734C12.6328 31.2734 12.5417 31.2734 12.4375 31.2734C12.3594 31.2995 12.2812 31.3125 12.2031 31.3125C11.9167 31.3646 11.6302 31.3776 11.3438 31.3516C11.0573 31.3516 10.7708 31.3516 10.4844 31.3516C10.3542 31.3516 10.2109 31.3646 10.0547 31.3906C9.92448 31.4427 9.79427 31.4687 9.66406 31.4687C9.58594 31.4687 9.50781 31.4557 9.42969 31.4297C9.35156 31.4297 9.27344 31.4297 9.19531 31.4297C9.11719 31.4297 9.02604 31.4427 8.92188 31.4687C8.84375 31.4948 8.76562 31.5078 8.6875 31.5078C8.53125 31.5078 8.36198 31.5078 8.17969 31.5078C8.02344 31.5339 7.88021 31.5469 7.75 31.5469C7.54167 31.5729 7.32031 31.5859 7.08594 31.5859C6.8776 31.612 6.65625 31.599 6.42188 31.5469C6.29167 31.5469 6.16146 31.5208 6.03125 31.4687C5.92708 31.4167 5.8099 31.3646 5.67969 31.3125C5.54948 31.2604 5.41927 31.2344 5.28906 31.2344C5.1849 31.2604 5.08073 31.2604 4.97656 31.2344C4.66406 31.1302 4.41667 30.974 4.23438 30.7656C4.05208 30.5312 3.81771 30.349 3.53125 30.2187C3.47917 30.0625 3.45312 29.9193 3.45312 29.7891C3.45312 29.6589 3.4401 29.5156 3.41406 29.3594C3.46615 29.3073 3.49219 29.2422 3.49219 29.1641C3.51823 29.0599 3.55729 28.9687 3.60938 28.8906C3.60938 28.3698 3.50521 27.9401 3.29688 27.6016C3.21875 27.5234 3.14062 27.4583 3.0625 27.4062C2.98438 27.3281 2.93229 27.224 2.90625 27.0937C2.88021 26.8854 2.89323 26.6641 2.94531 26.4297C2.9974 26.1953 3.04948 25.9609 3.10156 25.7266C3.15365 25.4922 3.17969 25.2578 3.17969 25.0234C3.17969 24.7891 3.20573 24.5677 3.25781 24.3594C3.36198 24.0208 3.38802 23.7734 3.33594 23.6172C3.3099 23.4609 3.28385 23.3437 3.25781 23.2656C3.23177 23.1615 3.17969 23.0833 3.10156 23.0312C3.02344 22.9531 2.97135 22.875 2.94531 22.7969C2.91927 22.7187 2.90625 22.6406 2.90625 22.5625C2.93229 22.4583 2.93229 22.3672 2.90625 22.2891C2.90625 22.0807 2.90625 21.8724 2.90625 21.6641C2.93229 21.4557 2.93229 21.2604 2.90625 21.0781C2.88021 20.8958 2.84115 20.6484 2.78906 20.3359C2.76302 20.0234 2.77604 19.763 2.82812 19.5547C2.85417 19.4505 2.90625 19.3594 2.98438 19.2812C3.08854 19.2031 3.17969 19.125 3.25781 19.0469C3.36198 18.9687 3.4401 18.8776 3.49219 18.7734C3.54427 18.6432 3.55729 18.474 3.53125 18.2656C3.47917 17.9792 3.375 17.7057 3.21875 17.4453C2.93229 16.9766 2.76302 16.5729 2.71094 16.2344C2.65885 15.8958 2.61979 15.5703 2.59375 15.2578C2.56771 15.0234 2.54167 14.7891 2.51562 14.5547C2.48958 14.3203 2.47656 14.0859 2.47656 13.8516C2.42448 12.5755 2.41146 11.3385 2.4375 10.1406C2.48958 8.91666 2.51562 7.64062 2.51562 6.3125C2.56771 5.76562 2.58073 5.28385 2.55469 4.86718C2.52865 4.42448 2.55469 4.05989 2.63281 3.77343C2.73698 3.30468 3.0625 3.03125 3.60938 2.95312C3.81771 3.03125 4.07812 3.09635 4.39062 3.14843C4.70312 3.20052 5.01562 3.16145 5.32812 3.03125C5.43229 3.0052 5.51042 2.95312 5.5625 2.875C5.61458 2.77083 5.69271 2.6927 5.79688 2.64062C6.13542 2.51041 6.38281 2.40625 6.53906 2.32812C6.69531 2.25 6.85156 2.22395 7.00781 2.25C7.39844 2.3802 7.64583 2.41927 7.75 2.36718C7.85417 2.3151 7.97135 2.28906 8.10156 2.28906C8.20573 2.26302 8.3099 2.26302 8.41406 2.28906C8.51823 2.28906 8.6224 2.28906 8.72656 2.28906C8.85677 2.26302 8.97396 2.25 9.07812 2.25C9.18229 2.22395 9.28646 2.21093 9.39062 2.21093C9.49479 2.21093 9.58594 2.22395 9.66406 2.25C9.74219 2.27604 9.83333 2.28906 9.9375 2.28906C10.0677 2.28906 10.2109 2.28906 10.3672 2.28906C10.5234 2.26302 10.6667 2.25 10.7969 2.25C10.901 2.25 10.9922 2.26302 11.0703 2.28906C11.1745 2.3151 11.2786 2.32812 11.3828 2.32812C11.5911 2.30208 11.7865 2.27604 11.9688 2.25C12.1771 2.19791 12.3724 2.14583 12.5547 2.09375C12.737 2.19791 12.9323 2.22395 13.1406 2.17187C13.349 2.11979 13.5703 2.10677 13.8047 2.13281C14.1432 2.23698 14.3906 2.27604 14.5469 2.25C14.7292 2.22395 14.8984 2.21093 15.0547 2.21093C15.3411 2.21093 15.6146 2.23698 15.875 2.28906C16.1615 2.3151 16.4349 2.3151 16.6953 2.28906C16.8255 2.28906 16.9557 2.28906 17.0859 2.28906C17.2161 2.26302 17.3464 2.25 17.4766 2.25C17.6068 2.25 17.737 2.26302 17.8672 2.28906C17.9974 2.28906 18.1276 2.28906 18.2578 2.28906C18.4922 2.26302 18.7266 2.23698 18.9609 2.21093C19.1953 2.15885 19.4297 2.11979 19.6641 2.09375C20.1589 2.0677 20.6667 2.0677 21.1875 2.09375C21.7344 2.09375 22.2682 2.0677 22.7891 2.01562C22.8932 1.98958 22.9974 1.97656 23.1016 1.97656C23.2057 1.95052 23.3099 1.92448 23.4141 1.89843C23.5964 1.89843 23.8177 1.91145 24.0781 1.9375C24.3385 1.9375 24.599 1.9375 24.8594 1.9375C25.1458 1.9375 25.3281 1.98958 25.4062 2.09375C25.4844 2.17187 25.5625 2.23698 25.6406 2.28906C25.875 2.47135 26.1615 2.6276 26.5 2.75781C26.8385 2.88802 27.1901 2.90104 27.5547 2.79687C27.737 2.74479 27.9193 2.66666 28.1016 2.5625C28.3099 2.43229 28.5052 2.3151 28.6875 2.21093C28.8958 2.10677 29.1172 2.0677 29.3516 2.09375C29.5859 2.11979 29.8203 2.13281 30.0547 2.13281C30.1328 2.13281 30.2109 2.11979 30.2891 2.09375C30.3672 2.0677 30.4453 2.05468 30.5234 2.05468C30.6797 2.05468 30.8359 2.0677 30.9922 2.09375C31.1484 2.11979 31.3047 2.14583 31.4609 2.17187C31.5391 2.17187 31.6172 2.17187 31.6953 2.17187C31.7734 2.14583 31.8516 2.14583 31.9297 2.17187C32.3984 2.22395 32.8542 2.34114 33.2969 2.52343C33.7396 2.70573 34.1562 2.86198 34.5469 2.99218C35.0677 3.43489 35.4714 3.83854 35.7578 4.20312C36.0703 4.54166 36.3698 4.89323 36.6562 5.25781C36.8906 5.67448 37.099 6.11718 37.2812 6.58593C37.4896 7.05468 37.6198 7.58854 37.6719 8.1875C37.724 9.07291 37.75 9.93229 37.75 10.7656C37.776 11.5729 37.7891 12.4193 37.7891 13.3047C37.7891 13.487 37.776 13.6562 37.75 13.8125C37.75 13.9427 37.763 14.0729 37.7891 14.2031C37.8151 14.4896 37.8021 14.75 37.75 14.9844C37.724 15.2187 37.6849 15.4792 37.6328 15.7656C37.6068 15.9479 37.5938 16.1302 37.5938 16.3125C37.6198 16.4687 37.6068 16.625 37.5547 16.7812C37.3724 17.25 37.2422 17.5885 37.1641 17.7969C37.112 18.0052 37.0208 18.2005 36.8906 18.3828C36.8125 18.513 36.6823 18.6302 36.5 18.7344C36.3177 18.8125 36.1745 18.8516 36.0703 18.8516C35.7318 18.8776 35.5365 18.9297 35.4844 19.0078C35.4583 19.0859 35.4193 19.1641 35.3672 19.2422C35.3151 19.3464 35.263 19.4245 35.2109 19.4766C35.1849 19.5286 35.1589 19.6068 35.1328 19.7109C34.9505 19.8411 34.7682 19.9714 34.5859 20.1016C34.4036 20.2318 34.2344 20.375 34.0781 20.5312C33.5573 20.6094 33.0755 20.7135 32.6328 20.8437C32.2161 20.974 31.7865 21.1042 31.3438 21.2344C31.474 21.5469 31.6432 21.8333 31.8516 22.0937C32.0599 22.3542 32.2292 22.6276 32.3594 22.9141C32.6458 23.5911 32.9714 24.1771 33.3359 24.6719C33.4401 24.8542 33.5573 25.0365 33.6875 25.2187C33.8438 25.375 33.987 25.5312 34.1172 25.6875L34.5859 26.3906C34.7422 26.599 34.8724 26.8073 34.9766 27.0156C35.0807 27.1979 35.1849 27.4062 35.2891 27.6406C35.3411 27.7187 35.3802 27.7969 35.4062 27.875C35.4583 27.9531 35.4844 28.0443 35.4844 28.1484C35.6406 28.4349 35.7969 28.7214 35.9531 29.0078C36.1094 29.2943 36.2656 29.5807 36.4219 29.8672C36.5521 29.8411 36.6562 29.8151 36.7344 29.7891C36.8125 29.763 36.9167 29.75 37.0469 29.75C36.9948 29.8021 36.9167 29.8411 36.8125 29.8672C36.7083 29.8932 36.6302 29.9453 36.5781 30.0234C36.5521 30.1016 36.513 30.2187 36.4609 30.375C36.4089 30.5052 36.3307 30.6224 36.2266 30.7266C36.0182 30.8568 35.8099 30.9349 35.6016 30.9609C35.3932 30.987 35.1719 31 34.9375 31C34.7031 31 34.4688 31 34.2344 31C34 31 33.7656 31.0391 33.5312 31.1172ZM6.34375 5.53125C6.39583 5.42708 6.40885 5.27083 6.38281 5.0625C6.38281 4.85416 6.34375 4.72395 6.26562 4.67187C6.08333 4.54166 5.875 4.51562 5.64062 4.59375C5.43229 4.64583 5.21094 4.65885 4.97656 4.63281C4.48177 4.60677 4.19531 4.68489 4.11719 4.86718C4.0651 5.04948 4.01302 5.24479 3.96094 5.45312C3.88281 5.71354 3.83073 5.92187 3.80469 6.07812C3.77865 6.23437 3.79167 6.41666 3.84375 6.625C3.89583 6.91146 3.9349 7.14583 3.96094 7.32812C4.01302 7.48437 4.14323 7.60156 4.35156 7.67968C4.48177 7.52343 4.54688 7.3151 4.54688 7.05468C4.57292 6.76823 4.625 6.52083 4.70312 6.3125C4.83333 6.20833 4.96354 6.14323 5.09375 6.11718C5.25 6.0651 5.40625 6 5.5625 5.92187C5.66667 5.86979 5.8099 5.8177 5.99219 5.76562C6.17448 5.6875 6.29167 5.60937 6.34375 5.53125ZM9.03906 4.90625C9.0651 4.67187 8.9349 4.46354 8.64844 4.28125C8.25781 4.30729 8.02344 4.39843 7.94531 4.55468C7.89323 4.71093 7.85417 4.89323 7.82812 5.10156C7.95833 5.23177 8.17969 5.29687 8.49219 5.29687C8.80469 5.27083 8.98698 5.14062 9.03906 4.90625ZM10.0156 29.9062C10.25 29.8021 10.3281 29.6328 10.25 29.3984C10.1979 29.138 10.0156 29.0208 9.70312 29.0469C9.49479 29.1771 9.41667 29.3594 9.46875 29.5937C9.54688 29.8281 9.72917 29.9323 10.0156 29.9062ZM14.1562 28.7344C14.3906 28.4479 14.4427 28.1875 14.3125 27.9531C14.2083 27.7187 14 27.6146 13.6875 27.6406C13.5312 27.7448 13.401 27.875 13.2969 28.0312C13.2188 28.1615 13.1276 28.3047 13.0234 28.4609C12.9193 28.5911 12.7891 28.6953 12.6328 28.7734C12.4766 28.8516 12.2682 28.8646 12.0078 28.8125C11.9036 28.9167 11.7995 29.0208 11.6953 29.125C11.5911 29.2031 11.5521 29.3594 11.5781 29.5937C11.6302 29.724 11.7083 29.8151 11.8125 29.8672C11.9427 29.8932 12.0599 29.9323 12.1641 29.9844C12.2943 29.9323 12.4505 29.9193 12.6328 29.9453C12.8151 29.9453 12.9714 29.8932 13.1016 29.7891C13.1797 29.737 13.2578 29.6589 13.3359 29.5547C13.4401 29.4245 13.5312 29.3073 13.6094 29.2031C13.7135 29.099 13.8177 29.0078 13.9219 28.9297C14.026 28.8516 14.1042 28.7865 14.1562 28.7344ZM24.4297 14.9453C24.5859 14.763 24.7161 14.5417 24.8203 14.2812C24.9505 14.0208 25.0286 13.7734 25.0547 13.5391C25.0807 13.3047 25.0807 13.0703 25.0547 12.8359C25.0547 12.6016 25.0807 12.3542 25.1328 12.0937C25.1589 11.9896 25.1979 11.8984 25.25 11.8203C25.3281 11.7422 25.3932 11.6641 25.4453 11.5859C25.6016 11.2995 25.6927 11.0521 25.7188 10.8437C25.7448 10.5573 25.7057 10.349 25.6016 10.2187C25.4974 10.0625 25.3932 9.91927 25.2891 9.78906C25.237 9.68489 25.1849 9.59375 25.1328 9.51562C25.0807 9.41145 25.0286 9.33333 24.9766 9.28125C24.9505 9.07291 24.9245 8.86458 24.8984 8.65625C24.8984 8.42187 24.8464 8.21354 24.7422 8.03125C24.5339 7.875 24.2344 7.73177 23.8438 7.60156C23.4792 7.47135 23.1276 7.44531 22.7891 7.52343C22.4505 7.6276 22.125 7.66666 21.8125 7.64062C21.526 7.61458 21.2005 7.58854 20.8359 7.5625C20.7578 7.5625 20.6797 7.57552 20.6016 7.60156C20.5495 7.6276 20.4844 7.64062 20.4062 7.64062C20.1458 7.6927 19.8724 7.70573 19.5859 7.67968C19.3255 7.65364 19.0651 7.6276 18.8047 7.60156C18.5964 7.67968 18.375 7.71875 18.1406 7.71875C17.9062 7.6927 17.6589 7.67968 17.3984 7.67968C17.1641 7.65364 16.9297 7.65364 16.6953 7.67968C16.4609 7.70573 16.2656 7.79687 16.1094 7.95312C16.0312 8.13541 16.0052 8.36979 16.0312 8.65625C16.0833 8.91666 16.0833 9.17708 16.0312 9.4375C15.901 9.51562 15.7969 9.60677 15.7188 9.71093C15.6406 9.78906 15.5885 9.90625 15.5625 10.0625C15.6667 10.401 15.875 10.6484 16.1875 10.8047C16.2396 10.987 16.2526 11.1823 16.2266 11.3906C16.2266 11.5729 16.2135 11.7682 16.1875 11.9766C16.1875 12.3932 16.2135 12.8359 16.2656 13.3047C16.3438 13.7474 16.3698 14.1771 16.3438 14.5937C16.3177 14.8021 16.2917 15.0234 16.2656 15.2578C16.2396 15.4661 16.3047 15.6354 16.4609 15.7656C16.7214 15.8177 16.9557 15.8437 17.1641 15.8437C17.3984 15.8177 17.6328 15.8047 17.8672 15.8047C18.1276 15.8568 18.349 15.8828 18.5312 15.8828C18.6354 15.8568 18.7396 15.8307 18.8438 15.8047C18.9479 15.7526 19.0651 15.7135 19.1953 15.6875C19.3516 15.6875 19.4948 15.7005 19.625 15.7266C19.7812 15.7266 19.9505 15.7266 20.1328 15.7266C20.4193 15.7005 20.7188 15.6745 21.0312 15.6484C21.3438 15.5964 21.6693 15.6224 22.0078 15.7266C22.2161 15.6745 22.3854 15.6615 22.5156 15.6875C22.6719 15.7135 22.8411 15.7005 23.0234 15.6484C23.4922 15.5182 23.8568 15.349 24.1172 15.1406L24.4297 14.9453ZM27.2031 16.7422C27.3333 16.4557 27.4245 16.1432 27.4766 15.8047C27.5286 15.4661 27.5547 15.1146 27.5547 14.75C27.5026 14.6719 27.4505 14.6068 27.3984 14.5547C27.3464 14.4766 27.2943 14.4115 27.2422 14.3594C27.112 14.6458 26.9688 14.9323 26.8125 15.2187C26.6823 15.5052 26.513 15.7526 26.3047 15.9609C26.2005 16.0911 26.0703 16.1693 25.9141 16.1953C25.7839 16.2214 25.6536 16.2995 25.5234 16.4297C25.2109 16.5859 25.0026 16.7161 24.8984 16.8203C24.7943 16.9245 24.7292 17.0677 24.7031 17.25C24.9115 17.3802 25.0807 17.5234 25.2109 17.6797C25.3411 17.8359 25.5365 17.888 25.7969 17.8359C26.0833 17.7839 26.3568 17.6406 26.6172 17.4062C26.8776 17.1458 27.0729 16.9245 27.2031 16.7422ZM27.6328 12.875C27.737 12.849 27.8151 12.7708 27.8672 12.6406C27.9453 12.5104 27.9714 12.3672 27.9453 12.2109C27.9453 12.0547 27.9062 11.9245 27.8281 11.8203C27.776 11.7161 27.6719 11.6641 27.5156 11.6641C27.4635 11.7161 27.3724 11.7943 27.2422 11.8984C27.138 12.0026 27.0599 12.1198 27.0078 12.25C26.9557 12.3802 26.9427 12.5104 26.9688 12.6406C27.0208 12.7708 27.125 12.849 27.2812 12.875H27.6328ZM37.9062 5.41406C37.8542 4.94531 37.7109 4.56771 37.4766 4.28125C37.2682 3.96875 37.0208 3.66927 36.7344 3.38281C36.7344 3.2526 36.6953 3.13541 36.6172 3.03125C36.5651 2.90104 36.6172 2.80989 36.7734 2.75781C37.1641 2.70573 37.4896 2.80989 37.75 3.07031C38.0365 3.33073 38.2839 3.61718 38.4922 3.92968C38.5443 4.05989 38.5703 4.15104 38.5703 4.20312C38.5964 4.2552 38.6354 4.34635 38.6875 4.47656C38.7396 4.52864 38.7786 4.61979 38.8047 4.75C38.8307 4.85416 38.8177 4.97135 38.7656 5.10156C38.7396 5.17968 38.6615 5.28385 38.5312 5.41406C38.4271 5.51823 38.3359 5.57031 38.2578 5.57031L37.9062 5.41406ZM19.1562 8.53906C19.1042 8.8776 18.9349 9.07291 18.6484 9.125C18.362 9.17708 18.1536 9.29427 18.0234 9.47656C17.9193 10.0755 17.763 10.5443 17.5547 10.8828C17.2161 10.7526 17.0208 10.5573 16.9688 10.2969C16.9427 10.0104 16.9557 9.73698 17.0078 9.47656C17.0859 9.1901 17.2031 8.95573 17.3594 8.77343C17.5156 8.5651 17.724 8.46093 17.9844 8.46093C18.2708 8.51302 18.5052 8.51302 18.6875 8.46093C18.8698 8.38281 19.026 8.40885 19.1562 8.53906ZM39.3516 15.375C39.3516 15.5052 39.3385 15.6094 39.3125 15.6875C39.2865 15.7656 39.2604 15.8568 39.2344 15.9609C39.2344 16.0391 39.2344 16.1172 39.2344 16.1953C39.2604 16.2474 39.2734 16.3125 39.2734 16.3906C39.2474 16.5729 39.2083 16.7552 39.1562 16.9375C39.1042 17.0937 39.0521 17.25 39 17.4062C38.974 17.849 38.8698 18.2396 38.6875 18.5781C38.5052 18.9167 38.3099 19.2422 38.1016 19.5547C38.0234 19.5807 37.9453 19.6458 37.8672 19.75C37.8151 19.8281 37.737 19.9062 37.6328 19.9844C37.5286 20.0365 37.4245 20.1016 37.3203 20.1797C37.2161 20.2318 37.125 20.2969 37.0469 20.375C36.9948 20.4271 36.9427 20.4922 36.8906 20.5703C36.8646 20.6224 36.8255 20.6745 36.7734 20.7266C36.6953 20.7786 36.5781 20.8437 36.4219 20.9219C36.2917 20.974 36.2005 20.987 36.1484 20.9609C35.9141 20.6745 35.8359 20.4922 35.9141 20.4141C35.9922 20.3359 36.0573 20.2318 36.1094 20.1016C36.1615 19.9974 36.2005 19.9062 36.2266 19.8281C36.2526 19.724 36.2917 19.6328 36.3438 19.5547C36.6302 19.4505 36.8906 19.3333 37.125 19.2031C37.3594 19.0469 37.5938 18.9036 37.8281 18.7734C37.9323 18.5651 38.0495 18.3437 38.1797 18.1094C38.3099 17.875 38.388 17.6146 38.4141 17.3281C38.4401 17.276 38.4401 17.2109 38.4141 17.1328C38.4141 17.0286 38.4141 16.9375 38.4141 16.8594C38.4661 16.651 38.5182 16.4297 38.5703 16.1953C38.6224 15.9349 38.6615 15.7135 38.6875 15.5312C38.7135 15.375 38.7135 15.2187 38.6875 15.0625C38.6615 14.9062 38.6484 14.75 38.6484 14.5937C38.6484 14.3333 38.6745 14.0859 38.7266 13.8516C38.7786 13.6172 38.8307 13.3698 38.8828 13.1094C39.0911 13.1094 39.1953 13.1745 39.1953 13.3047C39.2214 13.4089 39.2474 13.5651 39.2734 13.7734C39.3255 14.0339 39.3516 14.2943 39.3516 14.5547C39.3516 14.7891 39.3516 15.0625 39.3516 15.375ZM18.5312 22.3672C18.6615 22.3672 18.8047 22.3672 18.9609 22.3672C19.1432 22.3411 19.2865 22.3411 19.3906 22.3672C19.5208 22.3932 19.612 22.4453 19.6641 22.5234C19.7161 22.5755 19.7031 22.6797 19.625 22.8359C19.4948 22.8099 19.3516 22.8229 19.1953 22.875C19.0651 22.9271 18.9349 22.9531 18.8047 22.9531C18.4661 22.901 18.2448 22.9141 18.1406 22.9922C18.0625 23.0443 17.9583 23.0833 17.8281 23.1094C17.8021 23.4219 17.776 23.7474 17.75 24.0859C17.724 24.3984 17.5677 24.5937 17.2812 24.6719C17.0729 24.5417 16.9688 24.3203 16.9688 24.0078C16.9688 23.6953 16.9688 23.4349 16.9688 23.2266C16.9948 22.862 17.125 22.6146 17.3594 22.4844C17.5938 22.3281 17.8932 22.263 18.2578 22.2891L18.5312 22.3672ZM2.4375 30.6875C2.72396 30.8958 2.9974 31.1172 3.25781 31.3516C3.51823 31.5859 3.83073 31.7812 4.19531 31.9375C3.98698 32.0937 3.80469 32.1979 3.64844 32.25C3.51823 32.3021 3.375 32.3151 3.21875 32.2891C2.98438 32.2891 2.76302 32.224 2.55469 32.0937C2.34635 31.9896 2.20312 31.8594 2.125 31.7031C2.02083 31.3906 1.91667 31.1693 1.8125 31.0391C1.73438 30.9349 1.69531 30.7656 1.69531 30.5312C1.69531 30.375 1.72135 30.1927 1.77344 29.9844C1.85156 29.75 1.90365 29.5286 1.92969 29.3203C1.95573 29.0339 1.94271 28.7734 1.89062 28.5391C1.86458 28.2786 1.91667 28.0573 2.04688 27.875C2.22917 27.849 2.39844 27.9141 2.55469 28.0703C2.6849 28.2526 2.71094 28.474 2.63281 28.7344C2.58073 28.9948 2.54167 29.2422 2.51562 29.4766C2.35938 29.6068 2.29427 29.7891 2.32031 30.0234C2.34635 30.2578 2.38542 30.4792 2.4375 30.6875ZM38.4141 30.8828C38.4401 30.987 38.4661 31.0781 38.4922 31.1562C38.5443 31.2344 38.5443 31.3385 38.4922 31.4687C38.4401 31.599 38.3099 31.7161 38.1016 31.8203C37.9193 31.9505 37.75 32.0286 37.5938 32.0547C37.4896 32.0807 37.3984 32.0807 37.3203 32.0547C37.2422 32.0547 37.1641 32.0677 37.0859 32.0937C36.7474 32.1719 36.474 32.25 36.2656 32.3281C36.0573 32.4323 35.7708 32.5104 35.4062 32.5625C35.25 32.5885 35.0938 32.5885 34.9375 32.5625C34.8073 32.5365 34.625 32.4974 34.3906 32.4453L33.9609 32.2891C33.9349 32.4974 33.8307 32.6536 33.6484 32.7578C33.4922 32.888 33.2969 32.901 33.0625 32.7969C32.8802 32.5885 32.8411 32.3542 32.9453 32.0937C33.0755 31.8333 33.3229 31.7812 33.6875 31.9375C33.8438 31.8854 34 31.8594 34.1562 31.8594C34.3125 31.8594 34.4818 31.8333 34.6641 31.7812C34.9766 31.7031 35.1719 31.6641 35.25 31.6641C35.3281 31.6901 35.4062 31.6901 35.4844 31.6641C35.7448 31.638 35.888 31.638 35.9141 31.6641C35.9661 31.6901 36.0182 31.7031 36.0703 31.7031C36.4349 31.5729 36.6953 31.4948 36.8516 31.4687C37.0078 31.4427 37.151 31.3906 37.2812 31.3125C37.3333 31.1562 37.3854 31.026 37.4375 30.9219C37.5156 30.8177 37.5677 30.6745 37.5938 30.4922C37.5938 30.2578 37.5417 30.0234 37.4375 29.7891C37.3594 29.5547 37.3724 29.3333 37.4766 29.125C37.6849 29.0208 37.8151 29.0859 37.8672 29.3203C37.9453 29.5286 38.0234 29.75 38.1016 29.9844C38.2578 30.1927 38.362 30.375 38.4141 30.5312V30.8828ZM17.0859 30.2187C17.0599 30.0104 17.125 29.9193 17.2812 29.9453C17.4635 29.9453 17.5807 29.9974 17.6328 30.1016C17.6328 30.4661 17.5286 30.7526 17.3203 30.9609C17.138 31.1693 16.9036 31.3255 16.6172 31.4297C16.3568 31.4557 16.1875 31.4948 16.1094 31.5469C16.0312 31.625 15.9661 31.6641 15.9141 31.6641C15.8359 31.6641 15.7708 31.625 15.7188 31.5469C15.6667 31.4948 15.6146 31.4427 15.5625 31.3906C15.7448 31.026 15.9271 30.7786 16.1094 30.6484C16.2396 30.5443 16.3958 30.4792 16.5781 30.4531C16.7865 30.4271 16.9557 30.349 17.0859 30.2187ZM7.94531 30.5703C7.73698 30.5443 7.5026 30.5443 7.24219 30.5703C6.98177 30.5703 6.70833 30.5573 6.42188 30.5312C6.89062 30.8437 7.42448 30.9219 8.02344 30.7656L7.94531 30.5703Z" fill="white"/>
<path d="M47.7805 12.7471V15.3218H43.3667V12.7471H47.7805ZM43.3667 16.6092H47.7805V31H43.3667V16.6092Z" fill="white"/>
<path d="M59.1996 14.7701C57.9736 14.7701 57.3605 15.1992 57.3605 16.0575V16.6092H59.7973V19.1839H57.3605V31H52.9008V19.1839H50.6019V16.6092H52.9008V15.6437C52.9008 14.6015 53.4218 13.7739 54.464 13.1609C55.5368 12.5172 56.8241 12.1954 58.3261 12.1954H61.9582V14.7701H59.1996Z" fill="white"/>
<path d="M71.8949 14.7701C70.6689 14.7701 70.0559 15.1992 70.0559 16.0575V16.6092H72.4926V19.1839H70.0559V31H65.5961V19.1839H63.2972V16.6092H65.5961V15.6437C65.5961 14.6015 66.1172 13.7739 67.1593 13.1609C68.2321 12.5172 69.5195 12.1954 71.0214 12.1954H74.6536V14.7701H71.8949Z" fill="white"/>
<path d="M81.4909 33.16C82.7443 33.16 84.0376 33.0133 85.3709 32.72C86.7309 32.4267 87.9309 31.9467 88.9709 31.28C90.0376 30.6133 90.5709 29.8533 90.5709 29C90.5709 28.8667 90.5576 28.7467 90.5309 28.64C90.3976 27.76 89.7576 27.0267 88.6109 26.44C87.4643 25.8533 86.1309 25.36 84.6109 24.96C83.1176 24.5333 81.6243 24.0667 80.1309 23.56C78.6643 23.0533 77.4109 22.2933 76.3709 21.28C75.3576 20.2667 74.8509 19 74.8509 17.48C74.8509 15.5333 75.3843 13.7333 76.4509 12.08C77.5443 10.4 78.9443 9.01333 80.6509 7.92C82.3843 6.8 84.2109 5.88 86.1309 5.16C88.0776 4.44 90.0243 3.96 91.9709 3.72C93.1176 3.56 94.1976 3.48 95.2109 3.48C99.7709 3.48 102.051 4.98666 102.051 7.99999C102.051 9.57333 101.304 11.0933 99.8109 12.56C98.3176 14.0267 96.5709 14.76 94.5709 14.76C94.3843 14.76 94.2376 14.7333 94.1309 14.68C94.0509 14.6 94.0109 14.52 94.0109 14.44C94.0109 14.3867 94.0243 14.3333 94.0509 14.28C94.0776 14.2 94.1176 14.1467 94.1709 14.12C94.2509 14.0667 94.3309 14.0267 94.4109 14C94.4909 13.9733 94.5843 13.96 94.6909 13.96C96.0509 13.96 97.3443 13.4533 98.5709 12.44C99.7976 11.4 100.411 10.12 100.411 8.6C100.411 7.82666 100.238 7.17333 99.8909 6.64C99.5709 6.07999 99.1176 5.65333 98.5309 5.36C97.9443 5.03999 97.3043 4.81333 96.6109 4.67999C95.9443 4.54666 95.2109 4.47999 94.4109 4.47999C94.0109 4.47999 93.6109 4.49333 93.2109 4.51999C92.8376 4.54666 92.4643 4.58666 92.0909 4.64C89.5576 4.96 87.1709 5.61333 84.9309 6.6C82.7176 7.56 80.8509 8.92 79.3309 10.68C77.8109 12.4133 77.0509 14.3467 77.0509 16.48C77.0509 17.76 77.4109 18.8667 78.1309 19.8C78.8509 20.7067 79.7443 21.3733 80.8109 21.8C81.9043 22.2267 83.0909 22.64 84.3709 23.04C85.6509 23.44 86.8509 23.7733 87.9709 24.04C89.1176 24.3067 90.1043 24.72 90.9309 25.28C91.7576 25.84 92.2376 26.52 92.3709 27.32L92.4109 27.8C92.4109 28.8933 91.8109 29.96 90.6109 31C89.4376 32.04 87.8909 32.88 85.9709 33.52C84.0509 34.1867 82.0776 34.52 80.0509 34.52C77.3309 34.52 75.9709 33.5333 75.9709 31.56C75.9709 30.4933 76.3309 29.96 77.0509 29.96C77.1309 29.96 77.1976 30.0533 77.2509 30.24C77.3043 30.4 77.3709 30.6267 77.4509 30.92C77.5309 31.1867 77.6243 31.4133 77.7309 31.6C77.9176 31.92 78.1309 32.1867 78.3709 32.4C78.6376 32.6133 78.9309 32.7733 79.2509 32.88C79.5709 32.9867 79.9043 33.0533 80.2509 33.08C80.6243 33.1333 81.0376 33.16 81.4909 33.16Z" fill="white"/>
<path d="M101.517 27.1379C101.517 27.9962 102.13 28.4253 103.356 28.4253H104.506V31H102.483C100.123 31 98.4676 30.341 97.5174 29.023C97.2109 28.5939 97.0576 28.1034 97.0576 27.5517V19.1839H94.391V16.6092H97.0576V13.3448H101.517V16.6092H104.322V19.1839H101.517V27.1379Z" fill="white"/>
<path d="M114.471 28.4253C115.697 28.4253 116.31 27.9962 116.31 27.1379V20.4253C116.31 19.567 115.697 19.1379 114.471 19.1379H113.137C111.881 19.1379 111.252 19.567 111.252 20.4253V27.1379C111.252 27.9962 111.881 28.4253 113.137 28.4253H114.471ZM106.838 20.0115C106.838 18.9693 107.36 18.1418 108.402 17.5287C109.474 16.8851 110.762 16.5632 112.264 16.5632H115.344C116.815 16.5632 118.057 16.8697 119.068 17.4828C120.172 18.0958 120.724 18.9387 120.724 20.0115V27.5517C120.724 28.6245 120.172 29.4674 119.068 30.0805C118.057 30.6935 116.815 31 115.344 31H112.264C109.904 31 108.248 30.341 107.298 29.023C106.992 28.5939 106.838 28.1034 106.838 27.5517V20.0115Z" fill="white"/>
<path d="M128.44 17.7126C129.175 16.977 130.279 16.6092 131.75 16.6092H132.532V19.1839H131.382C130.126 19.1839 129.237 19.567 128.716 20.3333C128.532 20.5785 128.44 20.8544 128.44 21.1609V31H124.026V16.6092H128.44V17.7126Z" fill="white"/>
<path d="M140.911 19.1379C139.654 19.1379 139.026 19.567 139.026 20.4253V21.7586H144.083V20.4253C144.083 19.567 143.47 19.1379 142.244 19.1379H140.911ZM142.244 28.4253C143.47 28.4253 144.083 27.9962 144.083 27.1379V26.2184H148.497V27.5517C148.497 28.6245 147.945 29.4674 146.842 30.0805C145.83 30.6935 144.589 31 143.118 31H140.037C137.677 31 136.022 30.341 135.072 29.023C134.765 28.5939 134.612 28.1034 134.612 27.5517V20.0115C134.612 18.9693 135.133 18.1418 136.175 17.5287C137.248 16.8851 138.535 16.5632 140.037 16.5632H143.118C144.589 16.5632 145.83 16.8697 146.842 17.4828C147.945 18.0958 148.497 18.9387 148.497 20.0115V24.3333H139.026V27.1379C139.026 27.9962 139.654 28.4253 140.911 28.4253H142.244Z" fill="white"/>
</svg>
