<svg width="143" height="45" viewBox="0 0 143 45" fill="none" xmlns="http://www.w3.org/2000/svg">
<g filter="url(#filter0_d_1_4)">
<mask id="path-1-outside-1_1_4" maskUnits="userSpaceOnUse" x="3.52344" y="0.289062" width="135" height="37" fill="black">
<rect fill="white" x="3.52344" y="0.289062" width="135" height="37"/>
<path d="M28.3555 25.7617C28.0039 26.2435 27.5872 26.7643 27.1055 27.3242C26.6237 27.8711 26.0964 28.3854 25.5234 28.8672C24.9505 29.3359 24.3385 29.7266 23.6875 30.0391C23.0495 30.3646 22.3919 30.5273 21.7148 30.5273C21.2591 30.5273 20.8359 30.4557 20.4453 30.3125C20.0547 30.1823 19.6901 30 19.3516 29.7656C19.026 29.5312 18.7135 29.2643 18.4141 28.9648C18.1276 28.6523 17.8542 28.3333 17.5938 28.0078C16.7344 26.9401 15.8945 25.8659 15.0742 24.7852C14.2669 23.7044 13.4792 22.6042 12.7109 21.4844L12.9258 20.6836C13.7721 20.5404 14.625 20.3255 15.4844 20.0391C16.3568 19.7396 17.1901 19.375 17.9844 18.9453C18.7786 18.5026 19.5208 17.9948 20.2109 17.4219C20.901 16.8359 21.5 16.1914 22.0078 15.4883C22.5156 14.7721 22.9128 13.9974 23.1992 13.1641C23.4987 12.3177 23.6484 11.4128 23.6484 10.4492C23.6484 9.52474 23.4987 8.67188 23.1992 7.89062C22.8997 7.10938 22.4766 6.43229 21.9297 5.85938C21.3958 5.28646 20.7513 4.84375 19.9961 4.53125C19.2409 4.20573 18.401 4.04297 17.4766 4.04297C16.3047 4.04297 15.2044 4.17318 14.1758 4.43359C13.1602 4.69401 12.1901 5.04557 11.2656 5.48828C10.3542 5.91797 9.47526 6.41276 8.62891 6.97266C7.78255 7.53255 6.94922 8.11198 6.12891 8.71094L5.52344 8.04688C6.30469 7.29167 7.14453 6.53646 8.04297 5.78125C8.95443 5.01302 9.97656 4.32292 11.1094 3.71094C12.2422 3.09896 13.5052 2.60417 14.8984 2.22656C16.3047 1.83594 17.8867 1.64062 19.6445 1.64062C20.8294 1.64062 21.9167 1.84896 22.9062 2.26562C23.9089 2.68229 24.7682 3.26172 25.4844 4.00391C26.2005 4.74609 26.7604 5.625 27.1641 6.64062C27.5677 7.65625 27.7695 8.76302 27.7695 9.96094C27.7695 11.8229 27.3008 13.444 26.3633 14.8242C25.4258 16.1914 24.1562 17.3047 22.5547 18.1641C22.3594 18.2682 22.112 18.4049 21.8125 18.5742C21.526 18.7435 21.207 18.9258 20.8555 19.1211C20.5169 19.3164 20.1654 19.5117 19.8008 19.707C19.4362 19.9023 19.0846 20.0846 18.7461 20.2539C18.4076 20.4102 18.0951 20.5469 17.8086 20.6641C17.5221 20.7812 17.2812 20.8529 17.0859 20.8789C17.3594 21.2435 17.6914 21.6797 18.082 22.1875C18.4857 22.6953 18.9023 23.2161 19.332 23.75C19.7617 24.2839 20.1849 24.7917 20.6016 25.2734C21.0312 25.7552 21.4154 26.1458 21.7539 26.4453C22.0794 26.7188 22.4049 26.9596 22.7305 27.168C23.069 27.3763 23.4661 27.4805 23.9219 27.4805C24.2734 27.4805 24.625 27.4089 24.9766 27.2656C25.3281 27.1094 25.6667 26.9141 25.9922 26.6797C26.3177 26.4453 26.6237 26.1914 26.9102 25.918C27.1966 25.6445 27.4505 25.3906 27.6719 25.1562L28.3555 25.7617ZM11.832 29.1211L7.80859 30.6055V8.71094L11.832 7.28516V29.1211Z"/>
<path d="M35.4258 4.51172L34.3906 11.6406L32.4766 12.2461L31.3047 5.91797L35.4258 4.51172ZM38.1211 27.7148C37.8216 28.3529 37.4701 28.8411 37.0664 29.1797C36.6758 29.5182 36.2982 29.7656 35.9336 29.9219C35.5039 30.1042 35.0677 30.2083 34.625 30.2344C34.0521 30.2344 33.5768 30.1432 33.1992 29.9609C32.8216 29.7786 32.5221 29.5378 32.3008 29.2383C32.0794 28.9388 31.9232 28.6003 31.832 28.2227C31.7539 27.8451 31.7148 27.4609 31.7148 27.0703V16.1133L35.3086 14.8828V27.168C35.3086 27.4805 35.3802 27.7279 35.5234 27.9102C35.6667 28.0924 35.849 28.1901 36.0703 28.2031C36.3047 28.2031 36.5521 28.1185 36.8125 27.9492C37.0859 27.7799 37.3464 27.5065 37.5938 27.1289L38.1211 27.7148Z"/>
<path d="M52.5352 3.76953L50.0938 5.35156C49.8724 4.7526 49.5339 4.23828 49.0781 3.80859C48.6354 3.37891 48.069 3.16406 47.3789 3.16406C46.819 3.16406 46.3698 3.29427 46.0312 3.55469C45.6927 3.80208 45.4323 4.1276 45.25 4.53125C45.0807 4.92188 44.9635 5.35807 44.8984 5.83984C44.8464 6.30859 44.8203 6.76432 44.8203 7.20703V14.8828H49.9375L49.0977 16.8359H44.8203V33.9648L41.207 35.4883V16.8359H39.2539L40.0938 14.8828H41.207V10.7227C41.207 9.65495 41.3242 8.58724 41.5586 7.51953C41.793 6.4388 42.1836 5.46875 42.7305 4.60938C43.2773 3.75 43.9935 3.05339 44.8789 2.51953C45.7643 1.98568 46.8516 1.71875 48.1406 1.71875C48.5312 1.71875 48.9284 1.76432 49.332 1.85547C49.7487 1.94661 50.1523 2.08333 50.543 2.26562C50.9336 2.4349 51.2982 2.64974 51.6367 2.91016C51.9883 3.15755 52.2878 3.44401 52.5352 3.76953Z"/>
<path d="M63.7461 3.76953L61.3047 5.35156C61.0833 4.7526 60.7448 4.23828 60.2891 3.80859C59.8464 3.37891 59.2799 3.16406 58.5898 3.16406C58.0299 3.16406 57.5807 3.29427 57.2422 3.55469C56.9036 3.80208 56.6432 4.1276 56.4609 4.53125C56.2917 4.92188 56.1745 5.35807 56.1094 5.83984C56.0573 6.30859 56.0312 6.76432 56.0312 7.20703V14.8828H61.1484L60.3086 16.8359H56.0312V33.9648L52.418 35.4883V16.8359H50.4648L51.3047 14.8828H52.418V10.7227C52.418 9.65495 52.5352 8.58724 52.7695 7.51953C53.0039 6.4388 53.3945 5.46875 53.9414 4.60938C54.4883 3.75 55.2044 3.05339 56.0898 2.51953C56.9753 1.98568 58.0625 1.71875 59.3516 1.71875C59.7422 1.71875 60.1393 1.76432 60.543 1.85547C60.9596 1.94661 61.3633 2.08333 61.7539 2.26562C62.1445 2.4349 62.5091 2.64974 62.8477 2.91016C63.1992 3.15755 63.4987 3.44401 63.7461 3.76953Z"/>
<path d="M81.6758 5.91797L78.3945 9.88281C78.1081 9.02344 77.737 8.20312 77.2812 7.42188C76.8255 6.64062 76.2852 5.95703 75.6602 5.37109C75.0352 4.78516 74.3255 4.31641 73.5312 3.96484C72.737 3.61328 71.8516 3.4375 70.875 3.4375C70.1719 3.4375 69.5208 3.56771 68.9219 3.82812C68.3229 4.07552 67.7956 4.42708 67.3398 4.88281C66.8971 5.32552 66.5456 5.85286 66.2852 6.46484C66.0378 7.07682 65.9141 7.73438 65.9141 8.4375C65.9141 9.16667 66.0508 9.85026 66.3242 10.4883C66.5977 11.1263 66.9622 11.7057 67.418 12.2266C67.8737 12.7344 68.3945 13.1771 68.9805 13.5547C69.5794 13.9323 70.1979 14.2253 70.8359 14.4336C71.474 14.6549 72.1445 14.9023 72.8477 15.1758C73.5508 15.4492 74.2409 15.7682 74.918 16.1328C75.5951 16.4974 76.2396 16.9076 76.8516 17.3633C77.4635 17.806 78.0039 18.3073 78.4727 18.8672C78.9414 19.4271 79.3125 20.0521 79.5859 20.7422C79.8594 21.4193 79.9961 22.1615 79.9961 22.9688C79.9961 24.1406 79.7357 25.1953 79.2148 26.1328C78.707 27.0573 78.0365 27.8385 77.2031 28.4766C76.3698 29.1146 75.4128 29.6029 74.332 29.9414C73.2643 30.2799 72.1771 30.4492 71.0703 30.4492C70.3151 30.4492 69.5469 30.3385 68.7656 30.1172C67.9974 29.8958 67.2552 29.5964 66.5391 29.2188C65.8359 28.8281 65.1719 28.3789 64.5469 27.8711C63.9349 27.3633 63.401 26.8164 62.9453 26.2305L66.1094 22.5977C66.3047 23.2227 66.6432 23.8867 67.125 24.5898C67.6198 25.293 68.1927 25.944 68.8438 26.543C69.4948 27.1419 70.1914 27.6432 70.9336 28.0469C71.6888 28.4375 72.418 28.6328 73.1211 28.6328C73.5247 28.6328 73.9414 28.5286 74.3711 28.3203C74.8008 28.112 75.1914 27.8451 75.543 27.5195C75.9076 27.181 76.207 26.8164 76.4414 26.4258C76.6758 26.0352 76.793 25.651 76.793 25.2734C76.793 24.7005 76.6758 24.1602 76.4414 23.6523C76.207 23.1315 75.8945 22.6432 75.5039 22.1875C75.1263 21.7318 74.6836 21.3151 74.1758 20.9375C73.681 20.5469 73.1602 20.2018 72.6133 19.9023C72.0794 19.5898 71.5391 19.3229 70.9922 19.1016C70.4583 18.8672 69.9635 18.6849 69.5078 18.5547C68.6094 18.2812 67.7305 17.8906 66.8711 17.3828C66.0247 16.875 65.2695 16.263 64.6055 15.5469C63.9414 14.8307 63.4076 14.0299 63.0039 13.1445C62.6003 12.2461 62.3984 11.2891 62.3984 10.2734C62.3984 9.40104 62.5352 8.57422 62.8086 7.79297C63.082 7.01172 63.4596 6.28906 63.9414 5.625C64.4232 4.96094 64.9896 4.36198 65.6406 3.82812C66.2917 3.28125 66.9948 2.82552 67.75 2.46094C68.5052 2.08333 69.293 1.79688 70.1133 1.60156C70.9336 1.39323 71.7604 1.28906 72.5938 1.28906C74.4167 1.28906 76.1094 1.69922 77.6719 2.51953C79.2344 3.32682 80.569 4.45964 81.6758 5.91797Z"/>
<path d="M90.6211 27.7148C90.3216 28.3529 89.9766 28.8411 89.5859 29.1797C89.1953 29.5182 88.8112 29.7656 88.4336 29.9219C88.0039 30.1042 87.5612 30.2083 87.1055 30.2344C86.5195 30.2344 86.0378 30.1432 85.6602 29.9609C85.2956 29.7786 85.0026 29.5378 84.7812 29.2383C84.5729 28.9388 84.4232 28.6003 84.332 28.2227C84.2539 27.8451 84.2148 27.4609 84.2148 27.0703V16.8359H82.1445L82.9844 14.8828H84.2148V7.96875L87.7891 6.71875V14.8828H91.5L90.6992 16.8359H87.7891V27.168C87.7891 27.4805 87.8607 27.7279 88.0039 27.9102C88.1471 28.0924 88.3294 28.1901 88.5508 28.2031C88.7721 28.2031 89.0195 28.1185 89.293 27.9492C89.5664 27.7799 89.8333 27.5065 90.0938 27.1289L90.6211 27.7148Z"/>
<path d="M99.8203 30.4492C98.8568 30.4492 97.9518 30.2799 97.1055 29.9414C96.2721 29.5898 95.543 29.1081 94.918 28.4961C94.306 27.8841 93.8177 27.168 93.4531 26.3477C93.1016 25.5143 92.9258 24.6094 92.9258 23.6328C92.9258 22.526 93.1081 21.4909 93.4727 20.5273C93.8372 19.5508 94.3385 18.6719 94.9766 17.8906C95.6276 17.1094 96.3893 16.4323 97.2617 15.8594C98.1471 15.2865 99.1042 14.8372 100.133 14.5117L100.699 15.1953C100.113 15.625 99.5664 16.1198 99.0586 16.6797C98.5508 17.2266 98.1081 17.8255 97.7305 18.4766C97.3529 19.1146 97.0534 19.7917 96.832 20.5078C96.6107 21.2109 96.5 21.9336 96.5 22.6758C96.5 23.3008 96.5911 23.9583 96.7734 24.6484C96.9557 25.3385 97.2292 25.9701 97.5938 26.543C97.9583 27.1159 98.4141 27.5911 98.9609 27.9688C99.5208 28.3333 100.165 28.5156 100.895 28.5156C101.546 28.5156 102.105 28.3984 102.574 28.1641C103.056 27.9297 103.453 27.6107 103.766 27.207C104.078 26.8034 104.312 26.3346 104.469 25.8008C104.625 25.2539 104.703 24.681 104.703 24.082C104.703 23.3789 104.566 22.6628 104.293 21.9336C104.02 21.1914 103.642 20.5078 103.16 19.8828C102.691 19.2578 102.138 18.737 101.5 18.3203C100.862 17.9036 100.178 17.6628 99.4492 17.5977C99.9049 17.0768 100.406 16.5951 100.953 16.1523C101.5 15.7096 102.053 15.2865 102.613 14.8828C103.368 15.1302 104.033 15.4948 104.605 15.9766C105.191 16.4583 105.68 17.0117 106.07 17.6367C106.474 18.2617 106.78 18.9453 106.988 19.6875C107.197 20.4167 107.301 21.1589 107.301 21.9141C107.301 22.9427 107.118 23.9648 106.754 24.9805C106.402 25.9961 105.895 26.9141 105.23 27.7344C104.579 28.5417 103.792 29.1992 102.867 29.707C101.956 30.2018 100.94 30.4492 99.8203 30.4492Z"/>
<path d="M121.207 27.8711C120.973 28.2357 120.686 28.5677 120.348 28.8672C120.009 29.1536 119.638 29.401 119.234 29.6094C118.831 29.8177 118.408 29.9805 117.965 30.0977C117.522 30.2148 117.086 30.2734 116.656 30.2734C116.083 30.2734 115.589 30.1693 115.172 29.9609C114.768 29.7396 114.436 29.4531 114.176 29.1016C113.915 28.75 113.72 28.3398 113.59 27.8711C113.473 27.4023 113.414 26.9141 113.414 26.4062C113.414 25.7422 113.512 25.0326 113.707 24.2773C113.915 23.5091 114.189 22.7539 114.527 22.0117C114.879 21.2695 115.276 20.5794 115.719 19.9414C116.161 19.3034 116.63 18.776 117.125 18.3594C116.669 18.6589 116.168 18.8932 115.621 19.0625C115.087 19.2318 114.54 19.3164 113.98 19.3164C113.577 19.3164 113.225 19.2839 112.926 19.2188C112.626 19.1536 112.294 19.0299 111.93 18.8477L109.898 23.0859L109.059 22.7539L111.168 18.4375C110.947 18.2812 110.706 18.0859 110.445 17.8516C110.198 17.6042 110.016 17.3633 109.898 17.1289L112.613 14.082C112.73 14.4336 112.893 14.7917 113.102 15.1562C113.31 15.5078 113.551 15.8268 113.824 16.1133C114.111 16.3867 114.423 16.6146 114.762 16.7969C115.113 16.9792 115.491 17.0703 115.895 17.0703C116.585 17.0703 117.255 16.9466 117.906 16.6992C118.557 16.4388 119.163 16.1263 119.723 15.7617L120.25 16.2891C119.755 16.7448 119.254 17.2526 118.746 17.8125C118.251 18.3594 117.802 18.9453 117.398 19.5703C116.995 20.1953 116.669 20.8529 116.422 21.543C116.174 22.2331 116.051 22.9297 116.051 23.6328C116.051 24.0365 116.103 24.4922 116.207 25C116.324 25.4948 116.5 25.9701 116.734 26.4258C116.969 26.8685 117.262 27.2461 117.613 27.5586C117.965 27.8581 118.388 28.0078 118.883 28.0078C119.221 28.0078 119.547 27.9492 119.859 27.832C120.185 27.7018 120.478 27.5456 120.738 27.3633L121.207 27.8711Z"/>
<path d="M137.086 26.1914C136.63 26.7773 136.129 27.3242 135.582 27.832C135.048 28.3398 134.462 28.7826 133.824 29.1602C133.199 29.5378 132.535 29.8372 131.832 30.0586C131.129 30.2799 130.4 30.3906 129.645 30.3906C128.681 30.3906 127.796 30.2214 126.988 29.8828C126.181 29.5312 125.484 29.056 124.898 28.457C124.312 27.8451 123.857 27.1289 123.531 26.3086C123.206 25.4753 123.043 24.5833 123.043 23.6328C123.043 22.8516 123.154 22.0833 123.375 21.3281C123.596 20.5729 123.909 19.8633 124.312 19.1992C124.716 18.5352 125.191 17.9232 125.738 17.3633C126.298 16.7904 126.91 16.3021 127.574 15.8984C128.238 15.4948 128.941 15.1823 129.684 14.9609C130.426 14.7266 131.188 14.6094 131.969 14.6094C132.516 14.6094 133.03 14.6745 133.512 14.8047C134.007 14.9349 134.443 15.1432 134.82 15.4297C135.198 15.7031 135.497 16.0612 135.719 16.5039C135.94 16.9336 136.051 17.4479 136.051 18.0469C136.051 18.5417 135.901 19.0625 135.602 19.6094C135.315 20.1562 134.931 20.7031 134.449 21.25C133.98 21.7969 133.447 22.3372 132.848 22.8711C132.249 23.3919 131.637 23.8802 131.012 24.3359C130.4 24.7786 129.807 25.1693 129.234 25.5078C128.661 25.8464 128.16 26.1068 127.73 26.2891C128.212 26.888 128.772 27.3763 129.41 27.7539C130.048 28.1315 130.725 28.3203 131.441 28.3203C131.897 28.3203 132.359 28.2357 132.828 28.0664C133.297 27.8841 133.746 27.6562 134.176 27.3828C134.618 27.1094 135.035 26.8099 135.426 26.4844C135.829 26.1589 136.188 25.8529 136.5 25.5664L137.086 26.1914ZM132.379 18.7695C132.379 18.4701 132.327 18.1836 132.223 17.9102C132.132 17.6367 131.995 17.4023 131.812 17.207C131.63 16.9987 131.409 16.8359 131.148 16.7188C130.901 16.5885 130.615 16.5234 130.289 16.5234C129.703 16.5234 129.163 16.7318 128.668 17.1484C128.173 17.5521 127.743 18.0534 127.379 18.6523C127.027 19.2513 126.747 19.8893 126.539 20.5664C126.344 21.2305 126.246 21.8164 126.246 22.3242C126.246 22.819 126.324 23.3268 126.48 23.8477C126.637 24.3685 126.852 24.8698 127.125 25.3516C127.646 25.0651 128.212 24.668 128.824 24.1602C129.436 23.6523 130.003 23.099 130.523 22.5C131.057 21.888 131.5 21.2565 131.852 20.6055C132.203 19.9544 132.379 19.3424 132.379 18.7695Z"/>
</mask>
<path d="M28.3555 25.7617C28.0039 26.2435 27.5872 26.7643 27.1055 27.3242C26.6237 27.8711 26.0964 28.3854 25.5234 28.8672C24.9505 29.3359 24.3385 29.7266 23.6875 30.0391C23.0495 30.3646 22.3919 30.5273 21.7148 30.5273C21.2591 30.5273 20.8359 30.4557 20.4453 30.3125C20.0547 30.1823 19.6901 30 19.3516 29.7656C19.026 29.5312 18.7135 29.2643 18.4141 28.9648C18.1276 28.6523 17.8542 28.3333 17.5938 28.0078C16.7344 26.9401 15.8945 25.8659 15.0742 24.7852C14.2669 23.7044 13.4792 22.6042 12.7109 21.4844L12.9258 20.6836C13.7721 20.5404 14.625 20.3255 15.4844 20.0391C16.3568 19.7396 17.1901 19.375 17.9844 18.9453C18.7786 18.5026 19.5208 17.9948 20.2109 17.4219C20.901 16.8359 21.5 16.1914 22.0078 15.4883C22.5156 14.7721 22.9128 13.9974 23.1992 13.1641C23.4987 12.3177 23.6484 11.4128 23.6484 10.4492C23.6484 9.52474 23.4987 8.67188 23.1992 7.89062C22.8997 7.10938 22.4766 6.43229 21.9297 5.85938C21.3958 5.28646 20.7513 4.84375 19.9961 4.53125C19.2409 4.20573 18.401 4.04297 17.4766 4.04297C16.3047 4.04297 15.2044 4.17318 14.1758 4.43359C13.1602 4.69401 12.1901 5.04557 11.2656 5.48828C10.3542 5.91797 9.47526 6.41276 8.62891 6.97266C7.78255 7.53255 6.94922 8.11198 6.12891 8.71094L5.52344 8.04688C6.30469 7.29167 7.14453 6.53646 8.04297 5.78125C8.95443 5.01302 9.97656 4.32292 11.1094 3.71094C12.2422 3.09896 13.5052 2.60417 14.8984 2.22656C16.3047 1.83594 17.8867 1.64062 19.6445 1.64062C20.8294 1.64062 21.9167 1.84896 22.9062 2.26562C23.9089 2.68229 24.7682 3.26172 25.4844 4.00391C26.2005 4.74609 26.7604 5.625 27.1641 6.64062C27.5677 7.65625 27.7695 8.76302 27.7695 9.96094C27.7695 11.8229 27.3008 13.444 26.3633 14.8242C25.4258 16.1914 24.1562 17.3047 22.5547 18.1641C22.3594 18.2682 22.112 18.4049 21.8125 18.5742C21.526 18.7435 21.207 18.9258 20.8555 19.1211C20.5169 19.3164 20.1654 19.5117 19.8008 19.707C19.4362 19.9023 19.0846 20.0846 18.7461 20.2539C18.4076 20.4102 18.0951 20.5469 17.8086 20.6641C17.5221 20.7812 17.2812 20.8529 17.0859 20.8789C17.3594 21.2435 17.6914 21.6797 18.082 22.1875C18.4857 22.6953 18.9023 23.2161 19.332 23.75C19.7617 24.2839 20.1849 24.7917 20.6016 25.2734C21.0312 25.7552 21.4154 26.1458 21.7539 26.4453C22.0794 26.7188 22.4049 26.9596 22.7305 27.168C23.069 27.3763 23.4661 27.4805 23.9219 27.4805C24.2734 27.4805 24.625 27.4089 24.9766 27.2656C25.3281 27.1094 25.6667 26.9141 25.9922 26.6797C26.3177 26.4453 26.6237 26.1914 26.9102 25.918C27.1966 25.6445 27.4505 25.3906 27.6719 25.1562L28.3555 25.7617ZM11.832 29.1211L7.80859 30.6055V8.71094L11.832 7.28516V29.1211Z" fill="white"/>
<path d="M35.4258 4.51172L34.3906 11.6406L32.4766 12.2461L31.3047 5.91797L35.4258 4.51172ZM38.1211 27.7148C37.8216 28.3529 37.4701 28.8411 37.0664 29.1797C36.6758 29.5182 36.2982 29.7656 35.9336 29.9219C35.5039 30.1042 35.0677 30.2083 34.625 30.2344C34.0521 30.2344 33.5768 30.1432 33.1992 29.9609C32.8216 29.7786 32.5221 29.5378 32.3008 29.2383C32.0794 28.9388 31.9232 28.6003 31.832 28.2227C31.7539 27.8451 31.7148 27.4609 31.7148 27.0703V16.1133L35.3086 14.8828V27.168C35.3086 27.4805 35.3802 27.7279 35.5234 27.9102C35.6667 28.0924 35.849 28.1901 36.0703 28.2031C36.3047 28.2031 36.5521 28.1185 36.8125 27.9492C37.0859 27.7799 37.3464 27.5065 37.5938 27.1289L38.1211 27.7148Z" fill="white"/>
<path d="M52.5352 3.76953L50.0938 5.35156C49.8724 4.7526 49.5339 4.23828 49.0781 3.80859C48.6354 3.37891 48.069 3.16406 47.3789 3.16406C46.819 3.16406 46.3698 3.29427 46.0312 3.55469C45.6927 3.80208 45.4323 4.1276 45.25 4.53125C45.0807 4.92188 44.9635 5.35807 44.8984 5.83984C44.8464 6.30859 44.8203 6.76432 44.8203 7.20703V14.8828H49.9375L49.0977 16.8359H44.8203V33.9648L41.207 35.4883V16.8359H39.2539L40.0938 14.8828H41.207V10.7227C41.207 9.65495 41.3242 8.58724 41.5586 7.51953C41.793 6.4388 42.1836 5.46875 42.7305 4.60938C43.2773 3.75 43.9935 3.05339 44.8789 2.51953C45.7643 1.98568 46.8516 1.71875 48.1406 1.71875C48.5312 1.71875 48.9284 1.76432 49.332 1.85547C49.7487 1.94661 50.1523 2.08333 50.543 2.26562C50.9336 2.4349 51.2982 2.64974 51.6367 2.91016C51.9883 3.15755 52.2878 3.44401 52.5352 3.76953Z" fill="white"/>
<path d="M63.7461 3.76953L61.3047 5.35156C61.0833 4.7526 60.7448 4.23828 60.2891 3.80859C59.8464 3.37891 59.2799 3.16406 58.5898 3.16406C58.0299 3.16406 57.5807 3.29427 57.2422 3.55469C56.9036 3.80208 56.6432 4.1276 56.4609 4.53125C56.2917 4.92188 56.1745 5.35807 56.1094 5.83984C56.0573 6.30859 56.0312 6.76432 56.0312 7.20703V14.8828H61.1484L60.3086 16.8359H56.0312V33.9648L52.418 35.4883V16.8359H50.4648L51.3047 14.8828H52.418V10.7227C52.418 9.65495 52.5352 8.58724 52.7695 7.51953C53.0039 6.4388 53.3945 5.46875 53.9414 4.60938C54.4883 3.75 55.2044 3.05339 56.0898 2.51953C56.9753 1.98568 58.0625 1.71875 59.3516 1.71875C59.7422 1.71875 60.1393 1.76432 60.543 1.85547C60.9596 1.94661 61.3633 2.08333 61.7539 2.26562C62.1445 2.4349 62.5091 2.64974 62.8477 2.91016C63.1992 3.15755 63.4987 3.44401 63.7461 3.76953Z" fill="white"/>
<path d="M81.6758 5.91797L78.3945 9.88281C78.1081 9.02344 77.737 8.20312 77.2812 7.42188C76.8255 6.64062 76.2852 5.95703 75.6602 5.37109C75.0352 4.78516 74.3255 4.31641 73.5312 3.96484C72.737 3.61328 71.8516 3.4375 70.875 3.4375C70.1719 3.4375 69.5208 3.56771 68.9219 3.82812C68.3229 4.07552 67.7956 4.42708 67.3398 4.88281C66.8971 5.32552 66.5456 5.85286 66.2852 6.46484C66.0378 7.07682 65.9141 7.73438 65.9141 8.4375C65.9141 9.16667 66.0508 9.85026 66.3242 10.4883C66.5977 11.1263 66.9622 11.7057 67.418 12.2266C67.8737 12.7344 68.3945 13.1771 68.9805 13.5547C69.5794 13.9323 70.1979 14.2253 70.8359 14.4336C71.474 14.6549 72.1445 14.9023 72.8477 15.1758C73.5508 15.4492 74.2409 15.7682 74.918 16.1328C75.5951 16.4974 76.2396 16.9076 76.8516 17.3633C77.4635 17.806 78.0039 18.3073 78.4727 18.8672C78.9414 19.4271 79.3125 20.0521 79.5859 20.7422C79.8594 21.4193 79.9961 22.1615 79.9961 22.9688C79.9961 24.1406 79.7357 25.1953 79.2148 26.1328C78.707 27.0573 78.0365 27.8385 77.2031 28.4766C76.3698 29.1146 75.4128 29.6029 74.332 29.9414C73.2643 30.2799 72.1771 30.4492 71.0703 30.4492C70.3151 30.4492 69.5469 30.3385 68.7656 30.1172C67.9974 29.8958 67.2552 29.5964 66.5391 29.2188C65.8359 28.8281 65.1719 28.3789 64.5469 27.8711C63.9349 27.3633 63.401 26.8164 62.9453 26.2305L66.1094 22.5977C66.3047 23.2227 66.6432 23.8867 67.125 24.5898C67.6198 25.293 68.1927 25.944 68.8438 26.543C69.4948 27.1419 70.1914 27.6432 70.9336 28.0469C71.6888 28.4375 72.418 28.6328 73.1211 28.6328C73.5247 28.6328 73.9414 28.5286 74.3711 28.3203C74.8008 28.112 75.1914 27.8451 75.543 27.5195C75.9076 27.181 76.207 26.8164 76.4414 26.4258C76.6758 26.0352 76.793 25.651 76.793 25.2734C76.793 24.7005 76.6758 24.1602 76.4414 23.6523C76.207 23.1315 75.8945 22.6432 75.5039 22.1875C75.1263 21.7318 74.6836 21.3151 74.1758 20.9375C73.681 20.5469 73.1602 20.2018 72.6133 19.9023C72.0794 19.5898 71.5391 19.3229 70.9922 19.1016C70.4583 18.8672 69.9635 18.6849 69.5078 18.5547C68.6094 18.2812 67.7305 17.8906 66.8711 17.3828C66.0247 16.875 65.2695 16.263 64.6055 15.5469C63.9414 14.8307 63.4076 14.0299 63.0039 13.1445C62.6003 12.2461 62.3984 11.2891 62.3984 10.2734C62.3984 9.40104 62.5352 8.57422 62.8086 7.79297C63.082 7.01172 63.4596 6.28906 63.9414 5.625C64.4232 4.96094 64.9896 4.36198 65.6406 3.82812C66.2917 3.28125 66.9948 2.82552 67.75 2.46094C68.5052 2.08333 69.293 1.79688 70.1133 1.60156C70.9336 1.39323 71.7604 1.28906 72.5938 1.28906C74.4167 1.28906 76.1094 1.69922 77.6719 2.51953C79.2344 3.32682 80.569 4.45964 81.6758 5.91797Z" fill="white"/>
<path d="M90.6211 27.7148C90.3216 28.3529 89.9766 28.8411 89.5859 29.1797C89.1953 29.5182 88.8112 29.7656 88.4336 29.9219C88.0039 30.1042 87.5612 30.2083 87.1055 30.2344C86.5195 30.2344 86.0378 30.1432 85.6602 29.9609C85.2956 29.7786 85.0026 29.5378 84.7812 29.2383C84.5729 28.9388 84.4232 28.6003 84.332 28.2227C84.2539 27.8451 84.2148 27.4609 84.2148 27.0703V16.8359H82.1445L82.9844 14.8828H84.2148V7.96875L87.7891 6.71875V14.8828H91.5L90.6992 16.8359H87.7891V27.168C87.7891 27.4805 87.8607 27.7279 88.0039 27.9102C88.1471 28.0924 88.3294 28.1901 88.5508 28.2031C88.7721 28.2031 89.0195 28.1185 89.293 27.9492C89.5664 27.7799 89.8333 27.5065 90.0938 27.1289L90.6211 27.7148Z" fill="white"/>
<path d="M99.8203 30.4492C98.8568 30.4492 97.9518 30.2799 97.1055 29.9414C96.2721 29.5898 95.543 29.1081 94.918 28.4961C94.306 27.8841 93.8177 27.168 93.4531 26.3477C93.1016 25.5143 92.9258 24.6094 92.9258 23.6328C92.9258 22.526 93.1081 21.4909 93.4727 20.5273C93.8372 19.5508 94.3385 18.6719 94.9766 17.8906C95.6276 17.1094 96.3893 16.4323 97.2617 15.8594C98.1471 15.2865 99.1042 14.8372 100.133 14.5117L100.699 15.1953C100.113 15.625 99.5664 16.1198 99.0586 16.6797C98.5508 17.2266 98.1081 17.8255 97.7305 18.4766C97.3529 19.1146 97.0534 19.7917 96.832 20.5078C96.6107 21.2109 96.5 21.9336 96.5 22.6758C96.5 23.3008 96.5911 23.9583 96.7734 24.6484C96.9557 25.3385 97.2292 25.9701 97.5938 26.543C97.9583 27.1159 98.4141 27.5911 98.9609 27.9688C99.5208 28.3333 100.165 28.5156 100.895 28.5156C101.546 28.5156 102.105 28.3984 102.574 28.1641C103.056 27.9297 103.453 27.6107 103.766 27.207C104.078 26.8034 104.312 26.3346 104.469 25.8008C104.625 25.2539 104.703 24.681 104.703 24.082C104.703 23.3789 104.566 22.6628 104.293 21.9336C104.02 21.1914 103.642 20.5078 103.16 19.8828C102.691 19.2578 102.138 18.737 101.5 18.3203C100.862 17.9036 100.178 17.6628 99.4492 17.5977C99.9049 17.0768 100.406 16.5951 100.953 16.1523C101.5 15.7096 102.053 15.2865 102.613 14.8828C103.368 15.1302 104.033 15.4948 104.605 15.9766C105.191 16.4583 105.68 17.0117 106.07 17.6367C106.474 18.2617 106.78 18.9453 106.988 19.6875C107.197 20.4167 107.301 21.1589 107.301 21.9141C107.301 22.9427 107.118 23.9648 106.754 24.9805C106.402 25.9961 105.895 26.9141 105.23 27.7344C104.579 28.5417 103.792 29.1992 102.867 29.707C101.956 30.2018 100.94 30.4492 99.8203 30.4492Z" fill="white"/>
<path d="M121.207 27.8711C120.973 28.2357 120.686 28.5677 120.348 28.8672C120.009 29.1536 119.638 29.401 119.234 29.6094C118.831 29.8177 118.408 29.9805 117.965 30.0977C117.522 30.2148 117.086 30.2734 116.656 30.2734C116.083 30.2734 115.589 30.1693 115.172 29.9609C114.768 29.7396 114.436 29.4531 114.176 29.1016C113.915 28.75 113.72 28.3398 113.59 27.8711C113.473 27.4023 113.414 26.9141 113.414 26.4062C113.414 25.7422 113.512 25.0326 113.707 24.2773C113.915 23.5091 114.189 22.7539 114.527 22.0117C114.879 21.2695 115.276 20.5794 115.719 19.9414C116.161 19.3034 116.63 18.776 117.125 18.3594C116.669 18.6589 116.168 18.8932 115.621 19.0625C115.087 19.2318 114.54 19.3164 113.98 19.3164C113.577 19.3164 113.225 19.2839 112.926 19.2188C112.626 19.1536 112.294 19.0299 111.93 18.8477L109.898 23.0859L109.059 22.7539L111.168 18.4375C110.947 18.2812 110.706 18.0859 110.445 17.8516C110.198 17.6042 110.016 17.3633 109.898 17.1289L112.613 14.082C112.73 14.4336 112.893 14.7917 113.102 15.1562C113.31 15.5078 113.551 15.8268 113.824 16.1133C114.111 16.3867 114.423 16.6146 114.762 16.7969C115.113 16.9792 115.491 17.0703 115.895 17.0703C116.585 17.0703 117.255 16.9466 117.906 16.6992C118.557 16.4388 119.163 16.1263 119.723 15.7617L120.25 16.2891C119.755 16.7448 119.254 17.2526 118.746 17.8125C118.251 18.3594 117.802 18.9453 117.398 19.5703C116.995 20.1953 116.669 20.8529 116.422 21.543C116.174 22.2331 116.051 22.9297 116.051 23.6328C116.051 24.0365 116.103 24.4922 116.207 25C116.324 25.4948 116.5 25.9701 116.734 26.4258C116.969 26.8685 117.262 27.2461 117.613 27.5586C117.965 27.8581 118.388 28.0078 118.883 28.0078C119.221 28.0078 119.547 27.9492 119.859 27.832C120.185 27.7018 120.478 27.5456 120.738 27.3633L121.207 27.8711Z" fill="white"/>
<path d="M137.086 26.1914C136.63 26.7773 136.129 27.3242 135.582 27.832C135.048 28.3398 134.462 28.7826 133.824 29.1602C133.199 29.5378 132.535 29.8372 131.832 30.0586C131.129 30.2799 130.4 30.3906 129.645 30.3906C128.681 30.3906 127.796 30.2214 126.988 29.8828C126.181 29.5312 125.484 29.056 124.898 28.457C124.312 27.8451 123.857 27.1289 123.531 26.3086C123.206 25.4753 123.043 24.5833 123.043 23.6328C123.043 22.8516 123.154 22.0833 123.375 21.3281C123.596 20.5729 123.909 19.8633 124.312 19.1992C124.716 18.5352 125.191 17.9232 125.738 17.3633C126.298 16.7904 126.91 16.3021 127.574 15.8984C128.238 15.4948 128.941 15.1823 129.684 14.9609C130.426 14.7266 131.188 14.6094 131.969 14.6094C132.516 14.6094 133.03 14.6745 133.512 14.8047C134.007 14.9349 134.443 15.1432 134.82 15.4297C135.198 15.7031 135.497 16.0612 135.719 16.5039C135.94 16.9336 136.051 17.4479 136.051 18.0469C136.051 18.5417 135.901 19.0625 135.602 19.6094C135.315 20.1562 134.931 20.7031 134.449 21.25C133.98 21.7969 133.447 22.3372 132.848 22.8711C132.249 23.3919 131.637 23.8802 131.012 24.3359C130.4 24.7786 129.807 25.1693 129.234 25.5078C128.661 25.8464 128.16 26.1068 127.73 26.2891C128.212 26.888 128.772 27.3763 129.41 27.7539C130.048 28.1315 130.725 28.3203 131.441 28.3203C131.897 28.3203 132.359 28.2357 132.828 28.0664C133.297 27.8841 133.746 27.6562 134.176 27.3828C134.618 27.1094 135.035 26.8099 135.426 26.4844C135.829 26.1589 136.188 25.8529 136.5 25.5664L137.086 26.1914ZM132.379 18.7695C132.379 18.4701 132.327 18.1836 132.223 17.9102C132.132 17.6367 131.995 17.4023 131.812 17.207C131.63 16.9987 131.409 16.8359 131.148 16.7188C130.901 16.5885 130.615 16.5234 130.289 16.5234C129.703 16.5234 129.163 16.7318 128.668 17.1484C128.173 17.5521 127.743 18.0534 127.379 18.6523C127.027 19.2513 126.747 19.8893 126.539 20.5664C126.344 21.2305 126.246 21.8164 126.246 22.3242C126.246 22.819 126.324 23.3268 126.48 23.8477C126.637 24.3685 126.852 24.8698 127.125 25.3516C127.646 25.0651 128.212 24.668 128.824 24.1602C129.436 23.6523 130.003 23.099 130.523 22.5C131.057 21.888 131.5 21.2565 131.852 20.6055C132.203 19.9544 132.379 19.3424 132.379 18.7695Z" fill="white"/>
<path d="M28.3555 25.7617C28.0039 26.2435 27.5872 26.7643 27.1055 27.3242C26.6237 27.8711 26.0964 28.3854 25.5234 28.8672C24.9505 29.3359 24.3385 29.7266 23.6875 30.0391C23.0495 30.3646 22.3919 30.5273 21.7148 30.5273C21.2591 30.5273 20.8359 30.4557 20.4453 30.3125C20.0547 30.1823 19.6901 30 19.3516 29.7656C19.026 29.5312 18.7135 29.2643 18.4141 28.9648C18.1276 28.6523 17.8542 28.3333 17.5938 28.0078C16.7344 26.9401 15.8945 25.8659 15.0742 24.7852C14.2669 23.7044 13.4792 22.6042 12.7109 21.4844L12.9258 20.6836C13.7721 20.5404 14.625 20.3255 15.4844 20.0391C16.3568 19.7396 17.1901 19.375 17.9844 18.9453C18.7786 18.5026 19.5208 17.9948 20.2109 17.4219C20.901 16.8359 21.5 16.1914 22.0078 15.4883C22.5156 14.7721 22.9128 13.9974 23.1992 13.1641C23.4987 12.3177 23.6484 11.4128 23.6484 10.4492C23.6484 9.52474 23.4987 8.67188 23.1992 7.89062C22.8997 7.10938 22.4766 6.43229 21.9297 5.85938C21.3958 5.28646 20.7513 4.84375 19.9961 4.53125C19.2409 4.20573 18.401 4.04297 17.4766 4.04297C16.3047 4.04297 15.2044 4.17318 14.1758 4.43359C13.1602 4.69401 12.1901 5.04557 11.2656 5.48828C10.3542 5.91797 9.47526 6.41276 8.62891 6.97266C7.78255 7.53255 6.94922 8.11198 6.12891 8.71094L5.52344 8.04688C6.30469 7.29167 7.14453 6.53646 8.04297 5.78125C8.95443 5.01302 9.97656 4.32292 11.1094 3.71094C12.2422 3.09896 13.5052 2.60417 14.8984 2.22656C16.3047 1.83594 17.8867 1.64062 19.6445 1.64062C20.8294 1.64062 21.9167 1.84896 22.9062 2.26562C23.9089 2.68229 24.7682 3.26172 25.4844 4.00391C26.2005 4.74609 26.7604 5.625 27.1641 6.64062C27.5677 7.65625 27.7695 8.76302 27.7695 9.96094C27.7695 11.8229 27.3008 13.444 26.3633 14.8242C25.4258 16.1914 24.1562 17.3047 22.5547 18.1641C22.3594 18.2682 22.112 18.4049 21.8125 18.5742C21.526 18.7435 21.207 18.9258 20.8555 19.1211C20.5169 19.3164 20.1654 19.5117 19.8008 19.707C19.4362 19.9023 19.0846 20.0846 18.7461 20.2539C18.4076 20.4102 18.0951 20.5469 17.8086 20.6641C17.5221 20.7812 17.2812 20.8529 17.0859 20.8789C17.3594 21.2435 17.6914 21.6797 18.082 22.1875C18.4857 22.6953 18.9023 23.2161 19.332 23.75C19.7617 24.2839 20.1849 24.7917 20.6016 25.2734C21.0312 25.7552 21.4154 26.1458 21.7539 26.4453C22.0794 26.7188 22.4049 26.9596 22.7305 27.168C23.069 27.3763 23.4661 27.4805 23.9219 27.4805C24.2734 27.4805 24.625 27.4089 24.9766 27.2656C25.3281 27.1094 25.6667 26.9141 25.9922 26.6797C26.3177 26.4453 26.6237 26.1914 26.9102 25.918C27.1966 25.6445 27.4505 25.3906 27.6719 25.1562L28.3555 25.7617ZM11.832 29.1211L7.80859 30.6055V8.71094L11.832 7.28516V29.1211Z" stroke="black" stroke-width="2" mask="url(#path-1-outside-1_1_4)"/>
<path d="M35.4258 4.51172L34.3906 11.6406L32.4766 12.2461L31.3047 5.91797L35.4258 4.51172ZM38.1211 27.7148C37.8216 28.3529 37.4701 28.8411 37.0664 29.1797C36.6758 29.5182 36.2982 29.7656 35.9336 29.9219C35.5039 30.1042 35.0677 30.2083 34.625 30.2344C34.0521 30.2344 33.5768 30.1432 33.1992 29.9609C32.8216 29.7786 32.5221 29.5378 32.3008 29.2383C32.0794 28.9388 31.9232 28.6003 31.832 28.2227C31.7539 27.8451 31.7148 27.4609 31.7148 27.0703V16.1133L35.3086 14.8828V27.168C35.3086 27.4805 35.3802 27.7279 35.5234 27.9102C35.6667 28.0924 35.849 28.1901 36.0703 28.2031C36.3047 28.2031 36.5521 28.1185 36.8125 27.9492C37.0859 27.7799 37.3464 27.5065 37.5938 27.1289L38.1211 27.7148Z" stroke="black" stroke-width="2" mask="url(#path-1-outside-1_1_4)"/>
<path d="M52.5352 3.76953L50.0938 5.35156C49.8724 4.7526 49.5339 4.23828 49.0781 3.80859C48.6354 3.37891 48.069 3.16406 47.3789 3.16406C46.819 3.16406 46.3698 3.29427 46.0312 3.55469C45.6927 3.80208 45.4323 4.1276 45.25 4.53125C45.0807 4.92188 44.9635 5.35807 44.8984 5.83984C44.8464 6.30859 44.8203 6.76432 44.8203 7.20703V14.8828H49.9375L49.0977 16.8359H44.8203V33.9648L41.207 35.4883V16.8359H39.2539L40.0938 14.8828H41.207V10.7227C41.207 9.65495 41.3242 8.58724 41.5586 7.51953C41.793 6.4388 42.1836 5.46875 42.7305 4.60938C43.2773 3.75 43.9935 3.05339 44.8789 2.51953C45.7643 1.98568 46.8516 1.71875 48.1406 1.71875C48.5312 1.71875 48.9284 1.76432 49.332 1.85547C49.7487 1.94661 50.1523 2.08333 50.543 2.26562C50.9336 2.4349 51.2982 2.64974 51.6367 2.91016C51.9883 3.15755 52.2878 3.44401 52.5352 3.76953Z" stroke="black" stroke-width="2" mask="url(#path-1-outside-1_1_4)"/>
<path d="M63.7461 3.76953L61.3047 5.35156C61.0833 4.7526 60.7448 4.23828 60.2891 3.80859C59.8464 3.37891 59.2799 3.16406 58.5898 3.16406C58.0299 3.16406 57.5807 3.29427 57.2422 3.55469C56.9036 3.80208 56.6432 4.1276 56.4609 4.53125C56.2917 4.92188 56.1745 5.35807 56.1094 5.83984C56.0573 6.30859 56.0312 6.76432 56.0312 7.20703V14.8828H61.1484L60.3086 16.8359H56.0312V33.9648L52.418 35.4883V16.8359H50.4648L51.3047 14.8828H52.418V10.7227C52.418 9.65495 52.5352 8.58724 52.7695 7.51953C53.0039 6.4388 53.3945 5.46875 53.9414 4.60938C54.4883 3.75 55.2044 3.05339 56.0898 2.51953C56.9753 1.98568 58.0625 1.71875 59.3516 1.71875C59.7422 1.71875 60.1393 1.76432 60.543 1.85547C60.9596 1.94661 61.3633 2.08333 61.7539 2.26562C62.1445 2.4349 62.5091 2.64974 62.8477 2.91016C63.1992 3.15755 63.4987 3.44401 63.7461 3.76953Z" stroke="black" stroke-width="2" mask="url(#path-1-outside-1_1_4)"/>
<path d="M81.6758 5.91797L78.3945 9.88281C78.1081 9.02344 77.737 8.20312 77.2812 7.42188C76.8255 6.64062 76.2852 5.95703 75.6602 5.37109C75.0352 4.78516 74.3255 4.31641 73.5312 3.96484C72.737 3.61328 71.8516 3.4375 70.875 3.4375C70.1719 3.4375 69.5208 3.56771 68.9219 3.82812C68.3229 4.07552 67.7956 4.42708 67.3398 4.88281C66.8971 5.32552 66.5456 5.85286 66.2852 6.46484C66.0378 7.07682 65.9141 7.73438 65.9141 8.4375C65.9141 9.16667 66.0508 9.85026 66.3242 10.4883C66.5977 11.1263 66.9622 11.7057 67.418 12.2266C67.8737 12.7344 68.3945 13.1771 68.9805 13.5547C69.5794 13.9323 70.1979 14.2253 70.8359 14.4336C71.474 14.6549 72.1445 14.9023 72.8477 15.1758C73.5508 15.4492 74.2409 15.7682 74.918 16.1328C75.5951 16.4974 76.2396 16.9076 76.8516 17.3633C77.4635 17.806 78.0039 18.3073 78.4727 18.8672C78.9414 19.4271 79.3125 20.0521 79.5859 20.7422C79.8594 21.4193 79.9961 22.1615 79.9961 22.9688C79.9961 24.1406 79.7357 25.1953 79.2148 26.1328C78.707 27.0573 78.0365 27.8385 77.2031 28.4766C76.3698 29.1146 75.4128 29.6029 74.332 29.9414C73.2643 30.2799 72.1771 30.4492 71.0703 30.4492C70.3151 30.4492 69.5469 30.3385 68.7656 30.1172C67.9974 29.8958 67.2552 29.5964 66.5391 29.2188C65.8359 28.8281 65.1719 28.3789 64.5469 27.8711C63.9349 27.3633 63.401 26.8164 62.9453 26.2305L66.1094 22.5977C66.3047 23.2227 66.6432 23.8867 67.125 24.5898C67.6198 25.293 68.1927 25.944 68.8438 26.543C69.4948 27.1419 70.1914 27.6432 70.9336 28.0469C71.6888 28.4375 72.418 28.6328 73.1211 28.6328C73.5247 28.6328 73.9414 28.5286 74.3711 28.3203C74.8008 28.112 75.1914 27.8451 75.543 27.5195C75.9076 27.181 76.207 26.8164 76.4414 26.4258C76.6758 26.0352 76.793 25.651 76.793 25.2734C76.793 24.7005 76.6758 24.1602 76.4414 23.6523C76.207 23.1315 75.8945 22.6432 75.5039 22.1875C75.1263 21.7318 74.6836 21.3151 74.1758 20.9375C73.681 20.5469 73.1602 20.2018 72.6133 19.9023C72.0794 19.5898 71.5391 19.3229 70.9922 19.1016C70.4583 18.8672 69.9635 18.6849 69.5078 18.5547C68.6094 18.2812 67.7305 17.8906 66.8711 17.3828C66.0247 16.875 65.2695 16.263 64.6055 15.5469C63.9414 14.8307 63.4076 14.0299 63.0039 13.1445C62.6003 12.2461 62.3984 11.2891 62.3984 10.2734C62.3984 9.40104 62.5352 8.57422 62.8086 7.79297C63.082 7.01172 63.4596 6.28906 63.9414 5.625C64.4232 4.96094 64.9896 4.36198 65.6406 3.82812C66.2917 3.28125 66.9948 2.82552 67.75 2.46094C68.5052 2.08333 69.293 1.79688 70.1133 1.60156C70.9336 1.39323 71.7604 1.28906 72.5938 1.28906C74.4167 1.28906 76.1094 1.69922 77.6719 2.51953C79.2344 3.32682 80.569 4.45964 81.6758 5.91797Z" stroke="black" stroke-width="2" mask="url(#path-1-outside-1_1_4)"/>
<path d="M90.6211 27.7148C90.3216 28.3529 89.9766 28.8411 89.5859 29.1797C89.1953 29.5182 88.8112 29.7656 88.4336 29.9219C88.0039 30.1042 87.5612 30.2083 87.1055 30.2344C86.5195 30.2344 86.0378 30.1432 85.6602 29.9609C85.2956 29.7786 85.0026 29.5378 84.7812 29.2383C84.5729 28.9388 84.4232 28.6003 84.332 28.2227C84.2539 27.8451 84.2148 27.4609 84.2148 27.0703V16.8359H82.1445L82.9844 14.8828H84.2148V7.96875L87.7891 6.71875V14.8828H91.5L90.6992 16.8359H87.7891V27.168C87.7891 27.4805 87.8607 27.7279 88.0039 27.9102C88.1471 28.0924 88.3294 28.1901 88.5508 28.2031C88.7721 28.2031 89.0195 28.1185 89.293 27.9492C89.5664 27.7799 89.8333 27.5065 90.0938 27.1289L90.6211 27.7148Z" stroke="black" stroke-width="2" mask="url(#path-1-outside-1_1_4)"/>
<path d="M99.8203 30.4492C98.8568 30.4492 97.9518 30.2799 97.1055 29.9414C96.2721 29.5898 95.543 29.1081 94.918 28.4961C94.306 27.8841 93.8177 27.168 93.4531 26.3477C93.1016 25.5143 92.9258 24.6094 92.9258 23.6328C92.9258 22.526 93.1081 21.4909 93.4727 20.5273C93.8372 19.5508 94.3385 18.6719 94.9766 17.8906C95.6276 17.1094 96.3893 16.4323 97.2617 15.8594C98.1471 15.2865 99.1042 14.8372 100.133 14.5117L100.699 15.1953C100.113 15.625 99.5664 16.1198 99.0586 16.6797C98.5508 17.2266 98.1081 17.8255 97.7305 18.4766C97.3529 19.1146 97.0534 19.7917 96.832 20.5078C96.6107 21.2109 96.5 21.9336 96.5 22.6758C96.5 23.3008 96.5911 23.9583 96.7734 24.6484C96.9557 25.3385 97.2292 25.9701 97.5938 26.543C97.9583 27.1159 98.4141 27.5911 98.9609 27.9688C99.5208 28.3333 100.165 28.5156 100.895 28.5156C101.546 28.5156 102.105 28.3984 102.574 28.1641C103.056 27.9297 103.453 27.6107 103.766 27.207C104.078 26.8034 104.312 26.3346 104.469 25.8008C104.625 25.2539 104.703 24.681 104.703 24.082C104.703 23.3789 104.566 22.6628 104.293 21.9336C104.02 21.1914 103.642 20.5078 103.16 19.8828C102.691 19.2578 102.138 18.737 101.5 18.3203C100.862 17.9036 100.178 17.6628 99.4492 17.5977C99.9049 17.0768 100.406 16.5951 100.953 16.1523C101.5 15.7096 102.053 15.2865 102.613 14.8828C103.368 15.1302 104.033 15.4948 104.605 15.9766C105.191 16.4583 105.68 17.0117 106.07 17.6367C106.474 18.2617 106.78 18.9453 106.988 19.6875C107.197 20.4167 107.301 21.1589 107.301 21.9141C107.301 22.9427 107.118 23.9648 106.754 24.9805C106.402 25.9961 105.895 26.9141 105.23 27.7344C104.579 28.5417 103.792 29.1992 102.867 29.707C101.956 30.2018 100.94 30.4492 99.8203 30.4492Z" stroke="black" stroke-width="2" mask="url(#path-1-outside-1_1_4)"/>
<path d="M121.207 27.8711C120.973 28.2357 120.686 28.5677 120.348 28.8672C120.009 29.1536 119.638 29.401 119.234 29.6094C118.831 29.8177 118.408 29.9805 117.965 30.0977C117.522 30.2148 117.086 30.2734 116.656 30.2734C116.083 30.2734 115.589 30.1693 115.172 29.9609C114.768 29.7396 114.436 29.4531 114.176 29.1016C113.915 28.75 113.72 28.3398 113.59 27.8711C113.473 27.4023 113.414 26.9141 113.414 26.4062C113.414 25.7422 113.512 25.0326 113.707 24.2773C113.915 23.5091 114.189 22.7539 114.527 22.0117C114.879 21.2695 115.276 20.5794 115.719 19.9414C116.161 19.3034 116.63 18.776 117.125 18.3594C116.669 18.6589 116.168 18.8932 115.621 19.0625C115.087 19.2318 114.54 19.3164 113.98 19.3164C113.577 19.3164 113.225 19.2839 112.926 19.2188C112.626 19.1536 112.294 19.0299 111.93 18.8477L109.898 23.0859L109.059 22.7539L111.168 18.4375C110.947 18.2812 110.706 18.0859 110.445 17.8516C110.198 17.6042 110.016 17.3633 109.898 17.1289L112.613 14.082C112.73 14.4336 112.893 14.7917 113.102 15.1562C113.31 15.5078 113.551 15.8268 113.824 16.1133C114.111 16.3867 114.423 16.6146 114.762 16.7969C115.113 16.9792 115.491 17.0703 115.895 17.0703C116.585 17.0703 117.255 16.9466 117.906 16.6992C118.557 16.4388 119.163 16.1263 119.723 15.7617L120.25 16.2891C119.755 16.7448 119.254 17.2526 118.746 17.8125C118.251 18.3594 117.802 18.9453 117.398 19.5703C116.995 20.1953 116.669 20.8529 116.422 21.543C116.174 22.2331 116.051 22.9297 116.051 23.6328C116.051 24.0365 116.103 24.4922 116.207 25C116.324 25.4948 116.5 25.9701 116.734 26.4258C116.969 26.8685 117.262 27.2461 117.613 27.5586C117.965 27.8581 118.388 28.0078 118.883 28.0078C119.221 28.0078 119.547 27.9492 119.859 27.832C120.185 27.7018 120.478 27.5456 120.738 27.3633L121.207 27.8711Z" stroke="black" stroke-width="2" mask="url(#path-1-outside-1_1_4)"/>
<path d="M137.086 26.1914C136.63 26.7773 136.129 27.3242 135.582 27.832C135.048 28.3398 134.462 28.7826 133.824 29.1602C133.199 29.5378 132.535 29.8372 131.832 30.0586C131.129 30.2799 130.4 30.3906 129.645 30.3906C128.681 30.3906 127.796 30.2214 126.988 29.8828C126.181 29.5312 125.484 29.056 124.898 28.457C124.312 27.8451 123.857 27.1289 123.531 26.3086C123.206 25.4753 123.043 24.5833 123.043 23.6328C123.043 22.8516 123.154 22.0833 123.375 21.3281C123.596 20.5729 123.909 19.8633 124.312 19.1992C124.716 18.5352 125.191 17.9232 125.738 17.3633C126.298 16.7904 126.91 16.3021 127.574 15.8984C128.238 15.4948 128.941 15.1823 129.684 14.9609C130.426 14.7266 131.188 14.6094 131.969 14.6094C132.516 14.6094 133.03 14.6745 133.512 14.8047C134.007 14.9349 134.443 15.1432 134.82 15.4297C135.198 15.7031 135.497 16.0612 135.719 16.5039C135.94 16.9336 136.051 17.4479 136.051 18.0469C136.051 18.5417 135.901 19.0625 135.602 19.6094C135.315 20.1562 134.931 20.7031 134.449 21.25C133.98 21.7969 133.447 22.3372 132.848 22.8711C132.249 23.3919 131.637 23.8802 131.012 24.3359C130.4 24.7786 129.807 25.1693 129.234 25.5078C128.661 25.8464 128.16 26.1068 127.73 26.2891C128.212 26.888 128.772 27.3763 129.41 27.7539C130.048 28.1315 130.725 28.3203 131.441 28.3203C131.897 28.3203 132.359 28.2357 132.828 28.0664C133.297 27.8841 133.746 27.6562 134.176 27.3828C134.618 27.1094 135.035 26.8099 135.426 26.4844C135.829 26.1589 136.188 25.8529 136.5 25.5664L137.086 26.1914ZM132.379 18.7695C132.379 18.4701 132.327 18.1836 132.223 17.9102C132.132 17.6367 131.995 17.4023 131.812 17.207C131.63 16.9987 131.409 16.8359 131.148 16.7188C130.901 16.5885 130.615 16.5234 130.289 16.5234C129.703 16.5234 129.163 16.7318 128.668 17.1484C128.173 17.5521 127.743 18.0534 127.379 18.6523C127.027 19.2513 126.747 19.8893 126.539 20.5664C126.344 21.2305 126.246 21.8164 126.246 22.3242C126.246 22.819 126.324 23.3268 126.48 23.8477C126.637 24.3685 126.852 24.8698 127.125 25.3516C127.646 25.0651 128.212 24.668 128.824 24.1602C129.436 23.6523 130.003 23.099 130.523 22.5C131.057 21.888 131.5 21.2565 131.852 20.6055C132.203 19.9544 132.379 19.3424 132.379 18.7695Z" stroke="black" stroke-width="2" mask="url(#path-1-outside-1_1_4)"/>
</g>
<defs>
<filter id="filter0_d_1_4" x="0.130096" y="0.289062" width="142.27" height="44.7061" filterUnits="userSpaceOnUse" color-interpolation-filters="sRGB">
<feFlood flood-opacity="0" result="BackgroundImageFix"/>
<feColorMatrix in="SourceAlpha" type="matrix" values="0 0 0 0 0 0 0 0 0 0 0 0 0 0 0 0 0 0 127 0" result="hardAlpha"/>
<feOffset dy="4"/>
<feGaussianBlur stdDeviation="2"/>
<feComposite in2="hardAlpha" operator="out"/>
<feColorMatrix type="matrix" values="0 0 0 0 0 0 0 0 0 0 0 0 0 0 0 0 0 0 0.25 0"/>
<feBlend mode="normal" in2="BackgroundImageFix" result="effect1_dropShadow_1_4"/>
<feBlend mode="normal" in="SourceGraphic" in2="effect1_dropShadow_1_4" result="shape"/>
</filter>
</defs>
</svg>
