<svg width="169" height="54" viewBox="0 0 169 54" fill="none" xmlns="http://www.w3.org/2000/svg">
<mask id="path-1-outside-1_1_4" maskUnits="userSpaceOnUse" x="-0.195007" y="0.395004" width="169" height="54" fill="black">
<rect fill="white" x="-0.195007" y="0.395004" width="169" height="54"/>
<path d="M31.145 11.205C31.145 12.645 30.815 14.01 30.155 15.3C29.525 16.56 28.64 17.7 27.5 18.72C26.36 19.71 25.025 20.55 23.495 21.24C21.965 21.93 20.3 22.395 18.5 22.635C18.95 23.985 19.49 25.38 20.12 26.82C20.78 28.23 21.485 29.595 22.235 30.915C22.985 32.235 23.765 33.45 24.575 34.56C25.385 35.67 26.18 36.585 26.96 37.305C26.81 37.605 26.585 37.905 26.285 38.205C26.015 38.505 25.685 38.775 25.295 39.015C24.935 39.285 24.545 39.495 24.125 39.645C23.735 39.825 23.36 39.915 23 39.915C22.34 39.915 21.71 39.6 21.11 38.97C20.51 38.34 19.895 37.35 19.265 36C18.665 34.62 18.02 32.85 17.33 30.69C16.67 28.5 15.935 25.875 15.125 22.815C14.795 22.815 14.465 22.815 14.135 22.815C13.805 22.815 13.55 22.785 13.37 22.725C13.16 22.605 12.935 22.395 12.695 22.095C11.885 23.835 11.165 25.47 10.535 27C9.90499 28.53 9.33499 30.015 8.82499 31.455C8.34499 32.865 7.90999 34.245 7.51999 35.595C7.15999 36.915 6.84499 38.265 6.57499 39.645C5.55499 39.405 4.66999 38.97 3.91999 38.34C3.16999 37.71 2.46499 36.825 1.80499 35.685C1.92499 35.415 2.04499 35.16 2.16499 34.92C2.31499 34.65 2.49499 34.29 2.70499 33.84C2.91499 33.36 3.16999 32.76 3.46999 32.04C3.79999 31.32 4.21999 30.36 4.72999 29.16C5.26999 27.96 5.89999 26.49 6.61999 24.75C7.36999 23.01 8.26999 20.895 9.31999 18.405C9.79999 17.295 10.205 16.32 10.535 15.48C10.895 14.64 11.21 13.845 11.48 13.095C11.75 12.315 11.99 11.55 12.2 10.8C12.44 10.02 12.68 9.13501 12.92 8.14501C11.54 8.625 10.25 9.165 9.04999 9.76501C7.87999 10.335 6.90499 10.95 6.12499 11.61C5.85499 11.43 5.56999 11.16 5.26999 10.8C4.99999 10.44 4.74499 10.05 4.50499 9.63001C4.26499 9.18001 4.05499 8.73001 3.87499 8.28C3.69499 7.83 3.58999 7.42501 3.55999 7.06501C4.45999 6.46501 5.55499 5.91001 6.84499 5.40001C8.16499 4.89001 9.55999 4.45501 11.03 4.095C12.5 3.705 14 3.405 15.53 3.19501C17.06 2.985 18.485 2.88 19.805 2.88C23.405 2.88 26.195 3.63 28.175 5.13C30.155 6.60001 31.145 8.62501 31.145 11.205ZM20.165 7.425C19.955 7.695 19.625 8.235 19.175 9.045C18.725 9.85501 18.2 10.83 17.6 11.97C17.03 13.08 16.415 14.295 15.755 15.615C15.125 16.935 14.51 18.24 13.91 19.53C16.16 19.53 18.23 19.32 20.12 18.9C22.01 18.48 23.645 17.895 25.025 17.145C26.405 16.365 27.47 15.465 28.22 14.445C29 13.395 29.39 12.24 29.39 10.98C29.39 9.48001 28.85 8.34001 27.77 7.56001C26.69 6.75 25.025 6.34501 22.775 6.34501C22.265 6.34501 21.755 6.37501 21.245 6.43501C20.735 6.46501 20.195 6.51001 19.625 6.57L20.165 7.425Z"/>
<path d="M29.8094 32.985C29.8094 32.715 29.8244 32.385 29.8544 31.995C29.9144 31.575 30.0044 31.035 30.1244 30.375C30.2444 29.685 30.3944 28.86 30.5744 27.9C30.7844 26.94 31.0394 25.785 31.3394 24.435C31.3994 24.135 31.5344 23.655 31.7444 22.995C31.9544 22.335 32.2244 21.645 32.5544 20.925C32.9144 20.175 33.3344 19.455 33.8144 18.765C34.3244 18.075 34.9244 17.565 35.6144 17.235C36.1244 17.355 36.7994 17.67 37.6394 18.18C38.4794 18.66 39.1994 19.335 39.7994 20.205C39.1094 20.985 38.5244 21.765 38.0444 22.545C37.5944 23.325 37.1744 24.135 36.7844 24.975C36.4244 25.815 36.0794 26.685 35.7494 27.585C35.4494 28.485 35.1044 29.43 34.7144 30.42C34.3844 31.26 34.0844 32.13 33.8144 33.03C33.5444 33.9 33.3944 34.665 33.3644 35.325C33.3644 35.865 33.3494 36.24 33.3194 36.45C33.3194 36.69 33.2444 36.81 33.0944 36.81C32.9744 36.81 32.7344 36.735 32.3744 36.585C32.0144 36.435 31.6394 36.21 31.2494 35.91C30.8894 35.58 30.5594 35.175 30.2594 34.695C29.9594 34.215 29.8094 33.645 29.8094 32.985ZM38.4044 13.455C38.4044 13.275 38.4494 13.005 38.5394 12.645C38.3894 12.495 38.2544 12.27 38.1344 11.97C38.0444 11.67 37.9994 11.4 37.9994 11.16C37.9994 10.89 38.0294 10.53 38.0894 10.08C38.1794 9.60001 38.2844 9.09001 38.4044 8.55001C38.5244 8.01001 38.6744 7.45501 38.8544 6.88501C39.0344 6.285 39.2144 5.745 39.3944 5.26501C39.7544 5.26501 40.1894 5.37001 40.6994 5.58C41.2394 5.76001 41.7794 6.01501 42.3194 6.34501C42.8594 6.645 43.3544 6.99 43.8044 7.38C44.2544 7.74001 44.5994 8.08501 44.8394 8.41501C44.5094 8.745 44.0744 9.21 43.5344 9.81001C42.9944 10.38 42.4694 10.995 41.9594 11.655C41.4494 12.285 40.9844 12.885 40.5644 13.455C40.1444 14.025 39.8744 14.43 39.7544 14.67C39.3944 14.61 39.0794 14.46 38.8094 14.22C38.5394 13.95 38.4044 13.695 38.4044 13.455Z"/>
<path d="M71.4116 3.51C70.9016 3.51 70.3466 3.825 69.7466 4.45501C69.1466 5.08501 68.5016 5.97001 67.8116 7.11001C67.1516 8.22001 66.4766 9.55501 65.7866 11.115C65.1266 12.675 64.4816 14.4 63.8516 16.29C64.5416 16.32 65.2616 16.365 66.0116 16.425C66.7916 16.455 67.4516 16.515 67.9916 16.605C68.0516 16.725 68.0816 16.935 68.0816 17.235C68.0816 17.565 68.0366 17.925 67.9466 18.315C67.8866 18.705 67.7816 19.005 67.6316 19.215C66.8816 19.155 66.1316 19.095 65.3816 19.035C64.6616 18.945 63.9116 18.87 63.1316 18.81C61.6316 23.55 60.2816 27.675 59.0816 31.185C57.9116 34.695 56.8166 37.695 55.7966 40.185C54.8066 42.705 53.8766 44.76 53.0066 46.35C52.1366 47.94 51.2516 49.185 50.3516 50.085C49.4516 51.015 48.5066 51.645 47.5166 51.975C46.5566 52.335 45.4916 52.515 44.3216 52.515C42.9716 52.515 41.8316 52.305 40.9016 51.885C40.0016 51.495 39.1616 50.955 38.3816 50.265C37.4816 51.105 36.5516 51.69 35.5916 52.02C34.6016 52.35 33.5066 52.515 32.3066 52.515C30.1766 52.515 28.3616 51.795 26.8616 50.355C26.8616 50.145 26.9216 49.92 27.0416 49.68C27.1616 49.44 27.2966 49.275 27.4466 49.185C27.8666 49.695 28.4216 50.085 29.1116 50.355C29.8016 50.655 30.5216 50.805 31.2716 50.805C32.0516 50.805 32.7716 50.625 33.4316 50.265C34.0616 49.935 34.6916 49.365 35.3216 48.555C35.9216 47.745 36.5216 46.68 37.1216 45.36C37.7516 44.04 38.4266 42.405 39.1466 40.455C40.2566 37.455 41.3366 34.215 42.3866 30.735C43.4366 27.255 44.5916 23.37 45.8516 19.08C45.1616 19.14 44.4866 19.2 43.8266 19.26C43.1666 19.32 42.5516 19.38 41.9816 19.44C41.8616 19.32 41.7566 19.155 41.6666 18.945C41.6066 18.735 41.5766 18.54 41.5766 18.36C41.9666 18.24 42.5666 18.105 43.3766 17.955C44.2166 17.775 45.2066 17.595 46.3466 17.415C47.0366 15.165 47.7866 13.14 48.5966 11.34C49.4066 9.54 50.2916 7.99501 51.2516 6.70501C52.2116 5.41501 53.2466 4.42501 54.3566 3.73501C55.4966 3.04501 56.7266 2.70001 58.0466 2.70001C59.2166 2.70001 60.3266 3.00001 61.3766 3.60001C62.4566 4.2 63.4466 4.845 64.3466 5.535C65.3366 4.48501 66.3716 3.64501 67.4516 3.015C68.5616 2.38501 69.6416 2.07001 70.6916 2.07001C71.0216 2.07001 71.3516 2.10001 71.6816 2.16001C72.0416 2.19 72.3116 2.205 72.4916 2.205C72.7616 1.99501 73.1216 1.81501 73.5716 1.66501C74.0216 1.485 74.4116 1.395 74.7416 1.395C75.1016 1.395 75.5666 1.59 76.1366 1.98C75.8966 2.4 75.6416 2.97 75.3716 3.69C75.1016 4.41001 74.8766 5.11501 74.6966 5.80501C73.9466 8.02501 73.1516 9.46501 72.3116 10.125C71.9816 10.125 71.8016 9.69 71.7716 8.82001C71.7116 8.16 71.5916 7.59001 71.4116 7.11001C71.2616 6.60001 71.1866 6.04501 71.1866 5.44501C71.1866 5.265 71.2016 5.055 71.2316 4.81501C71.2616 4.54501 71.3216 4.11001 71.4116 3.51ZM50.8016 40.455C51.3116 39.075 51.8516 37.515 52.4216 35.775C52.9916 34.035 53.5616 32.22 54.1316 30.33C54.7316 28.44 55.3316 26.505 55.9316 24.525C56.5316 22.515 57.1016 20.55 57.6416 18.63H56.7866C56.0066 18.63 55.1666 18.645 54.2666 18.675C53.3966 18.675 52.4966 18.69 51.5666 18.72C50.1866 23.19 48.9266 27.12 47.7866 30.51C46.6766 33.87 45.6266 36.78 44.6366 39.24C43.6766 41.73 42.7466 43.785 41.8466 45.405C40.9766 47.055 40.1066 48.39 39.2366 49.41C39.6866 49.83 40.2416 50.16 40.9016 50.4C41.5916 50.67 42.2666 50.805 42.9266 50.805C43.6766 50.805 44.3666 50.625 44.9966 50.265C45.6566 49.935 46.2866 49.365 46.8866 48.555C47.5166 47.745 48.1466 46.68 48.7766 45.36C49.4066 44.04 50.0816 42.405 50.8016 40.455ZM58.2716 16.335C58.8116 14.565 59.5016 12.87 60.3416 11.25C61.2116 9.63001 62.1716 8.16001 63.2216 6.84001C62.5616 6.42001 61.9466 6.135 61.3766 5.985C60.8066 5.835 60.4016 5.76 60.1616 5.76C59.3816 5.76 58.6616 6 58.0016 6.48001C57.3416 6.93001 56.6966 7.62001 56.0666 8.55001C55.4366 9.48 54.8066 10.62 54.1766 11.97C53.5766 13.32 52.9316 14.895 52.2416 16.695C53.2016 16.605 54.1766 16.53 55.1666 16.47C56.1866 16.41 57.2216 16.365 58.2716 16.335Z"/>
<path d="M96.4182 5.67001C96.5082 6.18001 96.5682 6.54001 96.5982 6.75001C96.6582 6.93 96.6882 7.185 96.6882 7.51501C96.6882 8.50501 96.4632 9.43501 96.0132 10.305C95.5932 11.145 95.0082 11.745 94.2582 12.105C93.6582 11.295 92.9232 10.605 92.0532 10.035C91.1832 9.43501 90.2232 8.95501 89.1732 8.59501C88.1532 8.20501 87.0882 7.92 85.9782 7.74001C84.8682 7.56001 83.7882 7.47001 82.7382 7.47001C81.6882 7.47001 80.6982 7.56001 79.7682 7.74001C78.8682 7.89001 78.0582 8.11501 77.3382 8.41501C76.6482 8.68501 76.0932 9.03001 75.6732 9.45001C75.2832 9.87001 75.0882 10.35 75.0882 10.89C75.1782 11.55 75.5832 12.225 76.3032 12.915C77.0232 13.575 77.9082 14.235 78.9582 14.895C80.0082 15.525 81.1632 16.155 82.4232 16.785C83.7132 17.415 84.9732 18.015 86.2032 18.585C87.7332 19.305 89.0532 19.98 90.1632 20.61C91.2732 21.21 92.1882 21.885 92.9082 22.635C93.6282 23.355 94.1682 24.18 94.5282 25.11C94.8882 26.04 95.0682 27.165 95.0682 28.485C95.0682 30.015 94.8132 31.455 94.3032 32.805C93.7932 34.125 93.0432 35.28 92.0532 36.27C91.0932 37.26 89.9232 38.025 88.5432 38.565C87.1632 39.135 85.6182 39.42 83.9082 39.42C82.2282 39.42 80.4132 39.165 78.4632 38.655C76.5132 38.145 74.6832 37.44 72.9732 36.54C71.2932 35.67 69.8832 34.665 68.7432 33.525C67.6332 32.355 67.0782 31.125 67.0782 29.835C67.0782 29.235 67.2432 28.47 67.5732 27.54C67.9332 26.61 68.5632 25.635 69.4632 24.615C69.5532 25.515 70.0332 26.58 70.9032 27.81C71.8032 29.04 73.1382 30.18 74.9082 31.23C76.5582 32.19 78.2532 32.895 79.9932 33.345C81.7632 33.765 83.4132 33.975 84.9432 33.975C86.6232 33.975 87.9882 33.765 89.0382 33.345C90.0882 32.925 90.9132 32.43 91.5132 31.86C92.1132 31.26 92.5332 30.66 92.7732 30.06C93.0132 29.46 93.1482 28.98 93.1782 28.62C93.1482 28.02 92.8632 27.45 92.3232 26.91C91.8132 26.34 91.1082 25.8 90.2082 25.29C89.3382 24.75 88.3182 24.21 87.1482 23.67C85.9782 23.13 84.7632 22.59 83.5032 22.05C81.6132 21.21 79.9782 20.43 78.5982 19.71C77.2482 18.96 76.1232 18.21 75.2232 17.46C74.3532 16.68 73.7082 15.87 73.2882 15.03C72.8982 14.19 72.7032 13.23 72.7032 12.15C72.7032 10.47 73.2132 8.88001 74.2332 7.38C75.2532 5.88 76.7232 4.74001 78.6432 3.96001C79.6032 3.54001 80.6232 3.24001 81.7032 3.06C82.8132 2.88 83.8932 2.79001 84.9432 2.79001C86.9232 2.79001 88.8582 3.06001 90.7482 3.60001C92.6382 4.14001 94.5282 4.83001 96.4182 5.67001Z"/>
<path d="M100.007 18.765C99.8573 18.585 99.7223 18.21 99.6023 17.64C99.4823 17.04 99.4223 16.53 99.4223 16.11C100.202 16.17 100.952 16.23 101.672 16.29C102.392 16.32 103.052 16.35 103.652 16.38C104.102 15.48 104.582 14.595 105.092 13.725C105.632 12.825 106.142 12.015 106.622 11.295C107.132 10.545 107.597 9.91501 108.017 9.40501C108.467 8.895 108.812 8.56501 109.052 8.41501C109.352 8.41501 109.727 8.47501 110.177 8.59501C110.657 8.68501 111.137 8.82001 111.617 9.00001C112.097 9.15001 112.532 9.31501 112.922 9.495C113.312 9.67501 113.582 9.85501 113.732 10.035C112.832 11.175 112.052 12.24 111.392 13.23C110.762 14.19 110.072 15.3 109.322 16.56C109.922 16.56 110.522 16.545 111.122 16.515C111.752 16.485 112.382 16.44 113.012 16.38C113.162 16.53 113.282 16.725 113.372 16.965C113.462 17.175 113.507 17.4 113.507 17.64C112.037 18.18 110.252 18.48 108.152 18.54C107.402 19.98 106.727 21.42 106.127 22.86C105.557 24.27 105.062 25.635 104.642 26.955C104.252 28.275 103.937 29.52 103.697 30.69C103.487 31.86 103.382 32.91 103.382 33.84C103.382 35.16 103.877 35.895 104.867 36.045C105.767 35.925 106.622 35.7 107.432 35.37C108.242 35.04 108.962 34.62 109.592 34.11C109.772 34.38 109.877 34.605 109.907 34.785C109.727 35.055 109.412 35.37 108.962 35.73C108.542 36.09 108.077 36.435 107.567 36.765C107.057 37.125 106.562 37.425 106.082 37.665C105.602 37.905 105.242 38.04 105.002 38.07C104.252 38.04 103.502 37.875 102.752 37.575C102.002 37.275 101.312 36.9 100.682 36.45C100.082 36 99.5873 35.505 99.1973 34.965C98.8073 34.395 98.6123 33.84 98.6123 33.3C98.6123 32.58 98.7023 31.68 98.8823 30.6C99.0923 29.49 99.3773 28.29 99.7373 27C100.097 25.71 100.517 24.36 100.997 22.95C101.477 21.54 102.002 20.145 102.572 18.765H100.007Z"/>
<path d="M118.483 37.575C116.773 37.395 115.408 36.645 114.388 35.325C113.368 34.005 112.858 32.325 112.858 30.285C112.858 29.085 113.038 27.84 113.398 26.55C113.758 25.26 114.268 24.015 114.928 22.815C115.588 21.585 116.368 20.43 117.268 19.35C118.168 18.27 119.143 17.34 120.193 16.56C121.843 15.33 123.388 14.715 124.828 14.715C125.788 15.225 126.733 16.29 127.663 17.91C127.813 17.91 127.948 17.91 128.068 17.91C128.188 17.88 128.323 17.865 128.473 17.865C130.063 17.865 130.858 19.275 130.858 22.095C130.858 23.985 130.543 25.785 129.913 27.495C129.313 29.175 128.458 30.705 127.348 32.085C126.268 33.465 124.963 34.635 123.433 35.595C121.933 36.525 120.283 37.185 118.483 37.575ZM120.778 23.4C120.268 24.09 119.788 24.84 119.338 25.65C118.888 26.46 118.498 27.285 118.168 28.125C117.838 28.935 117.583 29.73 117.403 30.51C117.223 31.26 117.133 31.935 117.133 32.535C117.133 33.255 117.253 33.945 117.493 34.605C117.733 35.265 118.003 35.64 118.303 35.73C119.653 35.43 120.883 34.875 121.993 34.065C123.133 33.225 124.108 32.19 124.918 30.96C125.758 29.73 126.403 28.335 126.853 26.775C127.333 25.215 127.573 23.55 127.573 21.78C127.573 21 127.528 20.385 127.438 19.935C127.348 19.485 127.198 19.095 126.988 18.765C125.668 19.155 124.483 19.785 123.433 20.655C122.413 21.525 121.528 22.44 120.778 23.4Z"/>
<path d="M131.956 35.1C132.106 34.23 132.361 33.09 132.721 31.68C133.111 30.24 133.561 28.725 134.071 27.135C134.581 25.515 135.121 23.895 135.691 22.275C136.261 20.655 136.816 19.2 137.356 17.91C137.746 16.98 138.091 16.26 138.391 15.75C138.691 15.21 139.021 14.76 139.381 14.4C139.801 14.46 140.236 14.565 140.686 14.715C141.136 14.865 141.571 15.045 141.991 15.255C142.411 15.465 142.786 15.69 143.116 15.93C143.446 16.14 143.701 16.35 143.881 16.56C143.071 17.52 142.351 18.615 141.721 19.845C141.121 21.075 140.506 22.65 139.876 24.57C141.496 23.13 142.921 21.75 144.151 20.43C145.411 19.11 146.581 17.64 147.661 16.02C147.841 15.87 148.156 15.795 148.606 15.795C149.026 15.795 149.431 15.87 149.821 16.02C150.211 16.14 150.481 16.32 150.631 16.56C150.091 18 149.821 19.425 149.821 20.835C149.821 22.155 150.016 23.145 150.406 23.805C150.376 23.985 150.166 24.33 149.776 24.84C149.416 25.35 149.011 25.83 148.561 26.28C147.751 25.86 147.031 25.29 146.401 24.57C145.771 23.82 145.306 23.01 145.006 22.14C143.596 23.13 142.396 24.105 141.406 25.065C140.416 25.995 139.561 27.045 138.841 28.215C138.151 29.355 137.551 30.675 137.041 32.175C136.561 33.675 136.096 35.46 135.646 37.53C135.376 37.5 135.046 37.395 134.656 37.215C134.296 37.065 133.921 36.87 133.531 36.63C133.171 36.39 132.841 36.135 132.541 35.865C132.241 35.595 132.046 35.34 131.956 35.1Z"/>
<path d="M167.295 17.37C167.175 19.23 166.845 20.835 166.305 22.185C165.765 23.505 164.985 24.675 163.965 25.695C162.975 26.685 161.76 27.585 160.32 28.395C158.88 29.205 157.2 29.985 155.28 30.735C155.28 30.915 155.265 31.11 155.235 31.32C155.235 31.5 155.235 31.695 155.235 31.905C155.235 32.295 155.265 32.7 155.325 33.12C155.385 33.54 155.49 33.93 155.64 34.29C155.79 34.65 156 34.95 156.27 35.19C156.54 35.4 156.885 35.505 157.305 35.505C158.115 35.505 158.91 35.325 159.69 34.965C160.47 34.605 161.205 34.17 161.895 33.66C162.615 33.12 163.275 32.55 163.875 31.95C164.505 31.32 165.06 30.75 165.54 30.24C165.84 30.51 166.095 30.765 166.305 31.005C164.955 32.805 163.47 34.305 161.85 35.505C160.26 36.675 158.745 37.425 157.305 37.755C155.235 37.515 153.615 36.765 152.445 35.505C151.305 34.215 150.735 32.67 150.735 30.87C150.735 29.64 150.9 28.395 151.23 27.135C151.59 25.845 152.07 24.615 152.67 23.445C153.3 22.245 154.02 21.12 154.83 20.07C155.67 19.02 156.555 18.105 157.485 17.325C158.445 16.545 159.42 15.93 160.41 15.48C161.43 15.03 162.435 14.805 163.425 14.805C164.805 14.985 166.095 15.84 167.295 17.37ZM164.19 18.855C163.38 18.975 162.54 19.305 161.67 19.845C160.8 20.385 159.975 21.105 159.195 22.005C158.445 22.905 157.755 23.955 157.125 25.155C156.495 26.355 156 27.645 155.64 29.025C158.04 27.825 160.035 26.355 161.625 24.615C163.215 22.845 164.07 20.925 164.19 18.855Z"/>
</mask>
<path d="M31.145 11.205C31.145 12.645 30.815 14.01 30.155 15.3C29.525 16.56 28.64 17.7 27.5 18.72C26.36 19.71 25.025 20.55 23.495 21.24C21.965 21.93 20.3 22.395 18.5 22.635C18.95 23.985 19.49 25.38 20.12 26.82C20.78 28.23 21.485 29.595 22.235 30.915C22.985 32.235 23.765 33.45 24.575 34.56C25.385 35.67 26.18 36.585 26.96 37.305C26.81 37.605 26.585 37.905 26.285 38.205C26.015 38.505 25.685 38.775 25.295 39.015C24.935 39.285 24.545 39.495 24.125 39.645C23.735 39.825 23.36 39.915 23 39.915C22.34 39.915 21.71 39.6 21.11 38.97C20.51 38.34 19.895 37.35 19.265 36C18.665 34.62 18.02 32.85 17.33 30.69C16.67 28.5 15.935 25.875 15.125 22.815C14.795 22.815 14.465 22.815 14.135 22.815C13.805 22.815 13.55 22.785 13.37 22.725C13.16 22.605 12.935 22.395 12.695 22.095C11.885 23.835 11.165 25.47 10.535 27C9.90499 28.53 9.33499 30.015 8.82499 31.455C8.34499 32.865 7.90999 34.245 7.51999 35.595C7.15999 36.915 6.84499 38.265 6.57499 39.645C5.55499 39.405 4.66999 38.97 3.91999 38.34C3.16999 37.71 2.46499 36.825 1.80499 35.685C1.92499 35.415 2.04499 35.16 2.16499 34.92C2.31499 34.65 2.49499 34.29 2.70499 33.84C2.91499 33.36 3.16999 32.76 3.46999 32.04C3.79999 31.32 4.21999 30.36 4.72999 29.16C5.26999 27.96 5.89999 26.49 6.61999 24.75C7.36999 23.01 8.26999 20.895 9.31999 18.405C9.79999 17.295 10.205 16.32 10.535 15.48C10.895 14.64 11.21 13.845 11.48 13.095C11.75 12.315 11.99 11.55 12.2 10.8C12.44 10.02 12.68 9.13501 12.92 8.14501C11.54 8.625 10.25 9.165 9.04999 9.76501C7.87999 10.335 6.90499 10.95 6.12499 11.61C5.85499 11.43 5.56999 11.16 5.26999 10.8C4.99999 10.44 4.74499 10.05 4.50499 9.63001C4.26499 9.18001 4.05499 8.73001 3.87499 8.28C3.69499 7.83 3.58999 7.42501 3.55999 7.06501C4.45999 6.46501 5.55499 5.91001 6.84499 5.40001C8.16499 4.89001 9.55999 4.45501 11.03 4.095C12.5 3.705 14 3.405 15.53 3.19501C17.06 2.985 18.485 2.88 19.805 2.88C23.405 2.88 26.195 3.63 28.175 5.13C30.155 6.60001 31.145 8.62501 31.145 11.205ZM20.165 7.425C19.955 7.695 19.625 8.235 19.175 9.045C18.725 9.85501 18.2 10.83 17.6 11.97C17.03 13.08 16.415 14.295 15.755 15.615C15.125 16.935 14.51 18.24 13.91 19.53C16.16 19.53 18.23 19.32 20.12 18.9C22.01 18.48 23.645 17.895 25.025 17.145C26.405 16.365 27.47 15.465 28.22 14.445C29 13.395 29.39 12.24 29.39 10.98C29.39 9.48001 28.85 8.34001 27.77 7.56001C26.69 6.75 25.025 6.34501 22.775 6.34501C22.265 6.34501 21.755 6.37501 21.245 6.43501C20.735 6.46501 20.195 6.51001 19.625 6.57L20.165 7.425Z" fill="white"/>
<path d="M29.8094 32.985C29.8094 32.715 29.8244 32.385 29.8544 31.995C29.9144 31.575 30.0044 31.035 30.1244 30.375C30.2444 29.685 30.3944 28.86 30.5744 27.9C30.7844 26.94 31.0394 25.785 31.3394 24.435C31.3994 24.135 31.5344 23.655 31.7444 22.995C31.9544 22.335 32.2244 21.645 32.5544 20.925C32.9144 20.175 33.3344 19.455 33.8144 18.765C34.3244 18.075 34.9244 17.565 35.6144 17.235C36.1244 17.355 36.7994 17.67 37.6394 18.18C38.4794 18.66 39.1994 19.335 39.7994 20.205C39.1094 20.985 38.5244 21.765 38.0444 22.545C37.5944 23.325 37.1744 24.135 36.7844 24.975C36.4244 25.815 36.0794 26.685 35.7494 27.585C35.4494 28.485 35.1044 29.43 34.7144 30.42C34.3844 31.26 34.0844 32.13 33.8144 33.03C33.5444 33.9 33.3944 34.665 33.3644 35.325C33.3644 35.865 33.3494 36.24 33.3194 36.45C33.3194 36.69 33.2444 36.81 33.0944 36.81C32.9744 36.81 32.7344 36.735 32.3744 36.585C32.0144 36.435 31.6394 36.21 31.2494 35.91C30.8894 35.58 30.5594 35.175 30.2594 34.695C29.9594 34.215 29.8094 33.645 29.8094 32.985ZM38.4044 13.455C38.4044 13.275 38.4494 13.005 38.5394 12.645C38.3894 12.495 38.2544 12.27 38.1344 11.97C38.0444 11.67 37.9994 11.4 37.9994 11.16C37.9994 10.89 38.0294 10.53 38.0894 10.08C38.1794 9.60001 38.2844 9.09001 38.4044 8.55001C38.5244 8.01001 38.6744 7.45501 38.8544 6.88501C39.0344 6.285 39.2144 5.745 39.3944 5.26501C39.7544 5.26501 40.1894 5.37001 40.6994 5.58C41.2394 5.76001 41.7794 6.01501 42.3194 6.34501C42.8594 6.645 43.3544 6.99 43.8044 7.38C44.2544 7.74001 44.5994 8.08501 44.8394 8.41501C44.5094 8.745 44.0744 9.21 43.5344 9.81001C42.9944 10.38 42.4694 10.995 41.9594 11.655C41.4494 12.285 40.9844 12.885 40.5644 13.455C40.1444 14.025 39.8744 14.43 39.7544 14.67C39.3944 14.61 39.0794 14.46 38.8094 14.22C38.5394 13.95 38.4044 13.695 38.4044 13.455Z" fill="white"/>
<path d="M71.4116 3.51C70.9016 3.51 70.3466 3.825 69.7466 4.45501C69.1466 5.08501 68.5016 5.97001 67.8116 7.11001C67.1516 8.22001 66.4766 9.55501 65.7866 11.115C65.1266 12.675 64.4816 14.4 63.8516 16.29C64.5416 16.32 65.2616 16.365 66.0116 16.425C66.7916 16.455 67.4516 16.515 67.9916 16.605C68.0516 16.725 68.0816 16.935 68.0816 17.235C68.0816 17.565 68.0366 17.925 67.9466 18.315C67.8866 18.705 67.7816 19.005 67.6316 19.215C66.8816 19.155 66.1316 19.095 65.3816 19.035C64.6616 18.945 63.9116 18.87 63.1316 18.81C61.6316 23.55 60.2816 27.675 59.0816 31.185C57.9116 34.695 56.8166 37.695 55.7966 40.185C54.8066 42.705 53.8766 44.76 53.0066 46.35C52.1366 47.94 51.2516 49.185 50.3516 50.085C49.4516 51.015 48.5066 51.645 47.5166 51.975C46.5566 52.335 45.4916 52.515 44.3216 52.515C42.9716 52.515 41.8316 52.305 40.9016 51.885C40.0016 51.495 39.1616 50.955 38.3816 50.265C37.4816 51.105 36.5516 51.69 35.5916 52.02C34.6016 52.35 33.5066 52.515 32.3066 52.515C30.1766 52.515 28.3616 51.795 26.8616 50.355C26.8616 50.145 26.9216 49.92 27.0416 49.68C27.1616 49.44 27.2966 49.275 27.4466 49.185C27.8666 49.695 28.4216 50.085 29.1116 50.355C29.8016 50.655 30.5216 50.805 31.2716 50.805C32.0516 50.805 32.7716 50.625 33.4316 50.265C34.0616 49.935 34.6916 49.365 35.3216 48.555C35.9216 47.745 36.5216 46.68 37.1216 45.36C37.7516 44.04 38.4266 42.405 39.1466 40.455C40.2566 37.455 41.3366 34.215 42.3866 30.735C43.4366 27.255 44.5916 23.37 45.8516 19.08C45.1616 19.14 44.4866 19.2 43.8266 19.26C43.1666 19.32 42.5516 19.38 41.9816 19.44C41.8616 19.32 41.7566 19.155 41.6666 18.945C41.6066 18.735 41.5766 18.54 41.5766 18.36C41.9666 18.24 42.5666 18.105 43.3766 17.955C44.2166 17.775 45.2066 17.595 46.3466 17.415C47.0366 15.165 47.7866 13.14 48.5966 11.34C49.4066 9.54 50.2916 7.99501 51.2516 6.70501C52.2116 5.41501 53.2466 4.42501 54.3566 3.73501C55.4966 3.04501 56.7266 2.70001 58.0466 2.70001C59.2166 2.70001 60.3266 3.00001 61.3766 3.60001C62.4566 4.2 63.4466 4.845 64.3466 5.535C65.3366 4.48501 66.3716 3.64501 67.4516 3.015C68.5616 2.38501 69.6416 2.07001 70.6916 2.07001C71.0216 2.07001 71.3516 2.10001 71.6816 2.16001C72.0416 2.19 72.3116 2.205 72.4916 2.205C72.7616 1.99501 73.1216 1.81501 73.5716 1.66501C74.0216 1.485 74.4116 1.395 74.7416 1.395C75.1016 1.395 75.5666 1.59 76.1366 1.98C75.8966 2.4 75.6416 2.97 75.3716 3.69C75.1016 4.41001 74.8766 5.11501 74.6966 5.80501C73.9466 8.02501 73.1516 9.46501 72.3116 10.125C71.9816 10.125 71.8016 9.69 71.7716 8.82001C71.7116 8.16 71.5916 7.59001 71.4116 7.11001C71.2616 6.60001 71.1866 6.04501 71.1866 5.44501C71.1866 5.265 71.2016 5.055 71.2316 4.81501C71.2616 4.54501 71.3216 4.11001 71.4116 3.51ZM50.8016 40.455C51.3116 39.075 51.8516 37.515 52.4216 35.775C52.9916 34.035 53.5616 32.22 54.1316 30.33C54.7316 28.44 55.3316 26.505 55.9316 24.525C56.5316 22.515 57.1016 20.55 57.6416 18.63H56.7866C56.0066 18.63 55.1666 18.645 54.2666 18.675C53.3966 18.675 52.4966 18.69 51.5666 18.72C50.1866 23.19 48.9266 27.12 47.7866 30.51C46.6766 33.87 45.6266 36.78 44.6366 39.24C43.6766 41.73 42.7466 43.785 41.8466 45.405C40.9766 47.055 40.1066 48.39 39.2366 49.41C39.6866 49.83 40.2416 50.16 40.9016 50.4C41.5916 50.67 42.2666 50.805 42.9266 50.805C43.6766 50.805 44.3666 50.625 44.9966 50.265C45.6566 49.935 46.2866 49.365 46.8866 48.555C47.5166 47.745 48.1466 46.68 48.7766 45.36C49.4066 44.04 50.0816 42.405 50.8016 40.455ZM58.2716 16.335C58.8116 14.565 59.5016 12.87 60.3416 11.25C61.2116 9.63001 62.1716 8.16001 63.2216 6.84001C62.5616 6.42001 61.9466 6.135 61.3766 5.985C60.8066 5.835 60.4016 5.76 60.1616 5.76C59.3816 5.76 58.6616 6 58.0016 6.48001C57.3416 6.93001 56.6966 7.62001 56.0666 8.55001C55.4366 9.48 54.8066 10.62 54.1766 11.97C53.5766 13.32 52.9316 14.895 52.2416 16.695C53.2016 16.605 54.1766 16.53 55.1666 16.47C56.1866 16.41 57.2216 16.365 58.2716 16.335Z" fill="white"/>
<path d="M96.4182 5.67001C96.5082 6.18001 96.5682 6.54001 96.5982 6.75001C96.6582 6.93 96.6882 7.185 96.6882 7.51501C96.6882 8.50501 96.4632 9.43501 96.0132 10.305C95.5932 11.145 95.0082 11.745 94.2582 12.105C93.6582 11.295 92.9232 10.605 92.0532 10.035C91.1832 9.43501 90.2232 8.95501 89.1732 8.59501C88.1532 8.20501 87.0882 7.92 85.9782 7.74001C84.8682 7.56001 83.7882 7.47001 82.7382 7.47001C81.6882 7.47001 80.6982 7.56001 79.7682 7.74001C78.8682 7.89001 78.0582 8.11501 77.3382 8.41501C76.6482 8.68501 76.0932 9.03001 75.6732 9.45001C75.2832 9.87001 75.0882 10.35 75.0882 10.89C75.1782 11.55 75.5832 12.225 76.3032 12.915C77.0232 13.575 77.9082 14.235 78.9582 14.895C80.0082 15.525 81.1632 16.155 82.4232 16.785C83.7132 17.415 84.9732 18.015 86.2032 18.585C87.7332 19.305 89.0532 19.98 90.1632 20.61C91.2732 21.21 92.1882 21.885 92.9082 22.635C93.6282 23.355 94.1682 24.18 94.5282 25.11C94.8882 26.04 95.0682 27.165 95.0682 28.485C95.0682 30.015 94.8132 31.455 94.3032 32.805C93.7932 34.125 93.0432 35.28 92.0532 36.27C91.0932 37.26 89.9232 38.025 88.5432 38.565C87.1632 39.135 85.6182 39.42 83.9082 39.42C82.2282 39.42 80.4132 39.165 78.4632 38.655C76.5132 38.145 74.6832 37.44 72.9732 36.54C71.2932 35.67 69.8832 34.665 68.7432 33.525C67.6332 32.355 67.0782 31.125 67.0782 29.835C67.0782 29.235 67.2432 28.47 67.5732 27.54C67.9332 26.61 68.5632 25.635 69.4632 24.615C69.5532 25.515 70.0332 26.58 70.9032 27.81C71.8032 29.04 73.1382 30.18 74.9082 31.23C76.5582 32.19 78.2532 32.895 79.9932 33.345C81.7632 33.765 83.4132 33.975 84.9432 33.975C86.6232 33.975 87.9882 33.765 89.0382 33.345C90.0882 32.925 90.9132 32.43 91.5132 31.86C92.1132 31.26 92.5332 30.66 92.7732 30.06C93.0132 29.46 93.1482 28.98 93.1782 28.62C93.1482 28.02 92.8632 27.45 92.3232 26.91C91.8132 26.34 91.1082 25.8 90.2082 25.29C89.3382 24.75 88.3182 24.21 87.1482 23.67C85.9782 23.13 84.7632 22.59 83.5032 22.05C81.6132 21.21 79.9782 20.43 78.5982 19.71C77.2482 18.96 76.1232 18.21 75.2232 17.46C74.3532 16.68 73.7082 15.87 73.2882 15.03C72.8982 14.19 72.7032 13.23 72.7032 12.15C72.7032 10.47 73.2132 8.88001 74.2332 7.38C75.2532 5.88 76.7232 4.74001 78.6432 3.96001C79.6032 3.54001 80.6232 3.24001 81.7032 3.06C82.8132 2.88 83.8932 2.79001 84.9432 2.79001C86.9232 2.79001 88.8582 3.06001 90.7482 3.60001C92.6382 4.14001 94.5282 4.83001 96.4182 5.67001Z" fill="white"/>
<path d="M100.007 18.765C99.8573 18.585 99.7223 18.21 99.6023 17.64C99.4823 17.04 99.4223 16.53 99.4223 16.11C100.202 16.17 100.952 16.23 101.672 16.29C102.392 16.32 103.052 16.35 103.652 16.38C104.102 15.48 104.582 14.595 105.092 13.725C105.632 12.825 106.142 12.015 106.622 11.295C107.132 10.545 107.597 9.91501 108.017 9.40501C108.467 8.895 108.812 8.56501 109.052 8.41501C109.352 8.41501 109.727 8.47501 110.177 8.59501C110.657 8.68501 111.137 8.82001 111.617 9.00001C112.097 9.15001 112.532 9.31501 112.922 9.495C113.312 9.67501 113.582 9.85501 113.732 10.035C112.832 11.175 112.052 12.24 111.392 13.23C110.762 14.19 110.072 15.3 109.322 16.56C109.922 16.56 110.522 16.545 111.122 16.515C111.752 16.485 112.382 16.44 113.012 16.38C113.162 16.53 113.282 16.725 113.372 16.965C113.462 17.175 113.507 17.4 113.507 17.64C112.037 18.18 110.252 18.48 108.152 18.54C107.402 19.98 106.727 21.42 106.127 22.86C105.557 24.27 105.062 25.635 104.642 26.955C104.252 28.275 103.937 29.52 103.697 30.69C103.487 31.86 103.382 32.91 103.382 33.84C103.382 35.16 103.877 35.895 104.867 36.045C105.767 35.925 106.622 35.7 107.432 35.37C108.242 35.04 108.962 34.62 109.592 34.11C109.772 34.38 109.877 34.605 109.907 34.785C109.727 35.055 109.412 35.37 108.962 35.73C108.542 36.09 108.077 36.435 107.567 36.765C107.057 37.125 106.562 37.425 106.082 37.665C105.602 37.905 105.242 38.04 105.002 38.07C104.252 38.04 103.502 37.875 102.752 37.575C102.002 37.275 101.312 36.9 100.682 36.45C100.082 36 99.5873 35.505 99.1973 34.965C98.8073 34.395 98.6123 33.84 98.6123 33.3C98.6123 32.58 98.7023 31.68 98.8823 30.6C99.0923 29.49 99.3773 28.29 99.7373 27C100.097 25.71 100.517 24.36 100.997 22.95C101.477 21.54 102.002 20.145 102.572 18.765H100.007Z" fill="white"/>
<path d="M118.483 37.575C116.773 37.395 115.408 36.645 114.388 35.325C113.368 34.005 112.858 32.325 112.858 30.285C112.858 29.085 113.038 27.84 113.398 26.55C113.758 25.26 114.268 24.015 114.928 22.815C115.588 21.585 116.368 20.43 117.268 19.35C118.168 18.27 119.143 17.34 120.193 16.56C121.843 15.33 123.388 14.715 124.828 14.715C125.788 15.225 126.733 16.29 127.663 17.91C127.813 17.91 127.948 17.91 128.068 17.91C128.188 17.88 128.323 17.865 128.473 17.865C130.063 17.865 130.858 19.275 130.858 22.095C130.858 23.985 130.543 25.785 129.913 27.495C129.313 29.175 128.458 30.705 127.348 32.085C126.268 33.465 124.963 34.635 123.433 35.595C121.933 36.525 120.283 37.185 118.483 37.575ZM120.778 23.4C120.268 24.09 119.788 24.84 119.338 25.65C118.888 26.46 118.498 27.285 118.168 28.125C117.838 28.935 117.583 29.73 117.403 30.51C117.223 31.26 117.133 31.935 117.133 32.535C117.133 33.255 117.253 33.945 117.493 34.605C117.733 35.265 118.003 35.64 118.303 35.73C119.653 35.43 120.883 34.875 121.993 34.065C123.133 33.225 124.108 32.19 124.918 30.96C125.758 29.73 126.403 28.335 126.853 26.775C127.333 25.215 127.573 23.55 127.573 21.78C127.573 21 127.528 20.385 127.438 19.935C127.348 19.485 127.198 19.095 126.988 18.765C125.668 19.155 124.483 19.785 123.433 20.655C122.413 21.525 121.528 22.44 120.778 23.4Z" fill="white"/>
<path d="M131.956 35.1C132.106 34.23 132.361 33.09 132.721 31.68C133.111 30.24 133.561 28.725 134.071 27.135C134.581 25.515 135.121 23.895 135.691 22.275C136.261 20.655 136.816 19.2 137.356 17.91C137.746 16.98 138.091 16.26 138.391 15.75C138.691 15.21 139.021 14.76 139.381 14.4C139.801 14.46 140.236 14.565 140.686 14.715C141.136 14.865 141.571 15.045 141.991 15.255C142.411 15.465 142.786 15.69 143.116 15.93C143.446 16.14 143.701 16.35 143.881 16.56C143.071 17.52 142.351 18.615 141.721 19.845C141.121 21.075 140.506 22.65 139.876 24.57C141.496 23.13 142.921 21.75 144.151 20.43C145.411 19.11 146.581 17.64 147.661 16.02C147.841 15.87 148.156 15.795 148.606 15.795C149.026 15.795 149.431 15.87 149.821 16.02C150.211 16.14 150.481 16.32 150.631 16.56C150.091 18 149.821 19.425 149.821 20.835C149.821 22.155 150.016 23.145 150.406 23.805C150.376 23.985 150.166 24.33 149.776 24.84C149.416 25.35 149.011 25.83 148.561 26.28C147.751 25.86 147.031 25.29 146.401 24.57C145.771 23.82 145.306 23.01 145.006 22.14C143.596 23.13 142.396 24.105 141.406 25.065C140.416 25.995 139.561 27.045 138.841 28.215C138.151 29.355 137.551 30.675 137.041 32.175C136.561 33.675 136.096 35.46 135.646 37.53C135.376 37.5 135.046 37.395 134.656 37.215C134.296 37.065 133.921 36.87 133.531 36.63C133.171 36.39 132.841 36.135 132.541 35.865C132.241 35.595 132.046 35.34 131.956 35.1Z" fill="white"/>
<path d="M167.295 17.37C167.175 19.23 166.845 20.835 166.305 22.185C165.765 23.505 164.985 24.675 163.965 25.695C162.975 26.685 161.76 27.585 160.32 28.395C158.88 29.205 157.2 29.985 155.28 30.735C155.28 30.915 155.265 31.11 155.235 31.32C155.235 31.5 155.235 31.695 155.235 31.905C155.235 32.295 155.265 32.7 155.325 33.12C155.385 33.54 155.49 33.93 155.64 34.29C155.79 34.65 156 34.95 156.27 35.19C156.54 35.4 156.885 35.505 157.305 35.505C158.115 35.505 158.91 35.325 159.69 34.965C160.47 34.605 161.205 34.17 161.895 33.66C162.615 33.12 163.275 32.55 163.875 31.95C164.505 31.32 165.06 30.75 165.54 30.24C165.84 30.51 166.095 30.765 166.305 31.005C164.955 32.805 163.47 34.305 161.85 35.505C160.26 36.675 158.745 37.425 157.305 37.755C155.235 37.515 153.615 36.765 152.445 35.505C151.305 34.215 150.735 32.67 150.735 30.87C150.735 29.64 150.9 28.395 151.23 27.135C151.59 25.845 152.07 24.615 152.67 23.445C153.3 22.245 154.02 21.12 154.83 20.07C155.67 19.02 156.555 18.105 157.485 17.325C158.445 16.545 159.42 15.93 160.41 15.48C161.43 15.03 162.435 14.805 163.425 14.805C164.805 14.985 166.095 15.84 167.295 17.37ZM164.19 18.855C163.38 18.975 162.54 19.305 161.67 19.845C160.8 20.385 159.975 21.105 159.195 22.005C158.445 22.905 157.755 23.955 157.125 25.155C156.495 26.355 156 27.645 155.64 29.025C158.04 27.825 160.035 26.355 161.625 24.615C163.215 22.845 164.07 20.925 164.19 18.855Z" fill="white"/>
<path d="M31.145 11.205C31.145 12.645 30.815 14.01 30.155 15.3C29.525 16.56 28.64 17.7 27.5 18.72C26.36 19.71 25.025 20.55 23.495 21.24C21.965 21.93 20.3 22.395 18.5 22.635C18.95 23.985 19.49 25.38 20.12 26.82C20.78 28.23 21.485 29.595 22.235 30.915C22.985 32.235 23.765 33.45 24.575 34.56C25.385 35.67 26.18 36.585 26.96 37.305C26.81 37.605 26.585 37.905 26.285 38.205C26.015 38.505 25.685 38.775 25.295 39.015C24.935 39.285 24.545 39.495 24.125 39.645C23.735 39.825 23.36 39.915 23 39.915C22.34 39.915 21.71 39.6 21.11 38.97C20.51 38.34 19.895 37.35 19.265 36C18.665 34.62 18.02 32.85 17.33 30.69C16.67 28.5 15.935 25.875 15.125 22.815C14.795 22.815 14.465 22.815 14.135 22.815C13.805 22.815 13.55 22.785 13.37 22.725C13.16 22.605 12.935 22.395 12.695 22.095C11.885 23.835 11.165 25.47 10.535 27C9.90499 28.53 9.33499 30.015 8.82499 31.455C8.34499 32.865 7.90999 34.245 7.51999 35.595C7.15999 36.915 6.84499 38.265 6.57499 39.645C5.55499 39.405 4.66999 38.97 3.91999 38.34C3.16999 37.71 2.46499 36.825 1.80499 35.685C1.92499 35.415 2.04499 35.16 2.16499 34.92C2.31499 34.65 2.49499 34.29 2.70499 33.84C2.91499 33.36 3.16999 32.76 3.46999 32.04C3.79999 31.32 4.21999 30.36 4.72999 29.16C5.26999 27.96 5.89999 26.49 6.61999 24.75C7.36999 23.01 8.26999 20.895 9.31999 18.405C9.79999 17.295 10.205 16.32 10.535 15.48C10.895 14.64 11.21 13.845 11.48 13.095C11.75 12.315 11.99 11.55 12.2 10.8C12.44 10.02 12.68 9.13501 12.92 8.14501C11.54 8.625 10.25 9.165 9.04999 9.76501C7.87999 10.335 6.90499 10.95 6.12499 11.61C5.85499 11.43 5.56999 11.16 5.26999 10.8C4.99999 10.44 4.74499 10.05 4.50499 9.63001C4.26499 9.18001 4.05499 8.73001 3.87499 8.28C3.69499 7.83 3.58999 7.42501 3.55999 7.06501C4.45999 6.46501 5.55499 5.91001 6.84499 5.40001C8.16499 4.89001 9.55999 4.45501 11.03 4.095C12.5 3.705 14 3.405 15.53 3.19501C17.06 2.985 18.485 2.88 19.805 2.88C23.405 2.88 26.195 3.63 28.175 5.13C30.155 6.60001 31.145 8.62501 31.145 11.205ZM20.165 7.425C19.955 7.695 19.625 8.235 19.175 9.045C18.725 9.85501 18.2 10.83 17.6 11.97C17.03 13.08 16.415 14.295 15.755 15.615C15.125 16.935 14.51 18.24 13.91 19.53C16.16 19.53 18.23 19.32 20.12 18.9C22.01 18.48 23.645 17.895 25.025 17.145C26.405 16.365 27.47 15.465 28.22 14.445C29 13.395 29.39 12.24 29.39 10.98C29.39 9.48001 28.85 8.34001 27.77 7.56001C26.69 6.75 25.025 6.34501 22.775 6.34501C22.265 6.34501 21.755 6.37501 21.245 6.43501C20.735 6.46501 20.195 6.51001 19.625 6.57L20.165 7.425Z" stroke="black" stroke-width="2" mask="url(#path-1-outside-1_1_4)"/>
<path d="M29.8094 32.985C29.8094 32.715 29.8244 32.385 29.8544 31.995C29.9144 31.575 30.0044 31.035 30.1244 30.375C30.2444 29.685 30.3944 28.86 30.5744 27.9C30.7844 26.94 31.0394 25.785 31.3394 24.435C31.3994 24.135 31.5344 23.655 31.7444 22.995C31.9544 22.335 32.2244 21.645 32.5544 20.925C32.9144 20.175 33.3344 19.455 33.8144 18.765C34.3244 18.075 34.9244 17.565 35.6144 17.235C36.1244 17.355 36.7994 17.67 37.6394 18.18C38.4794 18.66 39.1994 19.335 39.7994 20.205C39.1094 20.985 38.5244 21.765 38.0444 22.545C37.5944 23.325 37.1744 24.135 36.7844 24.975C36.4244 25.815 36.0794 26.685 35.7494 27.585C35.4494 28.485 35.1044 29.43 34.7144 30.42C34.3844 31.26 34.0844 32.13 33.8144 33.03C33.5444 33.9 33.3944 34.665 33.3644 35.325C33.3644 35.865 33.3494 36.24 33.3194 36.45C33.3194 36.69 33.2444 36.81 33.0944 36.81C32.9744 36.81 32.7344 36.735 32.3744 36.585C32.0144 36.435 31.6394 36.21 31.2494 35.91C30.8894 35.58 30.5594 35.175 30.2594 34.695C29.9594 34.215 29.8094 33.645 29.8094 32.985ZM38.4044 13.455C38.4044 13.275 38.4494 13.005 38.5394 12.645C38.3894 12.495 38.2544 12.27 38.1344 11.97C38.0444 11.67 37.9994 11.4 37.9994 11.16C37.9994 10.89 38.0294 10.53 38.0894 10.08C38.1794 9.60001 38.2844 9.09001 38.4044 8.55001C38.5244 8.01001 38.6744 7.45501 38.8544 6.88501C39.0344 6.285 39.2144 5.745 39.3944 5.26501C39.7544 5.26501 40.1894 5.37001 40.6994 5.58C41.2394 5.76001 41.7794 6.01501 42.3194 6.34501C42.8594 6.645 43.3544 6.99 43.8044 7.38C44.2544 7.74001 44.5994 8.08501 44.8394 8.41501C44.5094 8.745 44.0744 9.21 43.5344 9.81001C42.9944 10.38 42.4694 10.995 41.9594 11.655C41.4494 12.285 40.9844 12.885 40.5644 13.455C40.1444 14.025 39.8744 14.43 39.7544 14.67C39.3944 14.61 39.0794 14.46 38.8094 14.22C38.5394 13.95 38.4044 13.695 38.4044 13.455Z" stroke="black" stroke-width="2" mask="url(#path-1-outside-1_1_4)"/>
<path d="M71.4116 3.51C70.9016 3.51 70.3466 3.825 69.7466 4.45501C69.1466 5.08501 68.5016 5.97001 67.8116 7.11001C67.1516 8.22001 66.4766 9.55501 65.7866 11.115C65.1266 12.675 64.4816 14.4 63.8516 16.29C64.5416 16.32 65.2616 16.365 66.0116 16.425C66.7916 16.455 67.4516 16.515 67.9916 16.605C68.0516 16.725 68.0816 16.935 68.0816 17.235C68.0816 17.565 68.0366 17.925 67.9466 18.315C67.8866 18.705 67.7816 19.005 67.6316 19.215C66.8816 19.155 66.1316 19.095 65.3816 19.035C64.6616 18.945 63.9116 18.87 63.1316 18.81C61.6316 23.55 60.2816 27.675 59.0816 31.185C57.9116 34.695 56.8166 37.695 55.7966 40.185C54.8066 42.705 53.8766 44.76 53.0066 46.35C52.1366 47.94 51.2516 49.185 50.3516 50.085C49.4516 51.015 48.5066 51.645 47.5166 51.975C46.5566 52.335 45.4916 52.515 44.3216 52.515C42.9716 52.515 41.8316 52.305 40.9016 51.885C40.0016 51.495 39.1616 50.955 38.3816 50.265C37.4816 51.105 36.5516 51.69 35.5916 52.02C34.6016 52.35 33.5066 52.515 32.3066 52.515C30.1766 52.515 28.3616 51.795 26.8616 50.355C26.8616 50.145 26.9216 49.92 27.0416 49.68C27.1616 49.44 27.2966 49.275 27.4466 49.185C27.8666 49.695 28.4216 50.085 29.1116 50.355C29.8016 50.655 30.5216 50.805 31.2716 50.805C32.0516 50.805 32.7716 50.625 33.4316 50.265C34.0616 49.935 34.6916 49.365 35.3216 48.555C35.9216 47.745 36.5216 46.68 37.1216 45.36C37.7516 44.04 38.4266 42.405 39.1466 40.455C40.2566 37.455 41.3366 34.215 42.3866 30.735C43.4366 27.255 44.5916 23.37 45.8516 19.08C45.1616 19.14 44.4866 19.2 43.8266 19.26C43.1666 19.32 42.5516 19.38 41.9816 19.44C41.8616 19.32 41.7566 19.155 41.6666 18.945C41.6066 18.735 41.5766 18.54 41.5766 18.36C41.9666 18.24 42.5666 18.105 43.3766 17.955C44.2166 17.775 45.2066 17.595 46.3466 17.415C47.0366 15.165 47.7866 13.14 48.5966 11.34C49.4066 9.54 50.2916 7.99501 51.2516 6.70501C52.2116 5.41501 53.2466 4.42501 54.3566 3.73501C55.4966 3.04501 56.7266 2.70001 58.0466 2.70001C59.2166 2.70001 60.3266 3.00001 61.3766 3.60001C62.4566 4.2 63.4466 4.845 64.3466 5.535C65.3366 4.48501 66.3716 3.64501 67.4516 3.015C68.5616 2.38501 69.6416 2.07001 70.6916 2.07001C71.0216 2.07001 71.3516 2.10001 71.6816 2.16001C72.0416 2.19 72.3116 2.205 72.4916 2.205C72.7616 1.99501 73.1216 1.81501 73.5716 1.66501C74.0216 1.485 74.4116 1.395 74.7416 1.395C75.1016 1.395 75.5666 1.59 76.1366 1.98C75.8966 2.4 75.6416 2.97 75.3716 3.69C75.1016 4.41001 74.8766 5.11501 74.6966 5.80501C73.9466 8.02501 73.1516 9.46501 72.3116 10.125C71.9816 10.125 71.8016 9.69 71.7716 8.82001C71.7116 8.16 71.5916 7.59001 71.4116 7.11001C71.2616 6.60001 71.1866 6.04501 71.1866 5.44501C71.1866 5.265 71.2016 5.055 71.2316 4.81501C71.2616 4.54501 71.3216 4.11001 71.4116 3.51ZM50.8016 40.455C51.3116 39.075 51.8516 37.515 52.4216 35.775C52.9916 34.035 53.5616 32.22 54.1316 30.33C54.7316 28.44 55.3316 26.505 55.9316 24.525C56.5316 22.515 57.1016 20.55 57.6416 18.63H56.7866C56.0066 18.63 55.1666 18.645 54.2666 18.675C53.3966 18.675 52.4966 18.69 51.5666 18.72C50.1866 23.19 48.9266 27.12 47.7866 30.51C46.6766 33.87 45.6266 36.78 44.6366 39.24C43.6766 41.73 42.7466 43.785 41.8466 45.405C40.9766 47.055 40.1066 48.39 39.2366 49.41C39.6866 49.83 40.2416 50.16 40.9016 50.4C41.5916 50.67 42.2666 50.805 42.9266 50.805C43.6766 50.805 44.3666 50.625 44.9966 50.265C45.6566 49.935 46.2866 49.365 46.8866 48.555C47.5166 47.745 48.1466 46.68 48.7766 45.36C49.4066 44.04 50.0816 42.405 50.8016 40.455ZM58.2716 16.335C58.8116 14.565 59.5016 12.87 60.3416 11.25C61.2116 9.63001 62.1716 8.16001 63.2216 6.84001C62.5616 6.42001 61.9466 6.135 61.3766 5.985C60.8066 5.835 60.4016 5.76 60.1616 5.76C59.3816 5.76 58.6616 6 58.0016 6.48001C57.3416 6.93001 56.6966 7.62001 56.0666 8.55001C55.4366 9.48 54.8066 10.62 54.1766 11.97C53.5766 13.32 52.9316 14.895 52.2416 16.695C53.2016 16.605 54.1766 16.53 55.1666 16.47C56.1866 16.41 57.2216 16.365 58.2716 16.335Z" stroke="black" stroke-width="2" mask="url(#path-1-outside-1_1_4)"/>
<path d="M96.4182 5.67001C96.5082 6.18001 96.5682 6.54001 96.5982 6.75001C96.6582 6.93 96.6882 7.185 96.6882 7.51501C96.6882 8.50501 96.4632 9.43501 96.0132 10.305C95.5932 11.145 95.0082 11.745 94.2582 12.105C93.6582 11.295 92.9232 10.605 92.0532 10.035C91.1832 9.43501 90.2232 8.95501 89.1732 8.59501C88.1532 8.20501 87.0882 7.92 85.9782 7.74001C84.8682 7.56001 83.7882 7.47001 82.7382 7.47001C81.6882 7.47001 80.6982 7.56001 79.7682 7.74001C78.8682 7.89001 78.0582 8.11501 77.3382 8.41501C76.6482 8.68501 76.0932 9.03001 75.6732 9.45001C75.2832 9.87001 75.0882 10.35 75.0882 10.89C75.1782 11.55 75.5832 12.225 76.3032 12.915C77.0232 13.575 77.9082 14.235 78.9582 14.895C80.0082 15.525 81.1632 16.155 82.4232 16.785C83.7132 17.415 84.9732 18.015 86.2032 18.585C87.7332 19.305 89.0532 19.98 90.1632 20.61C91.2732 21.21 92.1882 21.885 92.9082 22.635C93.6282 23.355 94.1682 24.18 94.5282 25.11C94.8882 26.04 95.0682 27.165 95.0682 28.485C95.0682 30.015 94.8132 31.455 94.3032 32.805C93.7932 34.125 93.0432 35.28 92.0532 36.27C91.0932 37.26 89.9232 38.025 88.5432 38.565C87.1632 39.135 85.6182 39.42 83.9082 39.42C82.2282 39.42 80.4132 39.165 78.4632 38.655C76.5132 38.145 74.6832 37.44 72.9732 36.54C71.2932 35.67 69.8832 34.665 68.7432 33.525C67.6332 32.355 67.0782 31.125 67.0782 29.835C67.0782 29.235 67.2432 28.47 67.5732 27.54C67.9332 26.61 68.5632 25.635 69.4632 24.615C69.5532 25.515 70.0332 26.58 70.9032 27.81C71.8032 29.04 73.1382 30.18 74.9082 31.23C76.5582 32.19 78.2532 32.895 79.9932 33.345C81.7632 33.765 83.4132 33.975 84.9432 33.975C86.6232 33.975 87.9882 33.765 89.0382 33.345C90.0882 32.925 90.9132 32.43 91.5132 31.86C92.1132 31.26 92.5332 30.66 92.7732 30.06C93.0132 29.46 93.1482 28.98 93.1782 28.62C93.1482 28.02 92.8632 27.45 92.3232 26.91C91.8132 26.34 91.1082 25.8 90.2082 25.29C89.3382 24.75 88.3182 24.21 87.1482 23.67C85.9782 23.13 84.7632 22.59 83.5032 22.05C81.6132 21.21 79.9782 20.43 78.5982 19.71C77.2482 18.96 76.1232 18.21 75.2232 17.46C74.3532 16.68 73.7082 15.87 73.2882 15.03C72.8982 14.19 72.7032 13.23 72.7032 12.15C72.7032 10.47 73.2132 8.88001 74.2332 7.38C75.2532 5.88 76.7232 4.74001 78.6432 3.96001C79.6032 3.54001 80.6232 3.24001 81.7032 3.06C82.8132 2.88 83.8932 2.79001 84.9432 2.79001C86.9232 2.79001 88.8582 3.06001 90.7482 3.60001C92.6382 4.14001 94.5282 4.83001 96.4182 5.67001Z" stroke="black" stroke-width="2" mask="url(#path-1-outside-1_1_4)"/>
<path d="M100.007 18.765C99.8573 18.585 99.7223 18.21 99.6023 17.64C99.4823 17.04 99.4223 16.53 99.4223 16.11C100.202 16.17 100.952 16.23 101.672 16.29C102.392 16.32 103.052 16.35 103.652 16.38C104.102 15.48 104.582 14.595 105.092 13.725C105.632 12.825 106.142 12.015 106.622 11.295C107.132 10.545 107.597 9.91501 108.017 9.40501C108.467 8.895 108.812 8.56501 109.052 8.41501C109.352 8.41501 109.727 8.47501 110.177 8.59501C110.657 8.68501 111.137 8.82001 111.617 9.00001C112.097 9.15001 112.532 9.31501 112.922 9.495C113.312 9.67501 113.582 9.85501 113.732 10.035C112.832 11.175 112.052 12.24 111.392 13.23C110.762 14.19 110.072 15.3 109.322 16.56C109.922 16.56 110.522 16.545 111.122 16.515C111.752 16.485 112.382 16.44 113.012 16.38C113.162 16.53 113.282 16.725 113.372 16.965C113.462 17.175 113.507 17.4 113.507 17.64C112.037 18.18 110.252 18.48 108.152 18.54C107.402 19.98 106.727 21.42 106.127 22.86C105.557 24.27 105.062 25.635 104.642 26.955C104.252 28.275 103.937 29.52 103.697 30.69C103.487 31.86 103.382 32.91 103.382 33.84C103.382 35.16 103.877 35.895 104.867 36.045C105.767 35.925 106.622 35.7 107.432 35.37C108.242 35.04 108.962 34.62 109.592 34.11C109.772 34.38 109.877 34.605 109.907 34.785C109.727 35.055 109.412 35.37 108.962 35.73C108.542 36.09 108.077 36.435 107.567 36.765C107.057 37.125 106.562 37.425 106.082 37.665C105.602 37.905 105.242 38.04 105.002 38.07C104.252 38.04 103.502 37.875 102.752 37.575C102.002 37.275 101.312 36.9 100.682 36.45C100.082 36 99.5873 35.505 99.1973 34.965C98.8073 34.395 98.6123 33.84 98.6123 33.3C98.6123 32.58 98.7023 31.68 98.8823 30.6C99.0923 29.49 99.3773 28.29 99.7373 27C100.097 25.71 100.517 24.36 100.997 22.95C101.477 21.54 102.002 20.145 102.572 18.765H100.007Z" stroke="black" stroke-width="2" mask="url(#path-1-outside-1_1_4)"/>
<path d="M118.483 37.575C116.773 37.395 115.408 36.645 114.388 35.325C113.368 34.005 112.858 32.325 112.858 30.285C112.858 29.085 113.038 27.84 113.398 26.55C113.758 25.26 114.268 24.015 114.928 22.815C115.588 21.585 116.368 20.43 117.268 19.35C118.168 18.27 119.143 17.34 120.193 16.56C121.843 15.33 123.388 14.715 124.828 14.715C125.788 15.225 126.733 16.29 127.663 17.91C127.813 17.91 127.948 17.91 128.068 17.91C128.188 17.88 128.323 17.865 128.473 17.865C130.063 17.865 130.858 19.275 130.858 22.095C130.858 23.985 130.543 25.785 129.913 27.495C129.313 29.175 128.458 30.705 127.348 32.085C126.268 33.465 124.963 34.635 123.433 35.595C121.933 36.525 120.283 37.185 118.483 37.575ZM120.778 23.4C120.268 24.09 119.788 24.84 119.338 25.65C118.888 26.46 118.498 27.285 118.168 28.125C117.838 28.935 117.583 29.73 117.403 30.51C117.223 31.26 117.133 31.935 117.133 32.535C117.133 33.255 117.253 33.945 117.493 34.605C117.733 35.265 118.003 35.64 118.303 35.73C119.653 35.43 120.883 34.875 121.993 34.065C123.133 33.225 124.108 32.19 124.918 30.96C125.758 29.73 126.403 28.335 126.853 26.775C127.333 25.215 127.573 23.55 127.573 21.78C127.573 21 127.528 20.385 127.438 19.935C127.348 19.485 127.198 19.095 126.988 18.765C125.668 19.155 124.483 19.785 123.433 20.655C122.413 21.525 121.528 22.44 120.778 23.4Z" stroke="black" stroke-width="2" mask="url(#path-1-outside-1_1_4)"/>
<path d="M131.956 35.1C132.106 34.23 132.361 33.09 132.721 31.68C133.111 30.24 133.561 28.725 134.071 27.135C134.581 25.515 135.121 23.895 135.691 22.275C136.261 20.655 136.816 19.2 137.356 17.91C137.746 16.98 138.091 16.26 138.391 15.75C138.691 15.21 139.021 14.76 139.381 14.4C139.801 14.46 140.236 14.565 140.686 14.715C141.136 14.865 141.571 15.045 141.991 15.255C142.411 15.465 142.786 15.69 143.116 15.93C143.446 16.14 143.701 16.35 143.881 16.56C143.071 17.52 142.351 18.615 141.721 19.845C141.121 21.075 140.506 22.65 139.876 24.57C141.496 23.13 142.921 21.75 144.151 20.43C145.411 19.11 146.581 17.64 147.661 16.02C147.841 15.87 148.156 15.795 148.606 15.795C149.026 15.795 149.431 15.87 149.821 16.02C150.211 16.14 150.481 16.32 150.631 16.56C150.091 18 149.821 19.425 149.821 20.835C149.821 22.155 150.016 23.145 150.406 23.805C150.376 23.985 150.166 24.33 149.776 24.84C149.416 25.35 149.011 25.83 148.561 26.28C147.751 25.86 147.031 25.29 146.401 24.57C145.771 23.82 145.306 23.01 145.006 22.14C143.596 23.13 142.396 24.105 141.406 25.065C140.416 25.995 139.561 27.045 138.841 28.215C138.151 29.355 137.551 30.675 137.041 32.175C136.561 33.675 136.096 35.46 135.646 37.53C135.376 37.5 135.046 37.395 134.656 37.215C134.296 37.065 133.921 36.87 133.531 36.63C133.171 36.39 132.841 36.135 132.541 35.865C132.241 35.595 132.046 35.34 131.956 35.1Z" stroke="black" stroke-width="2" mask="url(#path-1-outside-1_1_4)"/>
<path d="M167.295 17.37C167.175 19.23 166.845 20.835 166.305 22.185C165.765 23.505 164.985 24.675 163.965 25.695C162.975 26.685 161.76 27.585 160.32 28.395C158.88 29.205 157.2 29.985 155.28 30.735C155.28 30.915 155.265 31.11 155.235 31.32C155.235 31.5 155.235 31.695 155.235 31.905C155.235 32.295 155.265 32.7 155.325 33.12C155.385 33.54 155.49 33.93 155.64 34.29C155.79 34.65 156 34.95 156.27 35.19C156.54 35.4 156.885 35.505 157.305 35.505C158.115 35.505 158.91 35.325 159.69 34.965C160.47 34.605 161.205 34.17 161.895 33.66C162.615 33.12 163.275 32.55 163.875 31.95C164.505 31.32 165.06 30.75 165.54 30.24C165.84 30.51 166.095 30.765 166.305 31.005C164.955 32.805 163.47 34.305 161.85 35.505C160.26 36.675 158.745 37.425 157.305 37.755C155.235 37.515 153.615 36.765 152.445 35.505C151.305 34.215 150.735 32.67 150.735 30.87C150.735 29.64 150.9 28.395 151.23 27.135C151.59 25.845 152.07 24.615 152.67 23.445C153.3 22.245 154.02 21.12 154.83 20.07C155.67 19.02 156.555 18.105 157.485 17.325C158.445 16.545 159.42 15.93 160.41 15.48C161.43 15.03 162.435 14.805 163.425 14.805C164.805 14.985 166.095 15.84 167.295 17.37ZM164.19 18.855C163.38 18.975 162.54 19.305 161.67 19.845C160.8 20.385 159.975 21.105 159.195 22.005C158.445 22.905 157.755 23.955 157.125 25.155C156.495 26.355 156 27.645 155.64 29.025C158.04 27.825 160.035 26.355 161.625 24.615C163.215 22.845 164.07 20.925 164.19 18.855Z" stroke="black" stroke-width="2" mask="url(#path-1-outside-1_1_4)"/>
</svg>
